<?xml version="1.0" encoding="utf-8"?>
<!-- Generator: Adobe Illustrator 26.3.1, SVG Export Plug-In . SVG Version: 6.00 Build 0)  -->
<svg version="1.1" id="Laag_1" xmlns="http://www.w3.org/2000/svg" xmlns:xlink="http://www.w3.org/1999/xlink" x="0px" y="0px"
	 viewBox="0 0 640 235" style="enable-background:new 0 0 640 235;" xml:space="preserve">
<style type="text/css">
	.st0{clip-path:url(#SVGID_00000169546268223323205620000001212367759425529524_);fill:#BDA600;}
	.st1{clip-path:url(#SVGID_00000169546268223323205620000001212367759425529524_);fill:none;stroke:#BDA600;stroke-width:1.019;}
</style>
<g>
	<defs>
		<rect id="SVGID_1_" x="46.1" y="41.4" width="547.8" height="152.2"/>
	</defs>
	<clipPath id="SVGID_00000057848167955239641400000001625069002195641009_">
		<use xlink:href="#SVGID_1_"  style="overflow:visible;"/>
	</clipPath>
	<path style="clip-path:url(#SVGID_00000057848167955239641400000001625069002195641009_);fill:#BDA600;" d="M86.5,69.7L101.1,95
		c-2.3,1.7-4.4,3.7-6,6L55.1,77.9c1.2-2.6,1.9-5.4,2.2-8.2L86.5,69.7z"/>
	<path style="clip-path:url(#SVGID_00000057848167955239641400000001625069002195641009_);fill:#BDA600;" d="M92.1,106.3
		c-1.2,2.6-1.9,5.3-2.2,8.2l-29.2,0L46.1,89.2c2.3-1.7,4.3-3.7,6-6L92.1,106.3z"/>
	<path style="clip-path:url(#SVGID_00000057848167955239641400000001625069002195641009_);fill:#BDA600;" d="M114.6,43.6l0,46.2
		c-1.4,0.2-2.8,0.4-4.2,0.8c-1.4,0.4-2.7,0.8-4,1.4L91.8,66.7l14.6-25.3C108.9,42.6,111.7,43.3,114.6,43.6"/>
	<path style="clip-path:url(#SVGID_00000057848167955239641400000001625069002195641009_);fill:#BDA600;" d="M128.8,41.4l14.6,25.3
		L128.8,92c-2.6-1.2-5.3-1.9-8.2-2.2l0-46.2c1.4-0.2,2.7-0.4,4.1-0.8C126.1,42.4,127.5,42,128.8,41.4"/>
	<path style="clip-path:url(#SVGID_00000057848167955239641400000001625069002195641009_);fill:#BDA600;" d="M177.9,69.7
		c0.2,1.4,0.4,2.8,0.8,4.2c0.4,1.4,0.8,2.8,1.4,4l-40,23.1c-1.7-2.3-3.7-4.3-6-6l14.6-25.2L177.9,69.7z"/>
	<path style="clip-path:url(#SVGID_00000057848167955239641400000001625069002195641009_);fill:#BDA600;" d="M189.1,89.2l-14.6,25.3
		l-29.2,0c-0.2-1.4-0.4-2.8-0.8-4.2c-0.4-1.4-0.8-2.8-1.4-4l40-23.1C184.8,85.5,186.8,87.5,189.1,89.2"/>
	<path style="clip-path:url(#SVGID_00000057848167955239641400000001625069002195641009_);fill:#BDA600;" d="M101.1,140l-14.6,25.2
		l-29.2,0c-0.1-1.4-0.4-2.8-0.7-4.2s-0.8-2.8-1.4-4l40-23.1C96.8,136.3,98.8,138.3,101.1,140"/>
	<path style="clip-path:url(#SVGID_00000057848167955239641400000001625069002195641009_);fill:#BDA600;" d="M89.9,120.5
		c0.1,1.4,0.4,2.8,0.7,4.2c0.4,1.4,0.8,2.8,1.4,4l-40,23.1c-1.7-2.3-3.7-4.3-6-6l14.6-25.2L89.9,120.5z"/>
	<path style="clip-path:url(#SVGID_00000057848167955239641400000001625069002195641009_);fill:#BDA600;" d="M128.8,143l14.6,25.3
		l-14.6,25.3c-2.6-1.2-5.3-1.9-8.2-2.2l0-27.7l0-18.4c1.4-0.2,2.8-0.4,4.2-0.8C126.2,144,127.5,143.6,128.8,143"/>
	<path style="clip-path:url(#SVGID_00000057848167955239641400000001625069002195641009_);fill:#BDA600;" d="M114.5,145.2l0,18.4
		l0,27.8c-1.4,0.2-2.8,0.4-4.2,0.8c-1.4,0.4-2.8,0.8-4,1.4l-14.6-25.3l14.6-25.3C108.9,144.1,111.7,144.9,114.5,145.2"/>
	<path style="clip-path:url(#SVGID_00000057848167955239641400000001625069002195641009_);fill:#BDA600;" d="M174.5,120.5l14.6,25.3
		c-2.3,1.7-4.3,3.7-6,6l-40-23.1c1.2-2.6,1.9-5.4,2.2-8.2L174.5,120.5z"/>
	<path style="clip-path:url(#SVGID_00000057848167955239641400000001625069002195641009_);fill:#BDA600;" d="M180.1,157.1
		c-1.1,2.5-1.9,5.4-2.1,8.2l-29.2,0l-14.6-25.3c2.3-1.7,4.3-3.7,6-6L180.1,157.1z"/>
	
		<line style="clip-path:url(#SVGID_00000057848167955239641400000001625069002195641009_);fill:none;stroke:#BDA600;stroke-width:1.019;" x1="216.6" y1="41.4" x2="216.6" y2="193.6"/>
	<path style="clip-path:url(#SVGID_00000057848167955239641400000001625069002195641009_);fill:#BDA600;" d="M584.5,128.7h-6.8v36.6
		h6.8V128.7z M561.3,158.3c-1.1,0.3-5,2-7.2,2c-2.1,0-3.4-0.9-3.4-3.3c0-1.8,0.7-3.3,5.4-3.5l5.2-0.3V158.3z M570.5,160.3
		c-1.5-0.1-2.6-0.3-2.6-1.8v-14c0-7.3-5.5-8.2-11.4-8.2c-4.4,0-7.9,1.1-10.4,2l1.3,5.1c2.1-0.5,5.1-1.3,7.9-1.3c4.1,0,6,0.5,6,3.9v3
		c-0.9,0-5.6,0.1-5.6,0.1c-5.2,0.1-11.6,1.3-11.6,8.4c0,5.5,3.3,8.2,9,8.2c4.1,0,7-2.1,8.8-3.4c0.6,3.1,5.1,3.4,8.4,3.2L570.5,160.3
		z M537.7,165.2v-18c0-5.8-0.6-11.1-9.2-11.1c-4.3,0-7.6,2.4-9.5,3.7v-3h-6.8v28.3h6.8v-20.7c1.3-0.7,4.5-2.4,7.3-2.4
		c3.8,0,4.6,1.9,4.6,6v17.2H537.7z M498.4,151.1c0,5.1-1.3,9.3-6.9,9.3c-5.4,0-7.2-3.9-7.2-9.2c0-4.9,1.5-9.5,7-9.5
		C497.1,141.7,498.4,146.3,498.4,151.1 M505.4,151.1c0-9.4-4.4-14.9-13.8-14.9c-8.4,0-14,5.6-14,15.1c0,9.1,4.9,14.5,13.6,14.5
		C499.3,165.9,505.4,160.8,505.4,151.1 M470.4,136.9h-6.8v28.3h6.8V136.9z M471.9,128.1l-5-4.9l-5,4.9l5,5L471.9,128.1z
		 M457.9,164.9l-0.8-5.4c0,0-3.4,0.6-5.4,0.6c-3.1,0-4-0.3-4-3.3v-14.7h8.8v-5.2h-8.8v-8.3h-6.8v8.3h-4.1v5.2h4.1v14.7
		c0,9.1,5.5,9,10.9,9C453.7,165.8,456.4,165.3,457.9,164.9 M423.6,158.3c-1.1,0.3-5,2-7.2,2c-2.1,0-3.4-0.9-3.4-3.3
		c0-1.8,0.7-3.3,5.4-3.5l5.2-0.3V158.3z M432.8,160.3c-1.5-0.1-2.6-0.3-2.6-1.8v-14c0-7.3-5.5-8.2-11.4-8.2c-4.4,0-7.9,1.1-10.4,2
		l1.3,5.1c2.1-0.5,5.1-1.3,7.9-1.3c4.1,0,6,0.5,6,3.9v3c-0.9,0-5.6,0.1-5.6,0.1c-5.2,0.1-11.6,1.3-11.6,8.4c0,5.5,3.3,8.2,9,8.2
		c4.1,0,7-2.1,8.8-3.4c0.6,3.1,5.1,3.4,8.4,3.2L432.8,160.3z M400,165.2v-18c0-5.8-0.6-11.1-9.2-11.1c-4.3,0-7.6,2.4-9.5,3.7v-3
		h-6.8v28.3h6.8v-20.7c1.3-0.7,4.5-2.4,7.3-2.4c3.8,0,4.6,1.9,4.6,6v17.2H400z M370.4,136.8c-0.9-0.3-2-0.5-3.6-0.5
		c-3.4,0-6.3,2.3-7.6,4.4v-3.8h-6.8v28.3h6.8v-19.7c1.2-1.6,3.8-3.2,6.7-3.2c1.6,0,2.3,0.1,3.6,0.3L370.4,136.8z M338.7,148.2h-11.3
		c0.3-4.8,3.3-6.7,6.2-6.7C336.5,141.5,338.8,143.8,338.7,148.2 M345.8,153v-2.5c0-8.9-3.3-14.3-11.5-14.3c-8,0-13.8,3.8-13.8,15.3
		c0,11.1,5.6,14.1,14.5,14.1c3.4,0,7.7-0.4,10-1.1l-1-5.3c-2.2,0.5-5.7,0.7-7.7,0.7c-5.1,0-8.9-0.9-9-7H345.8z M317.1,164.9
		l-0.8-5.4c0,0-3.4,0.6-5.4,0.6c-3.1,0-4-0.3-4-3.3v-14.7h8.8v-5.2h-8.8v-8.3H300v8.3h-4.1v5.2h4.1v14.7c0,9.1,5.5,9,10.9,9
		C312.9,165.8,315.6,165.3,317.1,164.9 M290.6,165.2v-18c0-5.8-0.6-11.1-9.2-11.1c-4.3,0-7.6,2.4-9.5,3.7v-3h-6.8v28.3h6.8v-20.7
		c1.3-0.7,4.5-2.4,7.3-2.4c3.8,0,4.6,1.9,4.6,6v17.2H290.6z M255.8,128.7h-7v36.6h7V128.7z"/>
	<path style="clip-path:url(#SVGID_00000057848167955239641400000001625069002195641009_);fill:#BDA600;" d="M593.9,98.1
		c0-9.4-14.2-8-14.2-12.6c0-1.3,1-2.5,4.2-2.5c3,0,5.2,0.5,7.3,1l1.2-5.1c-2.1-0.8-5.1-1.3-8.5-1.3c-5.9,0-11,2.7-11,8.5
		c0,10.1,14.3,8,14.3,12.5c0,1.6-1.4,2.8-5.8,2.8c-2,0-5.2-0.4-8.1-0.9l-0.8,5.3c2.1,0.7,5.7,1.1,9.7,1.1
		C586.9,106.9,593.9,105.1,593.9,98.1 M570.6,77.9c-0.9-0.3-2-0.5-3.6-0.5c-3.4,0-6.3,2.3-7.6,4.4V78h-6.8v28.3h6.8V86.6
		c1.2-1.6,3.8-3.2,6.7-3.2c1.6,0,2.3,0.1,3.6,0.3L570.6,77.9z M538.9,89.3h-11.3c0.3-4.8,3.3-6.7,6.2-6.7
		C536.7,82.6,538.9,84.9,538.9,89.3 M545.9,94.1v-2.5c0-8.9-3.3-14.3-11.5-14.3c-8,0-13.8,3.8-13.8,15.3c0,11.1,5.6,14.1,14.5,14.1
		c3.4,0,7.7-0.4,10-1.1l-1-5.3c-2.2,0.5-5.7,0.7-7.7,0.7c-5.1,0-8.9-0.9-9-7H545.9z M514,106.3v-18c0-5.8-0.6-11.1-9.2-11.1
		c-4.3,0-7.6,2.4-9.5,3.7v-3h-6.8v28.3h6.8V85.6c1.3-0.7,4.5-2.4,7.3-2.4c3.8,0,4.6,1.9,4.6,6v17.2H514z M483.1,106l-0.8-5.4
		c0,0-3.4,0.6-5.4,0.6c-3.1,0-4-0.3-4-3.3V83.2h8.8V78h-8.8v-8.4h-6.8V78h-4.1v5.2h4.1v14.7c0,9.1,5.5,9,10.9,9
		C479,106.9,481.6,106.4,483.1,106 M459.1,77.9c-0.9-0.3-2-0.5-3.6-0.5c-3.4,0-6.3,2.3-7.6,4.4V78H441v28.3h6.8V86.6
		c1.2-1.6,3.8-3.2,6.7-3.2c1.6,0,2.3,0.1,3.6,0.3L459.1,77.9z M424.6,99.3c-1.1,0.3-5,2-7.2,2c-2.1,0-3.4-0.9-3.4-3.3
		c0-1.8,0.7-3.3,5.4-3.5l5.2-0.3V99.3z M433.9,101.4c-1.5-0.1-2.6-0.3-2.6-1.8v-14c0-7.3-5.5-8.2-11.4-8.2c-4.4,0-7.9,1.1-10.4,2
		l1.3,5.1c2.1-0.5,5.1-1.3,7.9-1.3c4.1,0,6,0.5,6,3.9v3c-0.9,0-5.6,0.1-5.6,0.1c-5.2,0.1-11.6,1.3-11.6,8.4c0,5.5,3.3,8.2,9,8.2
		c4.1,0,7-2.1,8.8-3.4c0.6,3.1,5.1,3.4,8.4,3.2L433.9,101.4z M395.9,91.6c0,5.8-2.7,9.8-7.8,9.8c-2.3,0-3.6-0.2-4.6-0.3V84.7
		c1-0.5,3.3-1.5,5.3-1.5C394.2,83.2,395.9,86.2,395.9,91.6 M402.8,91.1c0-9.4-4.5-13.6-12.1-13.6c-2.7,0-5.8,1.5-7.3,2.6V78h-6.8
		v39.7h6.8v-11.2c1.1,0.2,2.6,0.2,4.4,0.2C395.7,106.8,402.8,102.9,402.8,91.1 M361.6,99.2c-1.3,0.6-3.5,1.8-5.6,1.8
		c-3.7,0-6.7-2.2-6.7-9c0-5.3,2.2-9.4,7.9-9.4c2,0,3.4,0.2,4.5,0.5V99.2z M368.4,106.3V69.7h-6.8v8c-1.3-0.3-2.4-0.5-4.6-0.5
		c-8.1,0-14.6,5.1-14.6,14.8c0,12.5,6.9,14.8,12.3,14.8c3.3,0,5.3-1.4,6.8-2.6v2.2H368.4z M330.6,92.2c0,5.1-1.3,9.3-6.9,9.3
		c-5.4,0-7.2-3.9-7.2-9.2c0-4.9,1.5-9.5,7-9.5C329.3,82.8,330.6,87.4,330.6,92.2 M337.6,92.2c0-9.4-4.4-14.9-13.8-14.9
		c-8.4,0-14,5.6-14,15.1c0,9.1,4.9,14.5,13.6,14.5C331.5,107,337.6,101.9,337.6,92.2 M297.9,92.2c0,5.1-1.3,9.3-6.9,9.3
		c-5.4,0-7.2-3.9-7.2-9.2c0-4.9,1.5-9.5,7-9.5C296.6,82.8,297.9,87.4,297.9,92.2 M304.9,92.2c0-9.4-4.4-14.9-13.8-14.9
		c-8.4,0-14,5.6-14,15.1c0,9.1,4.9,14.5,13.6,14.5C298.8,107,304.9,101.9,304.9,92.2 M272.8,75.2v-5.5h-24v36.6h7V91.5h15.9v-5.2
		h-15.9V75.2H272.8z"/>
</g>
</svg>
