<?xml version="1.0" encoding="utf-8"?>
<!-- Generator: Adobe Illustrator 26.3.1, SVG Export Plug-In . SVG Version: 6.00 Build 0)  -->
<svg version="1.1" id="Laag_1" xmlns="http://www.w3.org/2000/svg" xmlns:xlink="http://www.w3.org/1999/xlink" x="0px" y="0px"
	 viewBox="0 0 595.28 274.01" style="enable-background:new 0 0 595.28 274.01;" xml:space="preserve">
<style type="text/css">
	.st0{clip-path:url(#SVGID_00000161630470152939041570000007853752707593672348_);fill:#006580;}
	.st1{clip-path:url(#SVGID_00000161630470152939041570000007853752707593672348_);fill:none;stroke:#006580;stroke-width:1.024;}
</style>
<g>
	<defs>
		<rect id="SVGID_1_" x="27.52" y="38.09" width="533.39" height="292.7"/>
	</defs>
	<clipPath id="SVGID_00000101802038354086134640000010963089489722434185_">
		<use xlink:href="#SVGID_1_"  style="overflow:visible;"/>
	</clipPath>
	<path style="clip-path:url(#SVGID_00000101802038354086134640000010963089489722434185_);fill:#006580;" d="M513.04,166.16
		c0-10.39-15.74-8.84-15.74-14.01c0-1.44,1.09-2.81,4.65-2.81c3.33,0,5.75,0.58,8.1,1.09l1.32-5.63c-2.35-0.86-5.69-1.49-9.42-1.49
		c-6.55,0-12.18,3.04-12.18,9.42c0,11.2,15.8,8.85,15.8,13.9c0,1.72-1.55,3.1-6.43,3.1c-2.24,0-5.8-0.4-8.96-0.98l-0.86,5.92
		c2.3,0.75,6.32,1.26,10.74,1.26C505.29,175.92,513.04,173.97,513.04,166.16 M487.2,143.87c-0.98-0.34-2.24-0.52-4.02-0.52
		c-3.73,0-6.95,2.59-8.44,4.82v-4.19h-7.58v31.36h7.58v-21.89c1.38-1.78,4.19-3.5,7.41-3.5c1.78,0,2.58,0.06,4.02,0.34L487.2,143.87
		z M452.04,156.45h-12.52c0.34-5.29,3.68-7.47,6.89-7.47C449.63,148.98,452.1,151.63,452.04,156.45 M459.86,161.79v-2.76
		c0-9.82-3.68-15.79-12.75-15.79c-8.85,0-15.28,4.19-15.28,16.94c0,12.29,6.26,15.68,16.08,15.68c3.79,0,8.56-0.4,11.03-1.2
		l-1.15-5.86c-2.47,0.52-6.32,0.8-8.5,0.8c-5.63,0-9.88-0.98-9.94-7.81H459.86z M424.48,175.35v-19.93
		c0-6.43-0.63-12.29-10.23-12.29c-4.77,0-8.38,2.64-10.51,4.14v-3.27h-7.58v31.36h7.58v-22.98c1.49-0.8,4.94-2.7,8.1-2.7
		c4.25,0,5.11,2.07,5.11,6.61v19.07H424.48z M390.24,174.95l-0.86-5.97c0,0-3.79,0.63-6.03,0.63c-3.45,0-4.48-0.34-4.48-3.62v-16.26
		h9.71v-5.74h-9.71v-9.22h-7.52v9.22h-4.6v5.74h4.6v16.31c0,10.11,6.15,9.94,12.12,9.94C385.65,175.98,388.58,175.41,390.24,174.95
		 M363.65,143.87c-0.98-0.34-2.24-0.52-4.02-0.52c-3.73,0-6.95,2.59-8.44,4.82v-4.19h-7.58v31.36h7.58v-21.89
		c1.38-1.78,4.19-3.5,7.41-3.5c1.78,0,2.59,0.06,4.02,0.34L363.65,143.87z M325.45,167.59c-1.26,0.34-5.51,2.24-7.98,2.24
		c-2.36,0-3.79-1.03-3.79-3.62c0-2.01,0.8-3.68,5.97-3.9l5.8-0.29V167.59z M335.68,169.84c-1.67-0.06-2.87-0.34-2.87-2.01v-15.51
		c0-8.1-6.09-9.08-12.64-9.08c-4.82,0-8.79,1.2-11.55,2.24l1.49,5.63c2.3-0.57,5.69-1.44,8.73-1.44c4.54,0,6.6,0.57,6.6,4.31v3.33
		c-1.03,0-6.26,0.06-6.26,0.06c-5.75,0.06-12.87,1.49-12.87,9.3c0,6.09,3.68,9.13,9.99,9.13c4.6,0,7.75-2.3,9.71-3.73
		c0.69,3.39,5.69,3.73,9.3,3.56L335.68,169.84z M294.84,148.58c0,4.88-3.1,7.58-9.25,7.64h-4.36v-15.39h5.74
		C292.66,140.83,294.84,143.7,294.84,148.58 M302.88,148.35c0-8.84-5.97-13.61-14.65-13.61h-14.82v40.61h7.81v-13.04h4.02
		C296.96,162.31,302.88,156.05,302.88,148.35"/>
	<path style="clip-path:url(#SVGID_00000101802038354086134640000010963089489722434185_);fill:#006580;" d="M93.66,69.49
		l16.18,28.03c-2.57,1.87-4.85,4.12-6.62,6.69l-44.4-25.63c1.31-2.85,2.14-5.98,2.44-9.1L93.66,69.49z"/>
	<path style="clip-path:url(#SVGID_00000101802038354086134640000010963089489722434185_);fill:#006580;" d="M99.86,109.96
		c-1.31,2.85-2.12,5.89-2.44,9.1l-32.4-0.01L48.84,91.02c2.51-1.84,4.79-4.08,6.6-6.61L99.86,109.96z"/>
	<path style="clip-path:url(#SVGID_00000101802038354086134640000010963089489722434185_);fill:#006580;" d="M124.72,40.53
		l-0.03,51.21c-1.53,0.18-3.08,0.46-4.62,0.88c-1.54,0.42-2.99,0.87-4.4,1.53L99.49,66.13l16.13-28.04
		C118.47,39.4,121.56,40.18,124.72,40.53"/>
	<path style="clip-path:url(#SVGID_00000101802038354086134640000010963089489722434185_);fill:#006580;" d="M140.49,38.11
		l16.18,28.03L140.48,94.2c-2.85-1.31-5.89-2.12-9.04-2.47l0.03-51.21c1.53-0.18,3.02-0.42,4.56-0.85
		C137.57,39.25,139.08,38.77,140.49,38.11"/>
	<path style="clip-path:url(#SVGID_00000101802038354086134640000010963089489722434185_);fill:#006580;" d="M194.88,69.48
		c0.18,1.53,0.46,3.08,0.88,4.62c0.42,1.54,0.91,3.05,1.56,4.46l-44.34,25.6c-1.87-2.57-4.09-4.79-6.64-6.65l16.16-27.98
		L194.88,69.48z"/>
	<path style="clip-path:url(#SVGID_00000101802038354086134640000010963089489722434185_);fill:#006580;" d="M207.32,91.03
		l-16.22,28.01l-32.31,0.01c-0.18-1.53-0.45-3.08-0.88-4.62c-0.42-1.54-0.91-3.05-1.57-4.46l44.34-25.6
		C202.56,86.95,204.8,89.23,207.32,91.03"/>
	<path style="clip-path:url(#SVGID_00000101802038354086134640000010963089489722434185_);fill:#006580;" d="M109.79,147.34
		l-16.17,27.98l-32.37,0.04c-0.12-1.56-0.4-3.11-0.82-4.65c-0.42-1.54-0.91-3.05-1.57-4.46l44.28-25.57
		C105.02,143.26,107.24,145.48,109.79,147.34"/>
	<path style="clip-path:url(#SVGID_00000101802038354086134640000010963089489722434185_);fill:#006580;" d="M97.4,125.75
		c0.12,1.56,0.4,3.11,0.82,4.65c0.42,1.54,0.91,3.05,1.56,4.46L55.5,160.43c-1.87-2.57-4.08-4.79-6.64-6.65l16.16-27.98L97.4,125.75
		z"/>
	<path style="clip-path:url(#SVGID_00000101802038354086134640000010963089489722434185_);fill:#006580;" d="M140.52,150.65
		l16.18,28.03l-16.19,28.07c-2.85-1.3-5.88-2.12-9.04-2.47l-0.04-30.74l0.01-20.44c1.53-0.18,3.08-0.46,4.62-0.88
		C137.6,151.79,139.11,151.31,140.52,150.65"/>
	<path style="clip-path:url(#SVGID_00000101802038354086134640000010963089489722434185_);fill:#006580;" d="M124.69,153.11
		l0.05,20.4l-0.02,30.78c-1.53,0.18-3.08,0.46-4.62,0.88c-1.54,0.42-3.05,0.91-4.46,1.56l-16.18-28.03l16.19-28.07
		C118.5,151.95,121.54,152.76,124.69,153.11"/>
	<path style="clip-path:url(#SVGID_00000101802038354086134640000010963089489722434185_);fill:#006580;" d="M191.11,125.8
		l16.18,28.03c-2.57,1.87-4.79,4.08-6.66,6.64l-44.31-25.61c1.3-2.85,2.08-5.94,2.44-9.1L191.11,125.8z"/>
	<path style="clip-path:url(#SVGID_00000101802038354086134640000010963089489722434185_);fill:#006580;" d="M197.31,166.26
		c-1.25,2.82-2.08,5.95-2.38,9.07l-32.4-0.02l-16.18-28.02c2.51-1.84,4.79-4.08,6.6-6.61L197.31,166.26z"/>
	
		<line style="clip-path:url(#SVGID_00000101802038354086134640000010963089489722434185_);fill:none;stroke:#006580;stroke-width:1.024;" x1="237.8" y1="38.1" x2="237.8" y2="206.75"/>
	<path style="clip-path:url(#SVGID_00000101802038354086134640000010963089489722434185_);fill:#006580;" d="M553.39,103.19
		c-1.44,0.69-3.33,1.55-5.57,1.55c-4.94,0-8.16-2.58-8.16-10.05c0-5.86,2.53-10.17,8.85-10.17c2.18,0,3.62,0.23,4.88,0.34V103.19z
		 M560.91,111.11V79.47c-4.88-0.75-8.79-1.21-12.35-1.21c-8.96,0-16.37,5.69-16.37,16.37c0,14.19,8.04,16.02,15.22,16.02
		c2.3,0,4.48-0.92,6.03-2.07c0,0.17,0.11,1.61,0,1.72c0,5.51-3.39,6.32-8.39,6.32c-2.35,0-6.55-0.57-9.42-1.21l-1.15,5.97
		c2.7,0.75,7.07,1.67,11.83,1.67C552.98,123.06,560.91,119.9,560.91,111.11 M524.84,110.14V90.21c0-6.43-0.63-12.29-10.23-12.29
		c-4.77,0-8.38,2.64-10.51,4.14v-3.27h-7.58v31.36h7.58V87.16c1.49-0.8,4.94-2.7,8.1-2.7c4.25,0,5.11,2.07,5.11,6.61v19.07H524.84z
		 M486.47,78.78h-7.52v31.36h7.52V78.78z M488.14,69.01l-5.51-5.46l-5.51,5.46l5.51,5.51L488.14,69.01z M461.25,103.19
		c-1.44,0.69-3.33,1.55-5.57,1.55c-4.94,0-8.16-2.58-8.16-10.05c0-5.86,2.53-10.17,8.84-10.17c2.18,0,3.62,0.23,4.88,0.34V103.19z
		 M468.78,111.11V79.47c-4.88-0.75-8.79-1.21-12.35-1.21c-8.96,0-16.37,5.69-16.37,16.37c0,14.19,8.04,16.02,15.22,16.02
		c2.3,0,4.48-0.92,6.03-2.07c0,0.17,0.12,1.61,0,1.72c0,5.51-3.39,6.32-8.39,6.32c-2.35,0-6.55-0.57-9.42-1.21l-1.15,5.97
		c2.7,0.75,7.07,1.67,11.83,1.67C460.85,123.06,468.78,119.9,468.78,111.11 M424.03,102.38c-1.26,0.34-5.51,2.24-7.98,2.24
		c-2.36,0-3.79-1.03-3.79-3.62c0-2.01,0.8-3.68,5.97-3.9l5.8-0.29V102.38z M434.26,104.62c-1.67-0.06-2.87-0.34-2.87-2.01V87.1
		c0-8.1-6.09-9.08-12.64-9.08c-4.82,0-8.79,1.2-11.55,2.24l1.49,5.63c2.3-0.57,5.69-1.44,8.73-1.44c4.54,0,6.6,0.58,6.6,4.31v3.33
		c-1.03,0-6.26,0.06-6.26,0.06c-5.75,0.06-12.87,1.49-12.87,9.3c0,6.09,3.68,9.13,9.99,9.13c4.6,0,7.75-2.3,9.71-3.73
		c0.69,3.39,5.69,3.73,9.3,3.56L434.26,104.62z M401.52,105.03c-2.99-0.8-5.34-2.59-7.76-5.46l-5.28-6.26l12.23-14.53h-8.33
		l-10.97,13.55V69.48h-7.58v40.66h7.58V95.2l7.35,9.59c4.08,5.17,7.93,5.8,11.78,5.97L401.52,105.03z M367.17,79.98
		c-2.07-1.15-4.88-2.01-9.36-2.01c-9.94,0-16.26,6.26-16.26,16.2c0,11.72,4.77,16.48,17.4,16.48c3.39,0,5.46-0.52,7.93-1.03
		l-1.03-5.86c-2.07,0.29-3.79,0.75-6.37,0.75c-8.27,0-10.17-3.16-10.17-10.22c0-7.35,3.68-10.11,8.5-10.11
		c3.16,0,5.11,0.57,7.18,1.38L367.17,79.98z M325.53,102.38c-1.26,0.34-5.51,2.24-7.98,2.24c-2.36,0-3.79-1.03-3.79-3.62
		c0-2.01,0.8-3.68,5.97-3.9l5.8-0.29V102.38z M335.75,104.62c-1.67-0.06-2.87-0.34-2.87-2.01V87.1c0-8.1-6.09-9.08-12.64-9.08
		c-4.82,0-8.79,1.2-11.55,2.24l1.49,5.63c2.3-0.57,5.69-1.44,8.73-1.44c4.54,0,6.6,0.58,6.6,4.31v3.33c-1.03,0-6.26,0.06-6.26,0.06
		c-5.75,0.06-12.87,1.49-12.87,9.3c0,6.09,3.68,9.13,9.99,9.13c4.6,0,7.75-2.3,9.71-3.73c0.69,3.39,5.69,3.73,9.3,3.56
		L335.75,104.62z M294.92,83.37c0,4.88-3.1,7.58-9.25,7.64h-4.36V75.62h5.74C292.73,75.62,294.92,78.49,294.92,83.37 M302.96,83.14
		c0-8.84-5.97-13.61-14.65-13.61h-14.82v40.61h7.81V97.1h4.02C297.04,97.1,302.96,90.84,302.96,83.14"/>
</g>
</svg>
