<?xml version="1.0" encoding="utf-8"?>
<!-- Generator: Adobe Illustrator 26.3.1, SVG Export Plug-In . SVG Version: 6.00 Build 0)  -->
<svg version="1.1" id="Layer_1" xmlns="http://www.w3.org/2000/svg" xmlns:xlink="http://www.w3.org/1999/xlink" x="0px" y="0px"
	 viewBox="0 0 480 176.2" style="enable-background:new 0 0 480 176.2;" xml:space="preserve">
<style type="text/css">
	.st0{fill:#00269A;}
</style>
<g>
	<g>
		<path class="st0" d="M148.1,88.4h9.5c3,0,5.7-1.7,5.7-5c0-2.9-1.7-3.9-4.4-3.9H150L148.1,88.4z M144.7,104.5h10.5
			c3.8,0,6.6-2.1,6.6-6.1c0-4-3.5-4.4-6.6-4.4h-8.2L144.7,104.5z M143.3,72.9h16c7.6,0,12.4,1.6,12.4,8.9c0,4.4-2.7,8.3-7.2,8.9v0.1
			c3.6,1,5.7,4.1,5.7,7.8c0,8.3-6.9,12.5-14.5,12.5h-20.4L143.3,72.9z"/>
		<path class="st0" d="M186.6,90.2h7.8c4.4-0.1,8.6-1.8,8.6-6.1c0-4.1-2.9-4.7-6.2-4.7h-8L186.6,90.2z M181.8,72.9h18.2
			c6.9-0.1,11.4,2.6,11.4,10c0,5.2-3.6,9.5-8.8,10.3v0.1c3.2,1,3.9,3.8,3.9,6.7c0,1.7-0.3,4.3-0.3,6.6c0,1.7,0.1,3.3,0.5,4.4h-8.2
			c-0.2-0.9-0.4-1.7-0.4-2.6c0-2.6,0.4-5.2,0.4-7.8c0-3.7-2.2-4.6-5.5-4.6h-7.9L182,111h-8.3L181.8,72.9z"/>
	</g>
	<path class="st0" d="M225.4,96.3h10.2l-1.8-15.1h-0.1L225.4,96.3z M231,72.9h8.6l6.3,38.1h-8.3l-1.3-8.5H222l-4.8,8.5h-8.9
		L231,72.9z"/>
	<g>
		<path class="st0" d="M261.7,88.4h9.5c3,0,5.7-1.7,5.7-5c0-2.9-1.7-3.9-4.4-3.9h-8.9L261.7,88.4z M258.3,104.5h10.5
			c3.8,0,6.6-2.1,6.6-6.1c0-4-3.5-4.4-6.6-4.4h-8.2L258.3,104.5z M256.9,72.9h16c7.6,0,12.4,1.6,12.4,8.9c0,4.4-2.7,8.3-7.2,8.9v0.1
			c3.6,1,5.7,4.1,5.7,7.8c0,8.3-6.9,12.5-14.5,12.5H249L256.9,72.9z"/>
		<path class="st0" d="M306.6,104.9c8.2,0,12.3-8.8,12.3-15.9c0-5.3-2.4-9.9-8.5-9.9c-8.6,0-12.5,8.7-12.5,16
			C298,100.3,300.5,104.9,306.6,104.9 M310.4,72c10.3,0,16.9,5.7,16.9,16.3c0,12.6-7.5,23.6-20.8,23.6c-10.7,0-16.9-6.1-16.9-16.8
			C289.6,82.7,297.5,72,310.4,72"/>
		<path class="st0" d="M341.5,90.9h8.6c4.2,0,6.9-2.1,6.9-6.6c0-3.8-3-4.7-5.9-4.7h-7.2L341.5,90.9z M336.8,72.9h15.3
			c7.7,0.1,13.2,2.7,13.2,11.1s-6.9,13.4-14.8,13.4h-10.3l-2.9,13.7h-8.3L336.8,72.9z"/>
	</g>
	<path class="st0" d="M373.7,96.3h10.2L382,81.2h-0.1L373.7,96.3z M379.2,72.9h8.6l6.3,38.1h-8.3l-1.3-8.5h-14.2l-4.8,8.5h-8.9
		L379.2,72.9z"/>
	<polygon class="st0" points="427.6,72.9 410.3,88.9 410.1,88.9 413.5,72.9 405.1,72.9 397.1,111 405.6,111 408.1,99 413.9,93.9 
		422.6,111 432.1,111 420.3,88.6 438.6,72.9 	"/>
	<rect x="135.3" y="59.3" class="st0" width="303.3" height="4.7"/>
	<rect x="135.3" y="120.3" class="st0" width="303.3" height="4.7"/>
	<g>
		<path class="st0" d="M95.5,72.3c0.1,0,0.1,0,0.1,0v-0.9c-0.1,0-0.1,0-0.1,0V72.3z M48.6,143.6c-0.1-0.1-0.1-0.1-0.1-0.1
			c-0.2,0.1-0.4,0.4-0.6,0.5c0.1,0.1,0.1,0.1,0.1,0.1C48.2,144,48.4,143.8,48.6,143.6 M104.9,74c0-0.1,0-0.2,0-0.4
			c-0.3,0-0.6,0-0.8,0c0,0.1,0,0.1,0,0.3C104.3,73.9,104.6,74,104.9,74 M53.3,88.7v1.2C53.8,89.4,53.6,89,53.3,88.7 M51.2,138.9
			c-0.7,0.4-0.9,0.9-0.8,1.8c0.5-0.4,0.9-0.7,1.3-1C51.5,139.4,51.3,139.2,51.2,138.9 M55.2,117.7c-0.4,1.5-0.3,1.6,1,1.6
			C55.9,118.6,55.5,118.1,55.2,117.7 M109.1,68.6c-1,0.8-0.1,1.5-0.3,2.2c0.3-0.1,0.5-0.1,0.7-0.1c-0.1-0.4-0.1-0.7-0.1-1
			C109.3,69.3,109.2,69,109.1,68.6 M56.4,113.7c0.1,0.4,0.4,0.8,0.6,1.4c0.4-1.5,0.4-1.5,0.3-2.4C57,113,56.7,113.3,56.4,113.7
			 M53.8,109.3c0.7-1.6,0.7-1.6-0.1-2.9c-0.7,0.5,0.2,0.9,0.1,1.3C53.8,108.2,53.3,108.7,53.8,109.3 M105.4,83.5
			c0.7-1.7,0.6-2.9-0.2-4c-0.1,0.7-0.5,1.3-0.4,1.8C104.7,82,105.1,82.7,105.4,83.5 M78.1,65.8c1-0.9,1,0.4,1.5,0.8
			c0.6-0.6,0.4-1.3,0.7-2c-1-0.1-1.8-0.4-2.7-0.1C77.7,64.9,77.9,65.2,78.1,65.8 M99.5,62c0.8,0.5,1.5,1,2.1,1.3
			c0.4-0.3,0.6-0.4,0.9-0.7c0.3-0.2,0.5-0.5,0.8-0.8C101.6,61.3,100.9,61.3,99.5,62 M71.9,136.5c-0.5-1.9-2-3.7-3.2-4.1
			C68.6,133.6,69.6,134.9,71.9,136.5 M94.9,87.4c0.6-0.1,1-0.2,1.4-0.3c0.9-1.2,0.1-2.2-0.1-3.5c-0.4,0.3-0.6,0.5-0.8,0.7
			c0.8,0.6-0.1,1-0.2,1.5C95,86.3,95,86.8,94.9,87.4 M60,137.5c-2.8-0.2-5.1,0.9-5.8,2.7H57c0.5-1.6,0.5-1.6,2-2.1
			C59.5,138,59.7,137.7,60,137.5 M96.5,75.1c-0.1,0-0.2,0-0.3,0c0.4,3.6,1.7,7,2.4,10.6c0.4-0.1,0.7-0.1,1.1-0.2
			c-0.4-0.7-0.8-1.2-1.2-1.8c0.3-0.2,0.7-0.4,1-0.7c0.4-0.4,0.7-1,1-1.4c0.4-0.7,0.4-0.9-0.1-1.4c-0.6-0.7-1.2-1.4-1.8-2.1
			c0.8-1.2,1.8-2.2,1.8-3.8c-0.1-0.1-0.2-0.1-0.3-0.3c-0.7-0.7-1-0.6-1.3,0.4c-0.3,1-0.5,2.1-0.4,3.1c0.1,0.5,0,1.1,0,1.7h-0.7
			C97.3,77.8,96.9,76.5,96.5,75.1 M117.8,42.1c-0.7-0.8-1-1-2.2-1.3c-1.6-0.4-2.7-1.3-3.3-2.9c-0.7-2-1.9-3.7-3.4-5.2
			c-1.2-1.2-2.4-2.4-3.6-3.5c-1.2,0.4-1.2,0.4-0.9,1.4c0.6,0.1,1.2,0.1,1.8,0.1c0,0.1,0.1,0.2,0.1,0.3c-0.4,0.2-0.9,0.5-1.3,0.7
			c0.4,0.4,0.8,1,1.2,1.3h2.1c-0.6,0.7-1,1-1.3,1.3c0.6,0.7,1.2,1.3,1.7,1.8c0.7,0.7,1.3,1.5,2.4,1.3c0.1,0,0.3,0.1,0.7,0.2
			c-0.8,0.5-1.5,1-2.1,1.3C112.2,41.2,113.9,41.8,117.8,42.1 M105.4,65.8c0.1-0.6,0.2-1.1,0.4-1.6c0.1-0.2,0.2-0.6,0.4-0.6
			c1.5-0.4,1.6-1.8,2.5-2.7c-0.8-1.3-0.8-1.3,0.2-2.1c0.8-0.7,1-1.7,0.4-2.7c-0.7,1-1.5,1.8-2.1,2.7c-1.1,1.4-1.9,3.1-3.5,4.2
			c-0.4,0.3-0.8,0.6-1.2,1c-0.5,0.6-1,1-1.8,1c-0.4,0-0.9,0.1-0.9,0.7c0.1,0.1,0.1,0.1,0.1,0.2c1,0.4,1,0.7,0.4,1.4
			c-0.2,0.2-0.4,0.4-0.8,0.7c1.1-0.3,1.5-0.2,1.8,0.1c1.2,0.9,1.7,0.7,2.1-0.7c0.1-0.4,0.4-1,0.5-1.4
			C104.6,65.8,105,65.8,105.4,65.8 M80.6,146.5c0-0.1,0-0.1,0-0.1H47c0.6,0.4,1,0.6,1.5,0.9c0.1-0.7,0.4-0.9,1-0.8
			c1.5,0.1,3,0.2,4.4,0.4c0.1,0,0.1,0,0.2,0.1c1.5,0.9,3.1,0.9,4.7,0.9c8.2,0,16.4,0,24.6,0c0.3,0,0.5-0.1,0.8-0.1
			c0-0.1,0-0.2,0-0.3c-0.6,0-1.1,0.1-1.7,0.1c-1.6,0.1-3,0.1-4.6,0.1c-0.1,0-0.4-0.3-0.5-0.4c0-0.1,0.1-0.1,0.1-0.2
			C78.6,146.7,79.5,146.6,80.6,146.5 M53,91.2c-0.1,0.2-0.1,0.4-0.1,0.6c-0.2,2-0.5,4-0.7,6c-0.1,1.8-0.2,3.6-0.3,5.5
			c0,0.5,0.1,1.1,0.2,1.6c0.1,0.4,0.4,0.6,0.9,0.5c0.4-0.1,0.6-0.3,0.5-0.7c0-0.2,0-0.4,0-0.7c-0.1-2.5,0.5-4.8,1.6-7
			c0.4-0.8,0.8-1.6,1.2-2.4c0.6-1.2,0.4-2.4,0.1-3.6c-0.1-0.4-0.4-0.9-1-0.9C55.1,91.5,53.9,91,53,91.2 M110.5,70.6
			c0.1,0.8,0.1,1.3,0.2,1.8c0.2,0.7,0.5,1.3,0.7,2.1c1,3.5,2.1,7,3.2,10.6c0.1,0.4,0.2,0.7-0.4,1c-0.7-1.2-0.7-2.7-1.2-3.9
			c-0.4-1.3-0.7-2.7-1.1-4c-0.1,0-0.1,0.1-0.2,0.1c0.4,2.5,0.9,5,1.3,7.5c-1,0.4-1.9,0.7-2.9,1.1c0.9,0.7,1.7,0.8,2.6,0.4
			c0.5-0.1,1-0.3,1.4,0.4c-1.3,0.3-2.6,0.6-3.8,0.9c-0.7,0.1-1.3,0.4-1.8,0.8c-0.5,0.4-0.9,1.2-1.8,1c-0.4-0.1-0.8,0.7-1.2,1.1
			c-0.1,0.1-0.1,0.5-0.1,1c3.8-1.6,7.5-3,11.1-4.5C116.3,87,111.4,72.3,110.5,70.6 M112.2,85.2c-0.9-4.6-1.7-9.1-2.6-13.7
			c-0.6,0.8-0.8,1.4-0.4,2.2c0.5,1.2,0.7,2.5,0,3.8c-0.1-1-0.3-1.8-0.5-2.7c-0.2-1-1.1-1.4-1.6-2.2c-0.3,0.1-0.6,0.3-0.9,0.5
			c0.3,1.4,0,2.9,1.6,3.8c-1.1,0.2-1.1,0.9-1,1.6c0.1,1.2,0.1,2.4,0.1,3.4c0.7,0.2,1.2,0.5,1.7,0.6c0.5,0.1,1.1-0.5,1.7,0.1
			c-0.7,0.2-1.3,0.6-1.8,0.6c-1,0-1.6,0.9-2.4,1.1c0,0,0,0.2,0,0.5c1.5-0.1,3-0.3,4.5-0.5c0.1,0.3,0.1,0.5,0.3,0.8
			c-1.8,0.3-3.6,0.7-5.4,1c0,0.1,0.1,0.2,0.1,0.4C107.7,86.7,109.9,85.7,112.2,85.2 M86.2,87.8c3.2,1.9,6.3,3.8,9.5,5.6
			c0.4-0.5,0.7-0.9,1-1.3c0.1,0.1,0.1,0.1,0.3,0.1c-0.1,0.4-0.4,1-0.5,1.5c0.2,0,0.6,0.1,0.7,0c0.8-1.3,1.6-2.4,2.4-3.7
			c-1.3-0.8-1.3,1-2.1,1c-0.5-0.7,0.4-1,0.4-1.6c-0.1-0.1-0.4-0.4-0.5-0.5c-1,1-1.9,2.1-3,3.2c-0.7-1.8-1.3-3.4-2-5
			c-0.4,0.3-0.8,0.5-1.2,0.7c-0.4-1.1-0.3-2.1,0.4-2.4c1-0.6,1.2-1.4,1.3-2.4c0.7,0.1,1-0.4,1.5-0.7c0.7-0.4,0.4-1,0.4-1.6
			c0-0.7-0.2-1.5-0.4-2.3c-0.1-0.7-0.1-1.6-0.3-2.6C91.3,80,88.8,83.8,86.2,87.8 M64,72.2c0.5-0.1,0.8-0.2,1.1-0.3
			c-0.1-0.4-0.1-0.7-0.2-1c-0.4-1.3-0.4-1.3,0.8-2c0.5-0.3,0.4-0.7,0.4-1.2c-0.8,0.3-1.6,0.6-2.4,0.9c-0.1-0.8-0.4-1.6,0.1-2.1
			c0.7-0.7,1.6-1.2,2.7-1.2c1-1.6-0.2-2.7-0.3-4.1h-1.1c-0.3-3-0.8-6-0.4-9.1c-0.4,0.8-0.8,1.7-1.3,2.5c-2.1,3.5-4,7.1-4.9,11.1
			c-0.1,0.2,0,0.5,0,0.9c1-0.3,1.8-0.7,3.2-0.3c-1.4,0.5-0.9,1.4-0.9,2.4c-0.6-0.1-1-0.1-1.5-0.2c-0.2,0.3-0.3,0.7-0.6,0.9
			c-0.5,0.3-0.6,0.7-0.7,1.3c-0.3,1.6-0.7,3.2-1,4.7c0,0.1-0.1,0.3-0.2,0.4c-0.8,1.1-1.7,2.2-2.5,3.4c-0.4,0.7-0.8,1.4-0.5,2.3
			c0.4-0.1,0.7-0.1,1.2-0.1c0.1,0.7,0.2,1.3,0.3,1.9c-2.2,2-2.4,2.7-1.3,3.8c0.4-1,1-1.8,0.8-3.1c1.5,1.1,1.6,1.6,1.1,3.4
			c0.4,0.5,0.7,1,1,1.4c0.1,0.1,0.1,0.1,0.4,0.2c-0.1-0.4-0.3-0.7-0.4-1.1c1-0.4,1.3-2,2.7-1.6c0.1,0.1,0.1,0.1,0.1,0.2
			c0.3,2.1,0.7,2.2,2.3,1c1.2-0.9,2.4-1.7,3.5-2.5c0.6-0.4,1.3-0.8,2-1c-0.2,0.4-0.4,0.8-0.7,1c-1.3,1-2.7,2.1-4.1,3
			c-1.6,0.9-2.7,2.1-3.6,3.5c-1.1,2-2.1,4-3.2,6c-0.8,1.6-1.2,3.2-1.4,4.9c-0.1,0.8-0.4,1.8,0.1,2.5c0.6,0.4,1.1,0.5,1.6,0.9
			c0.5,0.4,0.2,1-0.1,1.7h3c0.1,0.1,0.1,0.2,0.1,0.3c-0.2,1.6,0.2,3,0.9,4.4c0.1,0.1,0.1,0.3,0.1,0.5c0.3,1,0.6,1.9,1,2.9
			c0.9,2.4,1.8,4.9,1.8,7.5c0,0.4,0.1,0.7,0.1,1.1c0.1,1,0.2,1.9,0.2,3s-0.1,2.1-0.1,3.2c0,0.7,0,1.5-0.1,2.1
			c-0.1,0.6-0.4,1.2-0.7,1.8c0.1,0.1,0.2,0.1,0.3,0.2c0.1,0.2,0.4,0.4,0.5,0.7c-0.2,0.1-0.4,0.4-0.7,0.4c-0.3,0.1-0.6,0.2-1.1,0.4
			c1.4,0.3,2.6-0.3,3.8,0.3c-0.4,1-1.4,0.7-2.1,0.9c-0.2,0.4-0.4,0.9-0.7,1.5c0.4,0.2,0.9,0.7,1.3,0.7c1,0.1,1.6,0.8,2.4,1.6
			c-0.5,0.1-1,0.3-1.3,0.4c-0.5,0.1-1.1,0.2-1.6,0.3c-0.5,0.1-1.1,0.4-1.6,0.3c-0.5-0.1-0.9-0.5-1.4-0.7c-1,1.3-0.7,2.3,0.8,2.7
			c0.4,0.1,0.9,0.3,1.3,0.4c0.4,0.1,0.4,0.4,0.3,0.8c-1.3,0.2-2.4-0.1-3.6-0.4c-1-0.3-1.8-0.7-2.9-0.3c-0.1,0.1-0.2,0.1-0.4,0
			c-0.7-0.2-1.3-0.4-1.9-0.7c-1.1-0.4-1.8-0.4-3.5,0.1c2.7,0.9,5.2,1,7.5,1.3c4.3,0.5,8.7,0.5,13.1,0.5c-0.6-1.3-1.6-1.3-2.6-1.4
			c0.1-1,0.1-1,1.1-1c0.9,0,1.8,0.1,2.4-1c-0.5-0.3-1-0.7-1.6-1c0.2-0.4,0.4-0.8,0.7-1.3c-0.5-0.2-1-0.5-1.5-0.7
			c-0.9-0.5-1.8-1-2.7-1.6c-0.2-0.1-0.6-0.1-0.8-0.3c-0.4-0.2-0.4-0.6-0.1-0.8c0.5-0.3,1-0.8,1.8-0.4c0.7,0.3,1.5,0.4,2.2,0.7
			c0.3,0.1,0.5,0.4,0.9,0.7c-0.6,0.1-0.9,0.2-1.5,0.4c1.8,0.9,3.4,1.7,5.2,2.1c0.9,0.2,1.6,0,2.5-0.3c-0.4-0.9-0.7-1.7-1-2.7
			c-0.8,0.1-1.8,0.1-2.4,0.4c-0.7,0.4-1.3,0.4-1.7-0.1c-1-1-2.1-1.8-3-3c-0.6-0.7-1-1.5-2-1.6c-0.4-1.5,0.9-1.5,1.7-2
			c-0.1-0.5-0.4-1-0.5-1.5c-0.2-0.7-0.5-1.6-0.7-2.4c-0.1-0.4-0.2-0.8-0.4-1.3c-0.4-0.7-0.6-1.6-0.8-2.5c0-0.1,0.1-0.2,0.4-0.6
			c0.2,0.7,0.4,1.3,0.6,1.9c0.1,0,0.1,0,0.2,0c0-1,0.1-1.9,0-2.9c-0.1-0.8-0.4-1.6-0.1-2.4c0.1-0.2-0.1-0.4-0.2-0.7
			c-0.1-0.3-0.2-0.5-0.3-0.8c-0.1-1.8,0-3.7-1-5.3c0-0.1,0-0.1,0-0.3c0.5-0.2,1-0.1,1.5,0.6c-0.2-1.9-1.2-3.2-2.2-4.5
			c-0.5-0.7-1.1-1.4-1.7-2.1c-0.6-0.6-0.6-1.3-0.3-2c0.2-0.6,0.6-1.2,0.4-1.8c-0.7-0.2-1.2,0.8-1.9,0c0.4-1.3,1.3-2.5,1.3-4
			c-0.4,0.1-0.8,0.1-1.3,0.1c0.1-0.4,0.1-0.8,0.4-1c1-1,1.8-2.1,3.2-2.7c0.4-0.1,0.7-0.4,1.1-0.6c0.3-0.1,0.7-0.2,0.9-0.1
			c0.1,0.1,0.3,0.5,0.3,0.7c0,0.3-0.1,0.6-0.1,0.9c-0.1,0.7-0.4,1.5-0.5,2.2c0.6-0.5,1-1.1,2.1-1c0-0.7,0.2-1.4,0.1-2
			c-0.3-1-0.1-1.6,0.4-2.4c1-1.7,1.9-3.4,3-5.1c0.3-0.5,0.3-1,0.1-1.4c-0.4-1.1-0.7-2.1-1.1-3.2c0-0.1-0.1-0.1-0.1-0.1
			c-0.2,0.1-0.4,0.2-0.8,0.4c-0.3-2.1,0.6-4.2-0.7-6.1c-0.7,1.1-1.2,0.7-1.9-0.1c-0.7,0.1-1.5,0.2-2.2,0.2c-0.2,0-0.7-0.3-0.7-0.6
			C64.4,75.2,64.3,73.7,64,72.2 M84.3,45.1c0.3,0.7,0.8,0.6,1.3,0.4c0.3-0.1,0.6-0.3,1-0.4c0.2,0.3,0.4,0.5,0.6,0.8
			c0.6-0.2,1.1-0.5,1.8-0.8c0.1-0.5,0.1-1.2,0.2-1.8c0.1-0.4,0.1-1,0.4-1.3c0.6-0.4,0.7-1,1-1.6c0.3-0.7,0.1-1-0.6-1.3
			c-0.6-0.2-1.3-0.4-1.8-0.5c-0.1-0.1-0.2-0.1-0.3-0.1c-1-0.9-2.1-1.4-3.5-1.3c-0.8,0.1-1.6-0.1-2.4-0.1c-0.7,0-1.4,0-2.1,0
			c-0.2,0.6-0.4,1.1-0.6,1.7c0.3,0,0.7,0,1-0.1c0.1,0.4,0.1,0.7,0.1,0.9c1.2,0.4,2.1-0.3,3-1c0.3,1,0.3,1-1.8,3.3
			c-0.7-0.1-1.4-0.1-2.1-0.4c-0.8-0.4-1.3-0.1-1.8,0.5c-0.1,0.2-0.3,0.4-0.5,0.7c0.4,0.2,0.7,0.4,1.1,0.7c-0.4,0.4-0.7,0.7-1.2,1
			c0.2,0.3,0.4,0.5,0.7,0.8c-0.2,0.5-1.2,0.5-1,1.4c0.1,0.4-1,0.7-0.6,1.6c0.9-0.7,1.8-0.4,2.7,0c0.7-0.9-0.1-1.6-0.1-2.4
			c0.1-0.8,0-1.6,0.4-2.5c0.2,0.6,0.4,1,0.6,1.6c0.4-1,0-1.8,0.9-2.3c0.6,0.8-0.1,1.5-0.1,2.2c0.1,0.7,0,1.6,0,2.3
			c1.3,0.5,1.3,0.8,0.1,2.3c-0.4-0.1-0.8-0.2-1.2-0.1c-0.8,0.1-1.5,0.5-1.8,1.5c-0.2,0.7-0.4,0.7-1.1,0.4c-1.1-0.3-1.8-1.1-2.7-1.7
			c-1.3-0.9-2.5-1.8-3.8-2.6c-0.9-0.5-1.8-0.4-2.7,0.1c-1,0.7-1.8,1.5-2.3,2.5c-0.3,0.7-0.7,1.3-0.1,2.1c0.1,0.1,0.1,0.2,0,0.4
			c-0.1,1.3,0.4,2,1.5,2.7c0.1-0.3,0.4-0.7,0.6-1c0.1,0.4,0.2,0.7,0.4,1c0.4,1,1,1.8,2,2.4c0.3,0.1,0.5,0.4,0.8,0.6
			c0.7,0.4,1.5,0.5,2.2,0.1c0.6-0.3,1.2-0.2,1.8,0c3,1,6,2.1,8.9,3.1c0.1,0.1,0.3,0.1,0.4,0.1c1.1-0.4,1.7,0.5,2.4,1
			c0.7,0.4,1.3,0.8,2.1,0.7c-0.1-0.4-0.1-0.7-0.1-1.1c0.6,0.1,1,0.3,1.6,0.4c1.3,0.4,1.6,0.2,2.1-1c0-0.1,0.1-0.1,0.3-0.3
			c0.5,0.2,1,0.5,1.7,0.8c-1.3,1.5-0.5,2.7,0.2,3.8c0.7,0,0.9-0.6,1.3-1c0.8-0.9,1.6-1.8,2.4-2.7c0.8-0.7,1.8-1.1,3-1
			c0.4,0,0.9-0.1,1.3,0c1.5,0.1,2.5-0.4,3.4-1.6c1-1.6,2.1-3,3.1-4.5c0.8-1.2,1-2.5,0.6-3.9c-0.1-0.3-0.1-0.7-0.1-1
			c0-1.4-0.4-2.7-1.4-3.8c-0.8-1-1.2-2.1-1.5-3.2c-0.4-1.8-1-3.5-1.6-5.4c-0.4-1.5-1.6-2.4-2.8-3.2c-0.4-0.2-0.7-0.4-1-0.7
			c0.5-1.4,1.7-2.4,1.5-4c0.7-0.4,1.5-0.8,2.2-1.1c0.6-0.2,1.1,0,1.6,0.4c1.4,1.3,2.9,2.4,4.3,3.7c1.5,1.3,2.3,3,2.7,4.9
			c0.4,1.7,1.3,2.4,2.9,2.8c0.7,0.1,1.3,0.4,1.9,0.7c0.6,0.3,1,0.8,0.9,1.7H115c0,0.1-0.1,0.1-0.1,0.2c0.2,0.1,0.4,0.3,0.7,0.4
			c1,0.5,2,1,3,1.6c0.7,0.4,1.1,0.9,1.1,1.9c-1.9,0.3-3.7-0.4-5.7-0.4c0.7,0.7,1.3,1.1,2,1.3c0.4,0.2,1,0.4,1.4,0.7
			c0.7,0.4,1,0.9,0.8,1.8c-0.7,0.1-1.5,0.1-2.2,0.2c-0.1,1.2-0.7,2.1-1.3,3.1c-1.2,1.7-1.5,3.8-1.9,5.8c-0.4,2.2-1.1,4.4-2.1,6.4
			c-0.4,0.9-0.4,1.7-0.1,2.6c1,2.7,2.1,5.4,3,8.1c0.4,1.1,0.6,2.3,1,3.5c0.8,2.4,1.6,4.7,2.4,7.1c0.1,0.5,0.4,1,0.7,1.7
			c-0.4,0.2-0.7,0.4-1.2,0.7c-1.3,0.5-2.7,1-4.1,1.6c-2.4,1-4.9,1.8-7.2,3.1c-0.5,0.3-1.2,0.3-1.8,0.5c-0.7-1.7-1.4-3.2-2-4.7
			c-1,0.4-1,0.4-0.7,1.4c0.2,1.1,0.3,2.3,0.2,3.4c-0.1,1.6-0.3,3.3-0.7,4.9c-0.6,2.3-1.3,4.6-2.1,6.8c-0.4,1.1-1,2.1-1.5,3.1
			c-0.1,0.3-0.4,0.5-0.9,0.7c0-0.2-0.1-0.5,0-0.7c1.6-2.1,2-4.4,2.7-6.8c0.7-2.4,1.3-4.9,1.6-7.3c0.1-0.8,0.1-1.7,0.1-2.6
			c0-0.2-0.1-0.5-0.3-1C99,92.3,98.4,93.1,98,94c-0.2,0.6-0.6,1-1,1.1c-4-2.4-7.8-4.7-11.8-7.2c0.2-0.4,0.4-0.9,0.7-1.3
			c2.8-4.2,5.5-8.4,8.3-12.6c0.6-0.8,1-1.6,0.4-2.6c-0.1-0.3-0.5-0.6-0.8-0.7c-2.4-0.7-4.9-1.3-7.3-2c-0.9-0.3-1.6-0.1-2.1,0.7
			c-1,1.4-2.4,2.4-3.8,3.3c-1.1,0.7-2.2,1.6-3.3,2.4c-1.8,1.4-2.7,3.2-2.7,5.5c-0.1,2.4,0.3,4.9,0.5,7.2c0.1,1.2,0.3,2.4,0.1,3.5
			c-0.1,2-1.2,3.5-3,4.6c-1.1,0.7-1.9,1.5-2.7,2.4c-0.9,1-1.8,2-2.8,3c-0.5,0.5-0.8,1.1-0.8,1.8c-0.1,1.2-0.1,2.3-0.2,3.5
			c-0.1,0.8,0.1,1.5,0.6,2.1c1.2,1.5,1.7,3.2,1.6,5.2c-0.1,1.3,0,2.7,0.1,4.1c0,0.4,0.1,1,0.4,1.3c1.1,1.1,1.8,2.4,2.3,3.8
			c0.4,1,0.7,1.9,1.1,2.9c0.4,1,1,1.6,2,1.8c0.6,0.1,1.2,0.3,1.7,0.5c1.1,0.4,1.7,1.1,1.8,2.3c0.1,1,0,2-0.1,3c-0.1,1,0,2,0.5,2.8
			c0.9,1.3,1.3,2.7,1.1,4.4c-0.1,0.5,0.1,0.9,0.5,1.2c1,0.9,2.1,1.8,3.2,2.7c0.3,0.3,0.6,0.4,1.1,0.3c0.4-0.1,1,0.1,1.5,0.1
			c0.1,0.7,0.2,1.3,0.2,1.9c0.1,0.8-0.1,1.1-1,1.1c-1.6,0-3.1,0-4.6,0c-9.9,0-19.7,0-29.6,0c-2.4,0-4.8,0-7.2,0
			c-1.1,0-1.8-1.2-1.3-2.1c0.1-0.2,0.4-0.4,0.7-0.4c0.7-0.1,1.3-0.1,1.9-0.1c0.4-0.1,0.9-0.1,1.3-0.4c-0.4-0.1-0.7-0.2-1.2-0.4
			c0.3-0.6,0.8-0.3,1.2-0.4c0.4-0.1,0.8-0.2,1-0.4c1-1.5,2.1-2.9,2.9-4.5c0.7-1.3,1.6-2.4,2.5-3.5c0.7-0.7,1.6-1.3,2.6-1.6
			c1.7-0.4,3.4-0.8,4.9-1.7c0.4-0.2,1.1,0.1,1.8,0.2c0,0,0.2-0.1,0.2-0.3c0.1-1.3,0.3-2.6,0.4-3.9c0-0.2-0.2-0.5-0.4-0.7
			c-1.6-1.6-3.1-3.2-4.7-4.7c-1-1-1.9-2.2-2.3-3.6c-0.9-3.4-1.8-6.7-2.6-10.1c-0.3-1.3-0.3-2.8-0.4-4.2c-0.1-0.8-0.1-1.7-0.1-2.5
			c-0.1-3.7,0.4-7.4,0.8-11.1c0.4-3.5,0.8-6.9,1.2-10.4c0.1-1.5,0.7-2.7,1.6-4c1.4-1.8,2.4-3.9,2.6-6.3c0.1-1.8,0.3-3.6,0.7-5.5
			c0.5-3,1.9-5.8,3.2-8.4c1.3-2.6,2.6-5.2,3.8-7.8c0.5-1,1-1.9,2.1-2.4c1.5-0.7,2.9-0.7,4.2,0.3c1.5,1,2.9,2.1,4.4,3.2
			c0.4,0.2,0.6,0.5,1,0c-0.3-0.4-0.5-0.7-0.8-1.1c-0.5-0.6-0.7-1.2-0.4-1.9c0.2-0.6,0.4-1.2,0.6-1.8c0.1-0.4,0.2-0.9,0.1-1.3
			c-0.3-1-0.1-1.8,0.7-2.4c0.1-0.1,0.3-0.3,0.4-0.5c-0.8-1.6-0.4-2.8,0.7-3.9c0.4-0.4,1-0.7,1.6-0.8c2.1-0.3,4.1-0.3,6.1,0.1
			c0.7,0.1,1.3,0.4,1.9,0.7c0.6,0.3,1.2,0.7,1.8,0.8c0.7,0.2,1.3,0.7,1.6,1.4c0.7,2.1,1.3,4.4,0.9,6.6c-0.2,1.3-0.9,2.6-1.5,3.8
			c-0.1,0.4-0.7,0.6-1.1,0.9c-0.7,0.5-1.3,1-2,1.6c-0.5,0.4-1,0.8-1.4,1.3c-0.7,0.7-1.3,1.3-1.9,2c0.7,0.9,1.2,1.7,1.8,2.4
			c0.6,0.6,1.4,1,2.2,1.6c-1.5,0.3-2.8,0.2-3.9-0.7c-0.5-0.4-1-0.9-1.4-1.3c-0.7-0.7-1.3-1.5-2.6-1.4c0.6-0.9,1.2-1.6,1.7-2.3
			c-0.4-0.3-0.6-0.6-0.9-0.8c-0.4,0.3-0.8,0.5-1.2,0.8c-0.2-0.4-0.2-0.4,0.7-1.8c0.5,0.1,1,1.1,1.8,0.3c0.1-0.7,0.1-1.6,0.1-2.5
			c0.1-1,0.1-1.8,0.1-2.8c1-0.6-0.1-1.7,0.7-2.4C83.8,44.9,84,45,84.3,45.1L84.3,45.1z"/>
		<path class="st0" d="M80.9,113.3c-0.2-0.6-0.2-0.6-1-0.6C80.4,112.9,80.7,113.1,80.9,113.3 M79.1,111.4c-0.5-0.2-0.5-0.2-1.3,1.3
			c0.3,0.2,0.5,0.4,0.7,0.6C78.7,112.6,78.9,112,79.1,111.4 M83.4,114c0.1,0.8-0.4,1-1.2,1c0.4,0.7-0.1,1.6,0.6,2.2
			c2.2,2,4.3,4,6.4,6.1c0.2,0.1,0.4,0.3,0.7,0.4c-0.7-1.2-1.8-1.9-1.7-3.5c0.3,0.2,0.4,0.5,0.6,0.8c0.1,0.1,0.1,0.4,0.2,0.6
			c0.7,0.7,1.3,1.3,2,1.9c0.1,0.1,0.4-0.1,0.6-0.1c-0.5-0.7-0.9-1.3-1.3-1.8c0.1-0.1,0.1-0.1,0.1-0.2c0.3,0.1,0.6,0.1,0.9,0.1
			c0.7-0.3,0.9-1,1.4-1.4c0.9-0.7,2-1.3,2.3-2.6c0.1-0.2,0.4-0.4,0.7-0.7c0.1,0.5,0.1,0.8,0.1,1c0.3-1.3,1.8-0.2,2.2-1.3
			c-0.5-0.6-1.1-1.2-1.6-1.8c-0.4-0.5-1-0.5-1.5-0.1c-1,1-1.8,1.9-2.8,3c-0.4,0.4-0.9,0.9-1.3,1.3c-0.3,0.3-0.7,0.5-0.9,0.8
			c-0.5,0.6-0.7,0.6-1.2,0c0.1-0.7,0.3-1.1,0.4-1.7c0.2-0.1,0.5-0.1,0.7-0.3c0.1-0.2,0.1-0.5,0.2-0.8c0.4-0.1,0.7,0.2,1-0.3
			c0.4-0.7,1.2-1.1,1.9-1.6c0.7-0.4,1.3-1.1,2.1-1.8c-0.9-1-1.6-1.7-2.4-2.5c-0.8-0.8-1.6-1.6-2.4-2.4c-0.4,0.1-0.6,0.3-0.7,0.4
			c-0.5-0.8-1-1.5-1.6-2.3c-0.4-0.1-1-0.1-1.4-0.2c-0.7,0.7-1.3,1.3-0.7,2.4c-0.5-0.1-0.8-0.1-1.1-0.1c-0.5,0.6-0.9,1.2-0.7,2
			c0.1,0.2-0.2,0.6-0.4,0.9c-0.4,0.7-1.2,1.3-1.3,2.4c0.1,0,0.2,0.1,0.4,0.1C83,114,83.2,114,83.4,114 M99.5,116.6
			c-2.4,2.8-4.8,5.6-7.2,8.3c-1,1.1-1.1,1.1-2.3,0c-2.5-2.3-4.9-4.7-7.5-6.9c-1.7-1.6-3.4-3.1-5.1-4.7c-0.8-0.7-0.8-0.8-0.2-1.7
			c0.4-0.7,0.9-1.3,1.4-2c0.8,0.7,1.6,1.3,2.4,2c1.6-1.7,3.2-3.5,4.5-5.5c-0.6-0.7-1.1-1.4-1.7-2c0-0.1,0-0.2,0-0.3
			c2.1-2.1,1.4-1.8,3.4,0.1c3,3,5.8,6,8.7,9c0.9,0.9,1.8,1.8,2.7,2.7C99,116,99.2,116.3,99.5,116.6"/>
		<path class="st0" d="M94.2,108.9c0.1-0.4,0.1-0.7,0.1-1c0.3-0.6,0.6-1.2,0.9-1.7c1.8-3.1,2.7-6.4,3-10c0.1-0.7,0-1.3,0-2.1
			c0.7,0.3,0.8,0.8,0.7,1.3c-0.1,0.8-0.1,1.6-0.2,2.4c-0.4,3.9-2.1,7.3-4.1,10.6C94.6,108.7,94.5,108.7,94.2,108.9"/>
		<path class="st0" d="M84.3,45.1c-0.3-0.7-0.7-1.3-1.3-1.8c-0.4-0.3-0.8-0.8-0.6-1.6c0.9,0.1,1.8,0.2,2.8,0.5
			c0.9,0.2,1.3,1.5,1,2.3c-0.2,0.4-0.6,0.6-1,0.4C84.8,44.7,84.5,44.8,84.3,45.1L84.3,45.1"/>
		<path class="st0" d="M87.9,38.4c0.1,0.1,0.2,0.1,0.3,0.1c0.7,0.4,1.3,0.9,2.1,1.5c-0.1,0.1-0.1,0.5-0.4,1
			c-0.9-0.6-1.8-0.9-2.3-1.6c-0.7-0.9-1.7-0.2-2.5-1C86.2,38.2,87.1,38.3,87.9,38.4"/>
		<path class="st0" d="M119.7,88.6c-0.5,0.2-0.4,1.3-1.3,0.7c0.2-1.1,0.4-2.1,0.7-3.3c0.9,0,0.4,0.9,0.7,1.2
			c0.3,0.1,0.7,0.1,0.7,0.3c0.2,0.7,0.1,1.4-0.3,2.1C119.8,89.2,119.8,89.2,119.7,88.6"/>
		<path class="st0" d="M100.1,113.4c0.9,0.4,1.2,1,1.3,1.6c0.1,1.2-0.1,2.3-0.7,3.3c-0.1,0.4-0.4,0.6-0.8,0.1
			c0.2-0.8,0.4-1.7,0.7-2.5C100.9,115.2,100.1,114.5,100.1,113.4"/>
		<path class="st0" d="M86.7,100.3c-0.6,0.1-1.1,0.1-1.7,0.3s-1.2,0.3-1.7,0.4c-0.5,0.1-1,0.4-1.8,0.7
			C82.5,100.2,85.4,99.3,86.7,100.3"/>
		<path class="st0" d="M101.5,117.9c0.3-1.1,0.7-2.1,1-3.2c0.7,0.3,0.7,0.9,0.5,1.4C102.9,116.7,102.9,117.7,101.5,117.9"/>
		<path class="st0" d="M82.9,87.6c0.4,0.2,0.6,0.4,0.8,0.5c0.1-0.2,0.1-0.5,0.2-1c0.4,0.6,0.7,1,1.1,1.5c-0.7,0-0.9,1-1.6,0.6
			C82.9,88.9,82.7,88.4,82.9,87.6"/>
		<path class="st0" d="M119.7,42.7c-0.1-0.4-0.1-1-0.3-1.4c-0.1-0.4-0.3-0.9-0.6-1.5c0.4,0.2,0.7,0.3,0.8,0.5
			C119.9,41,120.3,41.8,119.7,42.7"/>
		<path class="st0" d="M87.5,99.7c-0.7-0.3-1.6-0.7-2.5-1.1c1.1-0.4,1.8-0.1,2.7,0.8C87.6,99.5,87.5,99.6,87.5,99.7"/>
		<path class="st0" d="M120.8,42.9c-0.1-0.9-0.1-1.6-0.2-2.6C121.4,41.5,121.5,42.1,120.8,42.9"/>
		<path class="st0" d="M65.3,48.1c-0.2,0.4-0.4,0.7-0.7,1.4c-0.1-0.8,0.2-1.2,0.5-1.6C65.1,48,65.2,48,65.3,48.1"/>
		<path class="st0" d="M60.2,75.7c-0.4-1.7-0.8-3.4-1.3-5.2h1.6c0.4-1.4,1.6-1.4,2.8-1.6c0.2,0,0.5,0.2,0.7,0.4
			c0.7,1.1,0.1,2.8-1,3.6c0,0.7,0,1.5,0,2.2c0,0.6-0.4,0.7-1,0.5c-0.1-1.3,0.1-2.9-1-4.1c0,1.1,0,2.2,0,3.2
			C61,75.3,61,75.3,60.2,75.7"/>
		<path class="st0" d="M65.1,122.2c0.6,0.3,0.5,0.9,0.4,1.3c-0.1,1,0.7,2.1,0.1,3.2C63.9,125.3,63.7,123.8,65.1,122.2"/>
		<path class="st0" d="M56.4,101.6c0.7,0.1,1.3-0.1,1.6,0.2c0.6,0.5,0.5,1.3,0.1,2.1C57.1,103.6,56.7,102.7,56.4,101.6"/>
		<path class="st0" d="M70,81.8c-0.7,0.9-1.6,0.8-2.2,0.9c-0.4,0.1-0.7-0.3-0.5-0.9H70z"/>
		<path class="st0" d="M61.4,106.1c-0.8-0.6-1.1-1.3-1-2.4C61.2,104.4,61.2,105.3,61.4,106.1"/>
		<path class="st0" d="M61.2,99.1c-0.2,0.3-0.4,0.6-0.7,0.8c-0.1,0.1-0.4,0-0.4-0.1s-0.1-0.4-0.1-0.4c0.3-0.2,0.6-0.4,0.9-0.7
			C61,98.8,61.1,99,61.2,99.1"/>
		<path class="st0" d="M93.5,78.9c0.1,0.8-0.4,1.3-1,1.7C92.3,79.8,92.5,79.6,93.5,78.9"/>
		<path class="st0" d="M91.8,81.5c-0.2,1.3-0.3,1.4-1.1,1.4C90.8,82.3,91.1,81.9,91.8,81.5"/>
		<path class="st0" d="M88.4,86.6c-0.1,0.6-0.3,1-1,1.1C87.4,87,87.9,86.8,88.4,86.6"/>
		<path class="st0" d="M90,84.4c-0.2,0.4-0.5,0.7-0.9,1.3c-0.1-1,0.1-1.3,0.6-1.5C89.9,84.3,89.9,84.4,90,84.4"/>
		<path class="st0" d="M86.3,118.6c-0.7-0.4-0.7-0.9-0.3-1.3c0.4-0.3,0.7-0.7,1-1c1.3-1.3,2.7-2.5,4-3.8c0.4-0.3,0.7-0.6,1.1-1
			c0.2,0.3,0.4,0.6,0.4,0.6C90.4,114.4,88.4,116.5,86.3,118.6"/>
		<path class="st0" d="M83.8,113.5c-0.1-0.4-0.4-0.7-0.3-0.9c0.1-0.4,0.5-0.5,1.4-0.4C84.6,112.6,84.3,113,83.8,113.5"/>
		<path class="st0" d="M84.6,111.2c0.7-0.3,1.1-0.5,1.6-0.8C85.9,111.6,85.5,111.8,84.6,111.2"/>
		<path class="st0" d="M85.1,110.5c-0.2-0.2-0.3-0.4-0.4-0.5c0-0.1,0.2-0.3,0.3-0.2c0.1,0,0.3,0.1,0.4,0.3
			C85.4,110.1,85.2,110.3,85.1,110.5"/>
	</g>
</g>
</svg>
