<?xml version="1.0" encoding="utf-8"?>
<!-- Generator: Adobe Illustrator 26.0.3, SVG Export Plug-In . SVG Version: 6.00 Build 0)  -->
<svg version="1.1" id="Laag_1" xmlns="http://www.w3.org/2000/svg" xmlns:xlink="http://www.w3.org/1999/xlink" x="0px" y="0px"
	 viewBox="0 0 480 176" style="enable-background:new 0 0 480 176;" xml:space="preserve">
<style type="text/css">
	.st0{fill:#FFFFFF;}
	.st1{fill:#76236C;}
</style>
<g>
	<g>
		<rect x="184.6" y="17.7" class="st0" width="110.8" height="140.6"/>
		<path class="st1" d="M295.7,158.6H184.3V17.4h111.3V158.6z M184.9,158h110.2V18H184.9V158z"/>
	</g>
	<rect x="184.6" y="17.7" class="st1" width="110.9" height="110.3"/>
	<g>
		<path class="st0" d="M278.1,109.5c1.8,0,3.4,1.6,3.4,3.4c0,2.2-1.5,3.9-3.4,3.9c-1.8,0-3.4-1.6-3.4-3.9
			C274.8,111.1,276.3,109.5,278.1,109.5 M278.1,106.2c-3.4,0-6.6,2.8-6.6,6.7c0,4.2,2.8,7.2,6.6,7.2c3.8,0,6.6-3,6.6-7.2
			C284.7,109,281.6,106.2,278.1,106.2 M269.5,106.9c-0.9-0.4-1.8-0.7-2.8-0.7c-1.7,0-3.4,0.8-4.5,2.1c-1.1,1.3-1.7,3-1.7,4.8
			c0,1.9,0.6,3.6,1.9,4.9c1.2,1.2,2.8,1.9,4.5,1.9c1,0,1.7-0.3,2.7-0.6v-4.1c-0.6,0.8-1.7,1.4-2.7,1.4c-1.9,0-3.2-1.5-3.2-3.5
			c0-2,1.3-3.6,3.2-3.6c1.1,0,2.1,0.5,2.7,1.4L269.5,106.9L269.5,106.9z M255.5,106.6h-3.1v13h6.8v-2.9h-3.7V106.6z M249.7,109.5
			v-2.9h-6.8v13h6.8v-2.9H246v-2.2h3.5v-2.9H246v-2.2L249.7,109.5L249.7,109.5z M233.4,109.5h0.7c2,0,3.4,1.3,3.4,3.6
			c0,2.5-1.6,3.6-3.4,3.6h-0.7V109.5z M230.3,119.6h4.4c3.3,0,6-2.8,6-6.5s-2.7-6.5-6-6.5h-4.4V119.6z M227.5,106.6h-3.1v13h3.1
			V106.6z M221.7,109.5v-2.9H215v13h6.8v-2.9H218v-2.2h3.5v-2.9H218v-2.2L221.7,109.5L221.7,109.5z M198.5,106.6h-3.2l3.5,13h3.1
			l2.3-7.5h0l2.1,7.5h3.2l3.8-13h-3.2L208,115h0l-2.3-8.4h-2.5l-2.5,8.4h0L198.5,106.6z"/>
		<path class="st0" d="M256.9,58.2c0-13.2-7.1-24.8-17.6-31.1c-10.5,6.3-17.6,17.9-17.6,31.1c0,13.2,7.1,24.8,17.6,31.1
			C249.8,82.9,256.9,71.4,256.9,58.2"/>
		<path class="st1" d="M239.3,90.5l-0.6-0.3c-11.4-6.8-18.1-18.8-18.1-32s6.8-25.2,18.1-32l0.6-0.3l0.6,0.3
			c11.4,6.8,18.1,18.8,18.1,32s-6.8,25.2-18.1,32L239.3,90.5z M239.3,28.4c-10.3,6.5-16.5,17.6-16.5,29.8s6.2,23.3,16.5,29.8
			c10.3-6.5,16.5-17.6,16.5-29.8C255.8,45.9,249.6,34.8,239.3,28.4z"/>
		<path class="st0" d="M209.6,89.6c-8.2-8.8-11.4-20.8-9.4-31.3c9.8-2.1,21,1.3,29.2,10.1c8.2,8.8,11.4,20.8,9.4,31.3
			C229,101.9,217.8,98.5,209.6,89.6"/>
		<path class="st1" d="M232.9,101.5c-8.7,0-17.5-3.9-24.1-11.1c-8.2-8.8-11.9-20.9-9.7-32.3l0.1-0.7l0.7-0.2
			c10.7-2.3,22,1.6,30.3,10.5c8.2,8.8,11.9,20.9,9.7,32.3l-0.1,0.7l-0.7,0.2C237,101.3,235,101.5,232.9,101.5z M201.1,59.2
			c-1.7,10.4,1.8,21.7,9.3,29.7l0,0c7.5,8.1,17.8,11.8,27.5,10c1.7-10.4-1.8-21.7-9.3-29.7C221,61.1,210.8,57.4,201.1,59.2z"/>
		<path class="st0" d="M269.2,89.6c8.2-8.8,11.4-20.8,9.4-31.3c-9.8-2.1-21,1.3-29.2,10.1c-8.2,8.8-11.4,20.8-9.4,31.3
			C249.8,101.9,261,98.5,269.2,89.6"/>
		<path class="st1" d="M245.9,101.5c-2,0-4.1-0.2-6.1-0.7l-0.7-0.2l-0.1-0.7c-2.1-11.4,1.5-23.5,9.7-32.3
			c8.3-8.9,19.6-12.8,30.3-10.5l0.7,0.2l0.1,0.7c2.1,11.4-1.5,23.5-9.7,32.3C263.3,97.6,254.6,101.5,245.9,101.5z M241,98.8
			c9.7,1.8,19.9-1.9,27.5-10l0,0c7.5-8,11-19.3,9.3-29.7c-9.7-1.8-19.9,1.9-27.5,10C242.8,77.2,239.2,88.5,241,98.8z"/>
		<path class="st1" d="M282.2,142.4c-0.5-0.3-1.1-0.4-1.7-0.4c-1.1,0-2.3,0.6-2.3,2c0,1,0.6,1.3,1.2,1.5c0.6,0.2,1.2,0.2,1.2,0.6
			c0,0.3-0.3,0.4-0.6,0.4c-0.5,0-1.1-0.3-1.5-0.6l-0.7,1.4c0.6,0.4,1.4,0.6,2.1,0.6c1.2,0,2.5-0.6,2.5-2.1c0-1-0.7-1.5-1.5-1.7
			c-0.3-0.1-0.8-0.1-0.8-0.5c0-0.3,0.4-0.4,0.6-0.4c0.3,0,0.7,0.1,1,0.3L282.2,142.4z M274,142.2h-1.8v5.6h1.8v-2.2
			c0-1,0.3-1.7,1.3-1.7c0.3,0,0.5,0,0.8,0.2v-1.9h-0.4c-0.7,0-1.3,0.3-1.7,1h0L274,142.2L274,142.2z M269.9,145.1
			c0-1.9-1-3.1-2.9-3.1c-1.7,0-2.9,1.1-2.9,3c0,1.9,1.3,3,3,3c1.2,0,2.4-0.6,2.6-1.9H268c-0.2,0.4-0.5,0.5-0.9,0.5
			c-0.8,0-1.2-0.4-1.2-1.2h3.9L269.9,145.1L269.9,145.1z M266,144.2c0.1-0.6,0.6-0.9,1.1-0.9c0.5,0,1,0.3,1.1,0.9H266z M258.2,142.2
			h-1.8v5.6h1.8v-2.9c0-0.7,0.2-1.3,1-1.3c0.9,0,0.8,0.9,0.8,1.5v2.7h1.8v-3.5c0-1.4-0.6-2.3-2-2.3c-0.7,0-1.2,0.2-1.7,0.9h0
			L258.2,142.2L258.2,142.2z M253.3,143.8h1.1v-1.6h-1.1v-1.7h-1.8v1.7h-0.6v1.6h0.6v3.9h1.8V143.8z M246.9,142.2h-1.8v5.6h1.8v-2.2
			c0-1,0.3-1.7,1.3-1.7c0.3,0,0.5,0,0.8,0.2v-1.9h-0.4c-0.7,0-1.3,0.3-1.7,1h0L246.9,142.2L246.9,142.2z M242.5,142.2h-1.8v0.5
			c-0.4-0.5-1-0.7-1.6-0.7c-1.5,0-2.6,1.4-2.6,3c0,1.6,1.1,3,2.6,3c0.6,0,1.2-0.3,1.6-0.8h0v0.6h1.8L242.5,142.2L242.5,142.2z
			 M239.5,143.7c0.8,0,1.2,0.6,1.2,1.3c0,0.7-0.4,1.2-1.2,1.2c-0.7,0-1.2-0.5-1.2-1.2C238.3,144.3,238.7,143.7,239.5,143.7
			 M231.3,143.7c0.8,0,1.2,0.6,1.2,1.3c0,0.7-0.4,1.2-1.2,1.2c-0.8,0-1.2-0.5-1.2-1.2C230.1,144.3,230.6,143.7,231.3,143.7
			 M230.2,142.2h-1.8v8.4h1.8v-3.3c0.4,0.5,1,0.7,1.6,0.7c1.5,0,2.6-1.3,2.6-3c0-1.6-1.1-3-2.6-3c-0.6,0-1.2,0.3-1.6,0.8h0
			L230.2,142.2L230.2,142.2z M222.9,143.7c0.8,0,1.2,0.6,1.2,1.3c0,0.7-0.4,1.2-1.2,1.2s-1.2-0.5-1.2-1.2
			C221.7,144.3,222.1,143.7,222.9,143.7 M224,147.8h1.8v-9H224v4c-0.4-0.5-1-0.7-1.6-0.7c-1.5,0-2.6,1.4-2.6,3c0,1.6,1.1,3,2.6,3
			c0.6,0,1.2-0.3,1.6-0.8h0L224,147.8L224,147.8z M214.7,143.7c0.8,0,1.2,0.6,1.2,1.3c0,0.7-0.4,1.2-1.2,1.2s-1.2-0.5-1.2-1.2
			C213.5,144.3,213.9,143.7,214.7,143.7 M214.7,142c-1.7,0-3.1,1.1-3.1,3c0,1.9,1.5,3,3.1,3c1.7,0,3.1-1.1,3.1-3
			C217.8,143.1,216.3,142,214.7,142 M206.5,143.7c0.7,0,1.2,0.6,1.2,1.3c0,0.7-0.4,1.2-1.2,1.2c-0.8,0-1.2-0.5-1.2-1.2
			C205.3,144.3,205.8,143.7,206.5,143.7 M206.5,142c-1.7,0-3.1,1.1-3.1,3c0,1.9,1.5,3,3.1,3c1.7,0,3.1-1.1,3.1-3
			C209.7,143.1,208.2,142,206.5,142 M200.4,143.8h1.3v-1.6h-1.3v-0.9c0-0.6,0.2-0.9,0.6-0.9c0.2,0,0.4,0.1,0.7,0.2v-1.7
			c-0.3-0.1-0.5-0.2-0.8-0.2c-0.7,0-1.4,0.3-1.8,0.9c-0.5,0.6-0.5,1.2-0.5,2v0.7H198v1.6h0.7v3.9h1.8L200.4,143.8L200.4,143.8z"/>
	</g>
</g>
</svg>
