<?xml version="1.0" encoding="utf-8"?>
<!-- Generator: Adobe Illustrator 26.3.1, SVG Export Plug-In . SVG Version: 6.00 Build 0)  -->
<svg version="1.1" id="Layer_2" xmlns="http://www.w3.org/2000/svg" xmlns:xlink="http://www.w3.org/1999/xlink" x="0px" y="0px"
	 viewBox="0 0 640 235" style="enable-background:new 0 0 640 235;" xml:space="preserve">
<style type="text/css">
	.st0{fill:#A1A8AD;}
	.st1{fill:#5B6670;}
	.st2{fill:#FEFEFE;}
	.st3{fill:#E1251B;}
</style>
<g>
	<g>
		<path class="st0" d="M183.4,65.6c0,0,92.3-41.2,162.8-12c70.5,29.2,127.3,83.7,127.3,83.7s-42.1-22-88.5-29.7
			c-46.4-7.7-78-2.2-107-12.2c-29-10-35.5-19-62.5-13.1c-27,6-52.1,7-52.1,7L183.4,65.6z"/>
		<path class="st1" d="M462,141.9c0,0-41.8-7.2-92.2,1c-50.4,8.1-100.8,16.2-125,0.7c-24.3-15.5-58.3-48.2-65.3-52.7
			c-6.9-4.4,23.8-23.8,48.2-18.3c24.4,5.6,47.3,25.5,82.2,28.3c34.9,2.7,75.8,5.6,103.1,14.5c27.3,8.9,61.2,20.8,68.5,30.3
			C488.9,155.4,462,141.9,462,141.9"/>
		<path class="st1" d="M487.3,148.5c0,0-9.4-18-33.1-35.2c-23.7-17.1-53.9-33.8-78.7-42.8c-24.8-8.9-48.3-16.4-73.5-18.8
			c-25.1-2.4-44.7-3.2-75.1,4.1c-25,6-34.2,15.2-40.3,19.8c-6.2,4.6-11.4,11.2-11.4,11.2s37.5-26.9,75.2-29.7
			c39-2.9,57.9,1.4,69.5,3.3c11.6,1.9,48.2,11.2,77,25.2c27.6,13.5,35.1,19.1,50.4,29.6C461,124.8,487.3,148.5,487.3,148.5"/>
		<path class="st1" d="M157.6,98.6c0,0,14.9-3.5,51.6,23.4c35.5,23.7,66.3,23.4,82.7,23.7c16.5,0.3,61.8-5.9,84.4-9.4
			c21.8-3.4,41.4-4.7,62.2-2.8c19.7,1.8,42,13.4,42,13.4s-27.4-8.1-48.1-8.8c-20.6-0.6-37,1.2-75.3,6.7c-38.3,5.5-54.1,8-82.9,5.9
			c-28.8-2.1-52.6-13.2-67.2-23.2c-14.6-9.9-25.6-19.2-34.4-23C163.8,100.7,157.6,98.6,157.6,98.6"/>
		<path class="st2" d="M274.1,95c-2.6-8.8-6.7-16.1-20.4-16.1c-15,0-22.8,11.8-22.8,27.7c0,15.2,7.8,30.6,25,30.6
			c9.8,0,16.2-6.1,18.6-15.2l2.6,0.4c-1.2,4.9-1.8,9.8-2.3,14.8c-5.3,2.3-12.5,4.1-20.9,4.1c-20.5,0-35.8-11.2-35.8-34.1
			c0-20.4,16.5-32.3,35.3-32.3c10.7,0,14.1,3.3,22.7,4.6c-0.1,5,0.1,10.1,0.7,15.2L274.1,95z"/>
		<path class="st2" d="M287.6,82.5c0-2-0.3-2.8-2.4-3.6c-1-0.4-2-0.8-3-1.2v-2.2c4.1-1,10.1-3.3,14.6-5.4l1,0.8v63.3
			c0,2.6,2.2,2.8,4.7,2.8h1v2.7c-3.5-0.2-6.9-0.4-10.5-0.4c-3.7,0-7.5,0.2-10.9,0.4v-2.7c2.9,0,5.4,0,5.4-2.8V82.5z"/>
		<path class="st2" d="M333.3,111.1c0-5.3-3.1-7.4-7.2-7.4c-5.3,0-6.7,1.4-7,6.5c-0.2,2.5-5.1,3.6-6.5,3.6c-1,0-1.7-0.7-1.7-2.1
			c0-3.6,2.2-6.2,5-7.7c3-1.6,6.4-3.3,9.8-5.3c2-1.2,3.6-1.3,5.5-1.3c8,0,12.3,4.2,12.3,12.1v18.6c0,3.9,0.3,6.7,2.8,6.7
			c0.8,0,2-0.6,2.6-1.2l1.2,1.6c-2.7,3.4-5.2,5.7-9.6,5.7s-6.6-3-6.9-7.2c-4,3.9-8.1,7.2-14,7.2c-5.5,0-9.9-3.4-9.9-9.4
			c0-7.1,5.8-9.3,12.3-11.7l11.3-3.9V111.1z M333.3,119.3c-5,1.6-13.4,3.4-13.4,9.8c0,3.9,2,5.9,5.6,5.9c4.2,0,6.8-3.5,7.8-4.8
			V119.3z"/>
		<path class="st2" d="M389.9,129.8c-3.6,6.4-9.9,11.4-17.5,11.4c-11.5,0-17.7-10.6-17.7-21c0-11.5,7.8-22.7,20.2-22.7
			c9.4,0,14.5,6.9,14.3,16l-1.1,1h-24.6c0,9.3,4.3,18.5,14.1,18.5c4.4,0,7.9-1.6,10.9-4.9L389.9,129.8z M374,111.7
			c4.9,0,5.7-0.1,5.7-3.4c0-3.5-2.3-7.6-6.4-7.6c-5.6,0-8.7,5.3-9.7,10.9H374z"/>
		<path class="st2" d="M418.5,109.8c-0.5-5.1-2.4-9-8.2-9c-3.1,0-6.2,1.9-6.2,5.5c0,9.9,18.9,7.7,18.9,21.5
			c0,9.8-7.9,13.4-15.5,13.4c-4.4,0-7.7-1.3-10.8-2.4l-0.8-10.1l2.6-0.5c0.5,5,3.6,9.8,8.9,9.8c3.6,0,6.8-2,6.8-6
			c0-8.8-18.3-7.3-18.3-21.3c0-8,6.2-13,14.6-13c4.1,0,7.3,0.9,10.8,2.2c-0.3,3.3-0.5,6.5-0.2,9.7L418.5,109.8z"/>
		<rect x="217" y="20.2" class="st3" width="1.1" height="195.1"/>
	</g>
	<g>
		<path class="st1" d="M193.2,142.7c4.7,0.1,8.1,0.2,11.4,0.2c5.5-0.1,10.3-0.1,16.5-0.2l-0.5,4.1c-0.2,1.4-0.4,2.8-0.5,4.2h-1.6
			c-0.1-5.1-1.1-6.2-6.5-6.2c-2.3,0-4.5,0.3-6.9,0.3l-2.9,15.4l8-0.2c2.6-0.1,3.8-1,4.7-5h1.5c-1.3,6.2-1.5,8.3-2.2,12.9h-1.5
			c0-0.3,0.2-1.5,0.2-2.2c0-2.5-0.5-3.2-4.4-3.2c-3.1,0-6.2,0.1-6.7,0.1l-1.9,10.6c-0.3,1.4-0.4,2.6-0.4,3.6c0,1.3,1,2,4.6,2h0.6
			l-0.2,1.6c-2.1-0.1-6.1-0.2-8.8-0.2c-2.8,0-5.8,0.2-8.6,0.2l0.3-1.6h0.4c3.4,0,4.3-0.8,4.7-3.4l4.4-23.2c0.5-3.1,0.9-5,0.9-6.1
			c0-1.7-1.5-2-4.7-2L193.2,142.7z"/>
		<path class="st1" d="M247.4,166c0,8-6,15.6-14.8,15.6c-6.4,0-10.7-4.7-10.7-10.5c0-8.6,6.8-15.6,14.9-15.6
			C243.5,155.5,247.4,159.7,247.4,166z M232.4,179.5c6.4,0,8.9-11,8.9-16.2c0-4.4-1.6-5.8-4.4-5.8c-6.4,0-8.9,10.8-8.9,15.8
			C228,177.6,229.4,179.5,232.4,179.5z"/>
		<path class="st1" d="M276.7,166c0,8-6,15.6-14.8,15.6c-6.4,0-10.7-4.7-10.7-10.5c0-8.6,6.8-15.6,14.9-15.6
			C272.8,155.5,276.7,159.7,276.7,166z M261.7,179.5c6.4,0,8.9-11,8.9-16.2c0-4.4-1.6-5.8-4.4-5.8c-6.4,0-8.9,10.8-8.9,15.8
			C257.3,177.6,258.7,179.5,261.7,179.5z"/>
		<path class="st1" d="M310.8,139.5l-7.9,33.6c-0.3,1.3-0.4,1.9-0.4,2.2c0,0.6,0.3,0.9,0.8,0.9c0.6,0,1.7-0.8,2.8-1.9l2-1.9l1,1.3
			c-4.7,5.7-7.7,8-10.2,8c-1.9,0-2.5-1.1-2.5-2.6c0-1.3,0.6-3.5,1.1-5.7h-0.1c-2.8,4.6-7.5,8.3-11.8,8.3c-3.8,0-5.7-2.8-5.7-7.1
			c0-7.7,9.2-19,17.4-19c1.3,0,2.6,0.3,4,1l2.6-12.8l-3.6-1.7l0.3-1c3.4-0.3,6.8-1,9.7-1.9L310.8,139.5z M288.9,177.6
			c5.9,0,11-10.3,11-16.4c0-2.5-0.6-3.7-3.1-3.7c-5.9,0-10.9,11.2-10.9,16.3C286,176.1,286.5,177.6,288.9,177.6z"/>
		<path class="st1" d="M330.3,142.7c2.3,0.1,4.5,0.2,6.9,0.2c2.4,0,6.9-0.2,9.9-0.2c7.4,0,11.2,3.3,11.2,8.9c0,7.3-6.8,11.5-13,11.5
			c-1.6,0-3.3-0.1-4.1-0.3l0.4-2c0.8,0.1,1.2,0.2,2.6,0.2c4,0,6.7-4.5,6.7-9.4c0-4.3-1.8-6.8-5.7-6.8c-0.9,0-2.2,0.2-2.7,0.2
			l-5.4,29.7c-0.1,0.5-0.2,1.5-0.2,2.3c0,1.5,1,2.2,4.4,2.2h0.9l-0.2,1.6c-2,0-6-0.2-9.2-0.2c-2.8,0-5.5,0.2-8.2,0.2l0.3-1.6
			c3.1-0.1,4.5-0.1,5.1-3.2l4.5-24.1c0.3-1.4,0.7-3.6,0.7-4.9c0-1.9-1.1-2.7-5-2.7L330.3,142.7z"/>
		<path class="st1" d="M370.9,157.9c0,2.8-1.6,6.8-2.5,9.8l0.1,0.1c2.6-4,6.7-12.4,10.9-12.4c1.5,0,2.3,0.8,2.3,2.1c0,2-0.9,4-2.7,4
			c-1.1,0-1.5-0.3-2.4-0.3c-1.7,0-3.9,2.6-6.3,6.9c-1.3,2.4-3.1,6.2-3.6,7.8c-0.8,2.2-1.1,3.8-1.3,4.1c-0.3,0.5-0.6,0.9-2.9,0.9
			c-2.1,0-2.6-0.5-2.6-1c0-0.2,0.4-1.8,1.1-4l2.6-8.7c0,0,1.1-4,1.1-4.9c0-0.5-0.1-1.2-0.8-1.2c-0.9,0-2.3,0.9-4.3,3.1l-1-1.2
			c3.8-4.7,7.5-7.7,9.8-7.7C370.3,155.5,370.9,156.4,370.9,157.9z"/>
		<path class="st1" d="M406.1,166c0,8-6,15.6-14.8,15.6c-6.4,0-10.7-4.7-10.7-10.5c0-8.6,6.8-15.6,14.9-15.6
			C402.2,155.5,406.1,159.7,406.1,166z M391,179.5c6.4,0,8.9-11,8.9-16.2c0-4.4-1.6-5.8-4.4-5.8c-6.4,0-8.9,10.8-8.9,15.8
			C386.6,177.6,388.1,179.5,391,179.5z"/>
		<path class="st1" d="M422.2,158.6c-0.1,1.8-1.4,6.4-2.1,9l-4,13.4c-2.2,7.3-4.1,10.2-10.7,12.3l-0.5-1.5c2.3-1.2,3.8-3.8,6.1-12.2
			l4.6-16.6c0.1-0.4,0.2-0.8,0.2-1.1c0-0.6-0.2-0.9-0.8-0.9c-1,0-2.2,1-4.4,3.4l-1.3-1.3c4.6-5,7.8-7.5,9.9-7.5
			C421.1,155.5,422.2,156.2,422.2,158.6z M424.5,145.3c0,1.8-1.6,3.4-3.4,3.4c-1.8,0-3.4-1.6-3.4-3.4c0-1.8,1.6-3.4,3.4-3.4
			C422.9,141.9,424.5,143.5,424.5,145.3z"/>
		<path class="st1" d="M447.7,160.2c0,5-6.1,8.5-15.8,9.9c-0.2,0.7-0.3,1.7-0.3,2.9c0,2.6,1.5,4.9,4.3,4.9c2.7,0,5.7-1.4,9-4.3
			l1,1.3c-5.1,4.8-9,6.7-13.3,6.7c-4.6,0-7.1-3.5-7.1-8.3c0-8.5,7.9-17.8,16.5-17.8C445.5,155.5,447.7,157.1,447.7,160.2z
			 M441.9,159.8c0-1.4-0.5-2.2-2-2.2c-2.8,0-6.4,5.7-7.5,10.4C437.3,167.7,441.9,163.7,441.9,159.8z"/>
		<path class="st1" d="M472.8,158.6c0,1.7-1.1,3-2.9,3c-3.3,0-4-2.7-6.1-2.7c-3.7,0-7.6,9.9-7.6,14.7c0,2.8,1.9,4.4,4.4,4.4
			c2.7,0,6.4-2.1,9.9-5.4l1.1,1.5c-4.8,4.7-9.8,7.6-13.8,7.6c-5.6,0-8.1-3.3-8.1-7.8c0-4.5,2.2-9.1,6.4-12.8
			c4.3-3.7,9.1-5.5,12.7-5.5C470.7,155.5,472.8,156.2,472.8,158.6z"/>
		<path class="st1" d="M489.3,148.6l-2.3,7.8h6.4l-0.7,2.7h-6.5l-3.8,12.6c-0.4,1.3-0.9,2.9-0.9,3.6c0,0.6,0.4,1,1.1,1
			c1.9,0,4-2.6,5.6-4l1,1.1c-5,5.7-8.4,8.3-11.1,8.3c-2.1,0-3-1.3-3-3.1c0-1.5,0.9-4.7,1.9-8l3.4-11.5h-5.6l0.7-2.7h5.7l2.3-7.8
			H489.3z"/>
		<path class="st1" d="M510.6,159c0,1.3-0.8,2.6-1.3,3.3h-1.3c-0.8-2.3-3.1-3.1-5.2-3.1c-2.5,0-4.1,0.6-4.1,2.1
			c0,1.3,1.3,2.5,3.6,3.9l3.3,2.1c2.6,1.6,3.6,2.7,3.6,5.3c0,3.5-4.7,9-10.8,9c-4.1,0-7.5-1.7-7.5-4.5c0-1.9,0.3-2.5,1.7-4h1
			c0.4,3.1,4.2,4.5,7.7,4.5c2.5,0,4.1-0.4,4.1-2.2c0-1-0.3-1.6-3-3.4c-1.7-1.1-3.8-2.5-5.2-3.4c-1.6-1-2.7-2.8-2.7-4.5
			c0-3.2,3.8-6.3,6.9-7.9c1.2-0.6,2.3-0.7,3.7-0.7C509,155.5,510.6,156.6,510.6,159z"/>
	</g>
	<g>
		<path class="st3" d="M191,141.5c4.7,0.1,8.1,0.2,11.4,0.2c5.5-0.1,10.3-0.1,16.5-0.2l-0.5,4.1c-0.2,1.4-0.4,2.8-0.5,4.2h-1.6
			c-0.1-5.1-1.1-6.2-6.5-6.2c-2.3,0-4.5,0.3-6.9,0.3l-2.9,15.4l8-0.2c2.6-0.1,3.8-1,4.7-5h1.5c-1.3,6.2-1.5,8.3-2.2,12.9h-1.5
			c0-0.3,0.2-1.5,0.2-2.2c0-2.5-0.5-3.2-4.4-3.2c-3.1,0-6.2,0.1-6.7,0.1l-1.9,10.6c-0.3,1.4-0.4,2.6-0.4,3.6c0,1.3,1,2,4.6,2h0.6
			l-0.2,1.6c-2.1-0.1-6.1-0.2-8.8-0.2c-2.8,0-5.8,0.2-8.6,0.2l0.3-1.6h0.4c3.4,0,4.3-0.8,4.7-3.4l4.4-23.2c0.5-3.1,0.9-5,0.9-6.1
			c0-1.7-1.5-2-4.7-2L191,141.5z"/>
		<path class="st3" d="M245.2,164.8c0,8-6,15.6-14.8,15.6c-6.4,0-10.7-4.7-10.7-10.5c0-8.6,6.8-15.6,14.9-15.6
			C241.3,154.3,245.2,158.5,245.2,164.8z M230.1,178.3c6.4,0,8.9-11,8.9-16.2c0-4.4-1.6-5.8-4.4-5.8c-6.4,0-8.9,10.8-8.9,15.8
			C225.8,176.4,227.2,178.3,230.1,178.3z"/>
		<path class="st3" d="M274.5,164.8c0,8-6,15.6-14.8,15.6c-6.4,0-10.7-4.7-10.7-10.5c0-8.6,6.8-15.6,14.9-15.6
			C270.6,154.3,274.5,158.5,274.5,164.8z M259.4,178.3c6.4,0,8.9-11,8.9-16.2c0-4.4-1.6-5.8-4.4-5.8c-6.4,0-8.9,10.8-8.9,15.8
			C255.1,176.4,256.5,178.3,259.4,178.3z"/>
		<path class="st3" d="M308.6,138.3l-7.9,33.6c-0.3,1.3-0.4,1.9-0.4,2.2c0,0.6,0.3,0.9,0.8,0.9c0.6,0,1.7-0.8,2.8-1.9l2-1.9l1,1.3
			c-4.7,5.7-7.7,8-10.2,8c-1.9,0-2.5-1.1-2.5-2.6c0-1.3,0.6-3.5,1.1-5.7h-0.1c-2.8,4.6-7.5,8.3-11.8,8.3c-3.8,0-5.7-2.8-5.7-7.1
			c0-7.7,9.2-19,17.4-19c1.3,0,2.6,0.3,4,1l2.6-12.8l-3.6-1.7l0.3-1c3.4-0.3,6.8-1,9.7-1.9L308.6,138.3z M286.7,176.4
			c5.9,0,11-10.3,11-16.4c0-2.5-0.6-3.7-3.1-3.7c-5.9,0-10.9,11.2-10.9,16.3C283.8,174.9,284.3,176.4,286.7,176.4z"/>
		<path class="st3" d="M328.1,141.5c2.3,0.1,4.5,0.2,6.9,0.2c2.4,0,6.9-0.2,9.9-0.2c7.4,0,11.2,3.3,11.2,8.9c0,7.3-6.8,11.5-13,11.5
			c-1.6,0-3.3-0.1-4.1-0.3l0.4-2c0.8,0.1,1.2,0.2,2.6,0.2c4,0,6.7-4.5,6.7-9.4c0-4.3-1.8-6.8-5.7-6.8c-0.9,0-2.2,0.2-2.7,0.2
			l-5.4,29.7c-0.1,0.5-0.2,1.5-0.2,2.3c0,1.5,1,2.2,4.4,2.2h0.9l-0.2,1.6c-2,0-6-0.2-9.2-0.2c-2.8,0-5.5,0.2-8.2,0.2l0.3-1.6
			c3.1-0.1,4.5-0.1,5.1-3.2l4.5-24.1c0.3-1.4,0.7-3.6,0.7-4.9c0-1.9-1.1-2.7-5-2.7L328.1,141.5z"/>
		<path class="st3" d="M368.6,156.7c0,2.8-1.6,6.8-2.5,9.8l0.1,0.1c2.6-4,6.7-12.4,10.9-12.4c1.5,0,2.3,0.8,2.3,2.1c0,2-0.9,4-2.7,4
			c-1.1,0-1.5-0.3-2.4-0.3c-1.7,0-3.9,2.6-6.3,6.9c-1.3,2.4-3.1,6.2-3.6,7.8c-0.8,2.2-1.1,3.8-1.3,4.1c-0.3,0.5-0.6,0.9-2.9,0.9
			c-2.1,0-2.6-0.5-2.6-1c0-0.2,0.4-1.8,1.1-4l2.6-8.7c0,0,1.1-4,1.1-4.9c0-0.5-0.1-1.2-0.8-1.2c-0.9,0-2.3,0.9-4.3,3.1l-1-1.2
			c3.8-4.7,7.5-7.7,9.8-7.7C368,154.3,368.6,155.2,368.6,156.7z"/>
		<path class="st3" d="M403.8,164.8c0,8-6,15.6-14.8,15.6c-6.4,0-10.7-4.7-10.7-10.5c0-8.6,6.8-15.6,14.9-15.6
			C400,154.3,403.8,158.5,403.8,164.8z M388.8,178.3c6.4,0,8.9-11,8.9-16.2c0-4.4-1.6-5.8-4.4-5.8c-6.4,0-8.9,10.8-8.9,15.8
			C384.4,176.4,385.8,178.3,388.8,178.3z"/>
		<path class="st3" d="M420,157.4c-0.1,1.8-1.4,6.4-2.1,9l-4,13.4c-2.2,7.3-4.1,10.2-10.7,12.3l-0.5-1.5c2.3-1.2,3.8-3.8,6.1-12.2
			l4.6-16.6c0.1-0.4,0.2-0.8,0.2-1.1c0-0.6-0.2-0.9-0.8-0.9c-1,0-2.2,1-4.4,3.4l-1.3-1.3c4.6-5,7.8-7.5,9.9-7.5
			C418.9,154.3,420,155,420,157.4z M422.3,144.1c0,1.8-1.6,3.4-3.4,3.4c-1.8,0-3.4-1.6-3.4-3.4c0-1.8,1.6-3.4,3.4-3.4
			C420.7,140.7,422.3,142.3,422.3,144.1z"/>
		<path class="st3" d="M445.5,159c0,5-6.1,8.5-15.8,9.9c-0.2,0.7-0.3,1.7-0.3,2.9c0,2.6,1.5,4.9,4.3,4.9c2.7,0,5.7-1.4,9-4.3l1,1.3
			c-5.1,4.8-9,6.7-13.3,6.7c-4.6,0-7.1-3.5-7.1-8.3c0-8.5,7.9-17.8,16.5-17.8C443.2,154.3,445.5,155.9,445.5,159z M439.7,158.6
			c0-1.4-0.5-2.2-2-2.2c-2.8,0-6.4,5.7-7.5,10.4C435.1,166.5,439.7,162.5,439.7,158.6z"/>
		<path class="st3" d="M470.5,157.4c0,1.7-1.1,3-2.9,3c-3.3,0-4-2.7-6.1-2.7c-3.7,0-7.6,9.9-7.6,14.7c0,2.8,1.9,4.4,4.4,4.4
			c2.7,0,6.4-2.1,9.9-5.4l1.1,1.5c-4.8,4.7-9.8,7.6-13.8,7.6c-5.6,0-8.1-3.3-8.1-7.8c0-4.5,2.2-9.1,6.4-12.8
			c4.3-3.7,9.1-5.5,12.7-5.5C468.5,154.3,470.5,155,470.5,157.4z"/>
		<path class="st3" d="M487.1,147.4l-2.3,7.8h6.4l-0.7,2.7H484l-3.8,12.6c-0.4,1.3-0.9,2.9-0.9,3.6c0,0.6,0.4,1,1.1,1
			c1.9,0,4-2.6,5.6-4l1,1.1c-5,5.7-8.4,8.3-11.1,8.3c-2.1,0-3-1.3-3-3.1c0-1.5,0.9-4.7,1.9-8l3.4-11.5h-5.6l0.7-2.7h5.7l2.3-7.8
			H487.1z"/>
		<path class="st3" d="M508.4,157.8c0,1.3-0.8,2.6-1.3,3.3h-1.3c-0.8-2.3-3.1-3.1-5.2-3.1c-2.5,0-4.1,0.6-4.1,2.1
			c0,1.3,1.3,2.5,3.6,3.9l3.3,2.1c2.6,1.6,3.6,2.7,3.6,5.3c0,3.5-4.7,9-10.8,9c-4.1,0-7.5-1.7-7.5-4.5c0-1.9,0.3-2.5,1.7-4h1
			c0.4,3.1,4.2,4.5,7.7,4.5c2.5,0,4.1-0.4,4.1-2.2c0-1-0.3-1.6-3-3.4c-1.7-1.1-3.8-2.5-5.2-3.4c-1.6-1-2.7-2.8-2.7-4.5
			c0-3.2,3.8-6.3,6.9-7.9c1.2-0.6,2.3-0.7,3.7-0.7C506.8,154.3,508.4,155.4,508.4,157.8z"/>
	</g>
	<rect x="131.4" y="141" class="st3" width="377.5" height="1.1"/>
</g>
</svg>
