<?xml version="1.0" encoding="utf-8"?>
<!-- Generator: Adobe Illustrator 26.0.3, SVG Export Plug-In . SVG Version: 6.00 Build 0)  -->
<svg version="1.1" id="Laag_1" xmlns="http://www.w3.org/2000/svg" xmlns:xlink="http://www.w3.org/1999/xlink" x="0px" y="0px"
	 viewBox="0 0 640 235" style="enable-background:new 0 0 640 235;" xml:space="preserve">
<style type="text/css">
	.st0{fill:#FFFFFF;}
	.st1{fill:#76236C;}
</style>
<g>
	<g>
		<rect x="245.9" y="23.5" class="st0" width="148.1" height="188"/>
		<path class="st1" d="M394.4,211.9H245.6V23.1h148.9V211.9z M246.3,211.1h147.4V23.9H246.3V211.1z"/>
	</g>
	<rect x="245.9" y="23.5" class="st1" width="148.2" height="147.5"/>
	<g>
		<path class="st0" d="M371,146.2c2.5,0,4.5,2.2,4.5,4.6c0,3-2,5.2-4.5,5.2c-2.5,0-4.5-2.2-4.5-5.2
			C366.5,148.4,368.5,146.2,371,146.2 M371,141.8c-4.6,0-8.8,3.7-8.8,8.9c0,5.6,3.7,9.6,8.8,9.6s8.8-4,8.8-9.6
			C379.8,145.5,375.6,141.8,371,141.8 M359.4,142.8c-1.2-0.5-2.4-0.9-3.8-0.9c-2.2,0-4.5,1.1-6.1,2.8c-1.5,1.7-2.3,4-2.3,6.4
			c0,2.6,0.8,4.8,2.5,6.6c1.6,1.6,3.7,2.6,6,2.6c1.3,0,2.3-0.4,3.7-0.8V154c-0.9,1.1-2.2,1.8-3.6,1.8c-2.6,0-4.3-2-4.3-4.7
			c0-2.7,1.7-4.8,4.2-4.8c1.4,0,2.8,0.7,3.6,1.9L359.4,142.8L359.4,142.8z M340.7,142.4h-4.1v17.4h9.1V156h-4.9V142.4z M333,146.2
			v-3.8h-9v17.4h9V156h-4.9v-3h4.7v-3.8h-4.7v-2.9L333,146.2L333,146.2z M311.2,146.2h1c2.7,0,4.5,1.8,4.5,4.9
			c0,3.4-2.1,4.9-4.6,4.9h-0.9V146.2z M307,159.8h5.9c4.4,0,8.1-3.8,8.1-8.7c0-4.9-3.6-8.7-8.1-8.7H307V159.8z M303.3,142.4h-4.1
			v17.4h4.1V142.4z M295.6,146.2v-3.8h-9v17.4h9V156h-4.9v-3h4.7v-3.8h-4.7v-2.9L295.6,146.2L295.6,146.2z M264.6,142.4h-4.3
			l4.7,17.4h4.2l3.1-10.1h0l2.8,10.1h4.2l5.1-17.4h-4.3l-3,11.2h0l-3.1-11.2h-3.3l-3.3,11.2h0L264.6,142.4z"/>
		<path class="st0" d="M342.6,77.6c0-17.7-9.4-33.1-23.5-41.6c-14.1,8.5-23.5,23.9-23.5,41.6c0,17.7,9.4,33.1,23.5,41.6
			C333.1,110.7,342.6,95.3,342.6,77.6"/>
		<path class="st1" d="M319.1,120.9l-0.8-0.4c-15.2-9.1-24.2-25.1-24.2-42.8s9.1-33.7,24.2-42.8l0.8-0.4l0.8,0.4
			C335,43.9,344,59.9,344,77.6s-9.1,33.7-24.2,42.8L319.1,120.9z M319.1,37.8C305.2,46.4,297,61.3,297,77.6s8.2,31.2,22.1,39.8
			c13.8-8.6,22.1-23.5,22.1-39.8C341.1,61.3,332.9,46.4,319.1,37.8z"/>
		<path class="st0" d="M279.3,119.7c-11-11.8-15.3-27.8-12.6-41.9c13.2-2.9,28.1,1.7,39.1,13.5c11,11.8,15.3,27.8,12.6,41.9
			C305.2,136.1,290.3,131.5,279.3,119.7"/>
		<path class="st1" d="M310.5,135.6c-11.7,0-23.3-5.3-32.3-14.9c-11-11.8-15.9-27.9-13-43.2l0.2-1l1-0.2c14.3-3.1,29.4,2.1,40.5,14
			c11,11.8,15.9,27.9,13,43.2l-0.2,1l-1,0.2C316,135.3,313.3,135.6,310.5,135.6z M268,79c-2.3,13.9,2.4,29,12.4,39.7l0,0
			c10.1,10.8,23.8,15.7,36.7,13.3c2.3-13.9-2.4-29-12.4-39.7C294.6,81.5,281,76.6,268,79z"/>
		<path class="st0" d="M359.1,119.7c11-11.8,15.3-27.8,12.6-41.9c-13.2-2.9-28.1,1.7-39.1,13.5c-11,11.8-15.3,27.8-12.6,41.9
			C333.2,136.1,348.1,131.5,359.1,119.7"/>
		<path class="st1" d="M327.9,135.6c-2.7,0-5.5-0.3-8.2-0.9l-1-0.2l-0.2-1c-2.9-15.2,2-31.4,13-43.2c11-11.8,26.2-17.1,40.5-14
			l1,0.2l0.2,1c2.9,15.2-2,31.4-13,43.2C351.2,130.3,339.6,135.6,327.9,135.6z M321.3,132c13,2.4,26.7-2.5,36.7-13.3l0,0
			c10-10.7,14.7-25.8,12.4-39.7c-13-2.4-26.7,2.5-36.7,13.3C323.7,103,319,118.2,321.3,132z"/>
		<path class="st1" d="M376.4,190.2c-0.7-0.4-1.5-0.5-2.3-0.5c-1.5,0-3.1,0.8-3.1,2.7c0,1.3,0.8,1.8,1.5,2c0.8,0.2,1.5,0.3,1.5,0.8
			c0,0.4-0.5,0.6-0.8,0.6c-0.6,0-1.4-0.4-2-0.8l-0.9,1.9c0.8,0.5,1.8,0.9,2.8,0.9c1.6,0,3.3-0.8,3.3-2.8c0-1.4-0.9-2-2-2.2
			c-0.3-0.1-1.1-0.1-1.1-0.7c0-0.4,0.5-0.5,0.8-0.5c0.4,0,1,0.1,1.3,0.4L376.4,190.2z M365.4,190H363v7.5h2.5v-3
			c0-1.3,0.3-2.3,1.7-2.3c0.4,0,0.7,0,1,0.3v-2.5h-0.5c-1,0-1.8,0.4-2.2,1.3h0L365.4,190L365.4,190z M359.9,193.9
			c0-2.5-1.4-4.1-3.8-4.1c-2.3,0-3.8,1.5-3.8,4c0,2.6,1.7,4,4,4c1.6,0,3.1-0.8,3.5-2.6h-2.4c-0.3,0.5-0.6,0.7-1.2,0.7
			c-1,0-1.5-0.6-1.5-1.7h5.2L359.9,193.9L359.9,193.9z M354.8,192.6c0.2-0.8,0.7-1.2,1.5-1.2c0.7,0,1.3,0.5,1.4,1.2H354.8z
			 M344.4,190h-2.5v7.5h2.5v-3.9c0-0.9,0.3-1.7,1.3-1.7c1.2,0,1.1,1.2,1.1,2v3.6h2.5v-4.6c0-1.8-0.7-3.1-2.6-3.1
			c-1,0-1.7,0.3-2.2,1.2h0L344.4,190L344.4,190z M337.8,192.2h1.4V190h-1.4v-2.2h-2.5v2.2h-0.8v2.2h0.8v5.3h2.5V192.2z M329.3,190
			h-2.5v7.5h2.5v-3c0-1.3,0.3-2.3,1.7-2.3c0.4,0,0.7,0,1,0.3v-2.5h-0.5c-1,0-1.8,0.4-2.2,1.3h0L329.3,190L329.3,190z M323.3,190
			h-2.5v0.7c-0.5-0.7-1.4-1-2.2-1c-2.1,0-3.5,1.8-3.5,4c0,2.1,1.4,4,3.5,4c0.8,0,1.7-0.3,2.1-1.1h0v0.8h2.5L323.3,190L323.3,190z
			 M319.3,192c1,0,1.6,0.8,1.6,1.7c0,0.9-0.6,1.7-1.6,1.7s-1.6-0.7-1.6-1.7C317.7,192.8,318.3,192,319.3,192 M308.4,192
			c1,0,1.6,0.8,1.6,1.7c0,0.9-0.6,1.7-1.6,1.7c-1,0-1.6-0.7-1.6-1.7C306.8,192.8,307.4,192,308.4,192 M306.9,190h-2.5v11.2h2.5v-4.4
			c0.5,0.7,1.4,1,2.2,1c2.1,0,3.5-1.8,3.5-4c0-2.1-1.4-4-3.5-4c-0.8,0-1.7,0.4-2.1,1.1h0L306.9,190L306.9,190z M297.1,192
			c1,0,1.6,0.8,1.6,1.7c0,0.9-0.6,1.7-1.6,1.7s-1.6-0.7-1.6-1.7C295.5,192.8,296.1,192,297.1,192 M298.6,197.4h2.5v-12.1h-2.5v5.3
			c-0.5-0.7-1.4-1-2.2-1c-2.1,0-3.5,1.8-3.5,4c0,2.1,1.4,4,3.5,4c0.8,0,1.7-0.3,2.1-1.1h0L298.6,197.4L298.6,197.4z M286.1,192
			c1,0,1.6,0.8,1.6,1.7c0,0.9-0.6,1.7-1.6,1.7s-1.6-0.7-1.6-1.7C284.6,192.8,285.1,192,286.1,192 M286.1,189.7c-2.2,0-4.2,1.4-4.2,4
			c0,2.5,2,4,4.2,4c2.2,0,4.2-1.4,4.2-4C290.3,191.2,288.4,189.7,286.1,189.7 M275.3,192c1,0,1.6,0.8,1.6,1.7c0,0.9-0.6,1.7-1.6,1.7
			c-1,0-1.6-0.7-1.6-1.7C273.7,192.8,274.2,192,275.3,192 M275.3,189.7c-2.2,0-4.2,1.4-4.2,4c0,2.5,2,4,4.2,4c2.2,0,4.2-1.4,4.2-4
			C279.4,191.2,277.5,189.7,275.3,189.7 M267.1,192.2h1.7V190h-1.7v-1.2c0-0.8,0.2-1.2,0.9-1.2c0.3,0,0.6,0.1,0.9,0.3v-2.3
			c-0.3-0.2-0.7-0.3-1.1-0.3c-0.9,0-1.8,0.4-2.4,1.2c-0.7,0.8-0.7,1.6-0.7,2.6v0.9h-0.9v2.2h0.9v5.3h2.5L267.1,192.2L267.1,192.2z"
			/>
	</g>
</g>
</svg>
