<?xml version="1.0" encoding="utf-8"?>
<!-- Generator: Adobe Illustrator 26.3.1, SVG Export Plug-In . SVG Version: 6.00 Build 0)  -->
<svg version="1.1" id="Layer_1" xmlns="http://www.w3.org/2000/svg" xmlns:xlink="http://www.w3.org/1999/xlink" x="0px" y="0px"
	 viewBox="0 0 640 235" style="enable-background:new 0 0 640 235;" xml:space="preserve">
<style type="text/css">
	.st0{fill:#00269A;}
</style>
<g>
	<g>
		<path class="st0" d="M195.4,117.5h12.9c4.1,0,7.7-2.3,7.7-6.8c0-3.9-2.3-5.3-6-5.3h-12L195.4,117.5z M190.8,139.4H205
			c5.1,0,8.9-2.8,8.9-8.3c0-5.4-4.8-5.9-9-5.9h-11.1L190.8,139.4z M188.9,96.6h21.7c10.3,0,16.8,2.2,16.8,12.1
			c0,5.9-3.6,11.3-9.7,12v0.1c4.9,1.3,7.7,5.5,7.7,10.5c0,11.2-9.4,16.9-19.7,16.9H178L188.9,96.6z"/>
		<path class="st0" d="M247.5,120H258c6-0.1,11.7-2.4,11.7-8.2c0-5.6-3.9-6.4-8.4-6.4h-10.8L247.5,120z M241,96.6h24.6
			c9.3-0.1,15.4,3.5,15.4,13.5c0,7-4.9,12.9-11.9,13.9v0.1c4.3,1.3,5.3,5.1,5.3,9.1c0,2.3-0.4,5.8-0.4,9c0,2.3,0.1,4.5,0.7,6h-11.1
			c-0.3-1.2-0.5-2.3-0.5-3.5c0-3.5,0.6-7,0.6-10.5c0-5-3-6.2-7.4-6.2h-10.7l-4.3,20.2h-11.3L241,96.6z"/>
	</g>
	<path class="st0" d="M300.1,128.3h13.8l-2.5-20.5h-0.1L300.1,128.3z M307.6,96.6h11.6l8.6,51.6h-11.3l-1.7-11.5h-19.3l-6.5,11.5
		h-12L307.6,96.6z"/>
	<g>
		<path class="st0" d="M349.3,117.5h12.9c4.1,0,7.7-2.3,7.7-6.8c0-3.9-2.3-5.3-6-5.3h-12L349.3,117.5z M344.7,139.4h14.2
			c5.1,0,8.9-2.8,8.9-8.3c0-5.4-4.8-5.9-9-5.9h-11.1L344.7,139.4z M342.7,96.6h21.7c10.3,0,16.8,2.2,16.8,12.1
			c0,5.9-3.6,11.3-9.7,12v0.1c4.9,1.3,7.7,5.5,7.7,10.5c0,11.2-9.4,16.9-19.7,16.9h-27.5L342.7,96.6z"/>
		<path class="st0" d="M410.1,139.9c11.1,0,16.7-11.9,16.7-21.6c0-7.2-3.2-13.4-11.5-13.4c-11.6,0-16.9,11.8-16.9,21.7
			C398.4,133.7,401.8,139.9,410.1,139.9 M415.2,95.4c13.9,0,22.9,7.7,22.9,22.1c0,17-10.1,31.9-28.2,31.9
			c-14.5,0-22.9-8.3-22.9-22.8C387,109.9,397.8,95.4,415.2,95.4"/>
		<path class="st0" d="M457.4,120.9H469c5.7,0,9.3-2.9,9.3-9c0-5.2-4-6.4-8-6.4h-9.7L457.4,120.9z M451,96.6h20.7
			c10.4,0.1,17.9,3.6,17.9,15c0,11.4-9.4,18.1-20.1,18.1h-14l-3.9,18.5h-11.3L451,96.6z"/>
	</g>
	<path class="st0" d="M500.9,128.3h13.8l-2.5-20.5H512L500.9,128.3z M508.4,96.6h11.6l8.6,51.6h-11.3l-1.7-11.5h-19.3l-6.5,11.5h-12
		L508.4,96.6z"/>
	<polygon class="st0" points="573.9,96.6 550.5,118.3 550.3,118.3 554.8,96.6 543.5,96.6 532.7,148.2 544.1,148.2 547.5,131.9 
		555.4,125 567.2,148.2 580,148.2 564.1,117.9 588.9,96.6 	"/>
	<rect x="178" y="78.2" class="st0" width="410.8" height="6.4"/>
	<rect x="178" y="160.8" class="st0" width="410.8" height="6.4"/>
	<g>
		<path class="st0" d="M124.1,95.7c0.1,0,0.1,0,0.2,0v-1.2c-0.1,0-0.1,0-0.2,0V95.7z M60.6,192.4c-0.1-0.1-0.2-0.2-0.2-0.2
			c-0.3,0.2-0.5,0.5-0.8,0.7c0.1,0.1,0.1,0.1,0.2,0.2C60,192.9,60.3,192.6,60.6,192.4 M136.8,98c0-0.2,0-0.3,0-0.5
			c-0.4,0-0.8,0-1.1,0c0,0.1,0,0.2,0,0.4C136,97.9,136.4,98,136.8,98 M66.9,118v1.6C67.7,118.9,67.4,118.4,66.9,118 M64.1,186
			c-1,0.5-1.2,1.2-1.1,2.4c0.7-0.5,1.2-0.9,1.8-1.3C64.5,186.7,64.3,186.4,64.1,186 M69.6,157.2c-0.5,2-0.4,2.1,1.4,2.1
			C70.5,158.5,70,157.8,69.6,157.2 M142.5,90.7c-1.4,1.1-0.2,2-0.4,3c0.4-0.1,0.7-0.1,1-0.1c-0.1-0.5-0.1-1-0.2-1.4
			C142.8,91.7,142.7,91.3,142.5,90.7 M71.2,151.8c0.2,0.6,0.5,1.1,0.8,1.9c0.6-2,0.6-2,0.4-3.2C72,150.9,71.6,151.3,71.2,151.8
			 M67.7,145.9c1-2.2,1-2.2-0.2-3.9c-0.9,0.7,0.3,1.2,0.2,1.8C67.6,144.4,66.9,145.1,67.7,145.9 M137.5,110.9
			c0.9-2.3,0.8-3.9-0.3-5.4c-0.2,0.9-0.7,1.7-0.6,2.5C136.6,108.9,137.1,109.8,137.5,110.9 M100.6,86.9c1.4-1.2,1.3,0.6,2,1.1
			c0.8-0.8,0.6-1.8,0.9-2.7c-1.3-0.1-2.4-0.6-3.7-0.2C100,85.7,100.3,86.2,100.6,86.9 M129.6,81.8c1.1,0.7,2,1.3,2.8,1.8
			c0.5-0.4,0.8-0.6,1.2-0.9c0.4-0.3,0.7-0.7,1.1-1.1C132.4,80.9,131.5,80.9,129.6,81.8 M92.1,182.7c-0.7-2.6-2.7-5-4.4-5.5
			C87.7,178.8,89,180.5,92.1,182.7 M123.3,116.2c0.8-0.1,1.3-0.3,1.9-0.4c1.2-1.6,0.2-3-0.2-4.7c-0.5,0.4-0.8,0.7-1.1,1
			c1.1,0.8-0.2,1.3-0.3,2C123.4,114.7,123.4,115.4,123.3,116.2 M76.1,184.1c-3.8-0.3-6.9,1.2-7.9,3.6h3.8c0.7-2.2,0.7-2.2,2.7-2.9
			C75.3,184.7,75.7,184.3,76.1,184.1 M125.5,99.6c-0.1,0-0.3,0-0.4,0c0.5,4.9,2.3,9.5,3.3,14.4c0.5-0.1,0.9-0.2,1.5-0.3
			c-0.6-0.9-1.1-1.6-1.6-2.4c0.4-0.3,0.9-0.5,1.3-0.9c0.5-0.6,0.9-1.3,1.3-1.9c0.6-0.9,0.6-1.2-0.1-1.9c-0.8-0.9-1.6-1.9-2.4-2.9
			c1.1-1.6,2.5-3,2.4-5.2c-0.1-0.1-0.3-0.2-0.4-0.4c-1-0.9-1.4-0.8-1.7,0.5c-0.4,1.4-0.7,2.8-0.5,4.2c0.1,0.7,0,1.5,0,2.3h-0.9
			C126.6,103.2,126,101.4,125.5,99.6 M154.3,54.8c-0.9-1.1-1.3-1.4-3-1.8c-2.2-0.5-3.7-1.8-4.5-3.9c-1-2.7-2.6-5-4.6-7
			c-1.6-1.6-3.3-3.2-4.9-4.8c-1.6,0.5-1.6,0.5-1.2,1.9c0.8,0.1,1.6,0.1,2.4,0.2c0,0.1,0.1,0.3,0.1,0.4c-0.6,0.3-1.2,0.7-1.7,1
			c0.5,0.6,1.1,1.3,1.6,1.8h2.8c-0.8,0.9-1.4,1.4-1.8,1.8c0.8,0.9,1.6,1.7,2.3,2.5c0.9,1,1.8,2,3.3,1.8c0.2,0,0.4,0.1,0.9,0.3
			c-1.1,0.7-2,1.3-2.8,1.8C146.8,53.6,149.1,54.4,154.3,54.8 M137.6,86.9c0.2-0.8,0.3-1.5,0.5-2.1c0.1-0.3,0.3-0.8,0.5-0.8
			c2-0.5,2.2-2.5,3.4-3.6c-1.1-1.7-1.1-1.7,0.3-2.9c1.1-0.9,1.3-2.3,0.5-3.6c-1,1.3-2,2.5-2.9,3.7c-1.5,1.9-2.6,4.2-4.7,5.7
			c-0.6,0.4-1.1,0.8-1.6,1.3c-0.7,0.8-1.3,1.3-2.5,1.3c-0.5,0-1.2,0.1-1.2,0.9c0.1,0.1,0.1,0.2,0.2,0.3c1.3,0.6,1.4,1,0.5,1.9
			c-0.3,0.3-0.6,0.5-1.1,1c1.5-0.4,2-0.3,2.5,0.1c1.6,1.2,2.3,1,2.9-0.9c0.2-0.6,0.5-1.3,0.7-1.9C136.4,87,137,86.9,137.6,86.9
			 M103.9,196.2c0-0.1,0-0.1,0-0.2H58.5c0.8,0.5,1.3,0.8,2,1.2c0.1-1,0.6-1.2,1.4-1.1c2,0.2,4,0.3,6,0.5c0.1,0,0.2,0,0.3,0.1
			c2,1.2,4.2,1.2,6.4,1.2c11.1,0,22.2,0,33.3,0c0.4,0,0.7-0.1,1.1-0.1c0-0.1,0-0.3,0-0.4c-0.8,0-1.5,0.1-2.3,0.1
			c-2.1,0.1-4.1,0.1-6.2,0.1c-0.2,0-0.5-0.4-0.7-0.6c0-0.1,0.1-0.2,0.1-0.3C101.2,196.6,102.5,196.4,103.9,196.2 M66.6,121.4
			c-0.1,0.3-0.1,0.5-0.2,0.8c-0.3,2.7-0.7,5.4-0.9,8.1c-0.2,2.5-0.3,4.9-0.4,7.4c0,0.7,0.2,1.5,0.3,2.2c0.1,0.6,0.6,0.8,1.2,0.7
			c0.5-0.1,0.8-0.4,0.7-1c0-0.3,0-0.6,0-0.9c-0.1-3.4,0.7-6.5,2.1-9.5c0.5-1.1,1.1-2.1,1.6-3.2c0.8-1.6,0.6-3.3,0.1-4.9
			c-0.2-0.6-0.5-1.2-1.4-1.2C69.4,121.7,67.8,121.1,66.6,121.4 M144.4,93.4c0.1,1.1,0.1,1.8,0.3,2.5c0.3,0.9,0.7,1.8,1,2.8
			c1.4,4.7,2.9,9.5,4.3,14.3c0.1,0.5,0.3,1-0.6,1.4c-1-1.6-1-3.6-1.6-5.3c-0.6-1.8-1-3.6-1.5-5.4c-0.1,0-0.2,0.1-0.3,0.1
			c0.6,3.4,1.2,6.8,1.8,10.2c-1.3,0.5-2.6,1-3.9,1.5c1.2,0.9,2.3,1.1,3.5,0.6c0.7-0.2,1.4-0.4,1.9,0.6c-1.8,0.4-3.5,0.8-5.2,1.2
			c-0.9,0.2-1.7,0.6-2.4,1.1c-0.7,0.5-1.2,1.6-2.5,1.4c-0.5-0.1-1.1,0.9-1.6,1.5c-0.2,0.2-0.1,0.7-0.2,1.4c5.2-2.1,10.2-4.1,15-6.1
			C152.3,115.6,145.6,95.7,144.4,93.4 M146.7,113.2c-1.2-6.2-2.3-12.3-3.5-18.6c-0.8,1.1-1.1,1.9-0.6,3c0.7,1.6,0.9,3.4,0,5.1
			c-0.2-1.3-0.4-2.5-0.7-3.7c-0.3-1.3-1.5-1.9-2.2-3c-0.4,0.2-0.8,0.4-1.2,0.7c0.4,1.9,0,3.9,2.2,5.2c-1.5,0.3-1.5,1.2-1.4,2.1
			c0.1,1.6,0.1,3.2,0.2,4.6c0.9,0.3,1.6,0.7,2.3,0.8c0.7,0.1,1.5-0.7,2.3,0.2c-0.9,0.3-1.7,0.8-2.5,0.8c-1.4,0-2.1,1.2-3.3,1.5
			c0,0,0,0.3,0,0.7c2-0.2,4-0.4,6.1-0.7c0.1,0.4,0.2,0.7,0.4,1.1c-2.5,0.4-4.9,0.9-7.3,1.3c0,0.2,0.1,0.3,0.1,0.5
			C140.7,115.3,143.6,113.9,146.7,113.2 M111.5,116.7c4.4,2.6,8.6,5.1,12.9,7.6c0.5-0.7,1-1.2,1.4-1.8c0.1,0.1,0.2,0.1,0.4,0.2
			c-0.2,0.6-0.5,1.3-0.7,2c0.3,0,0.8,0.1,0.9,0c1.1-1.7,2.1-3.3,3.2-5c-1.8-1.1-1.8,1.3-2.9,1.3c-0.7-0.9,0.5-1.3,0.5-2.1
			c-0.2-0.2-0.5-0.5-0.7-0.7c-1.3,1.4-2.6,2.8-4.1,4.3c-1-2.4-1.8-4.6-2.7-6.8c-0.6,0.4-1.1,0.7-1.6,1c-0.5-1.5-0.4-2.8,0.6-3.3
			c1.3-0.8,1.6-1.9,1.7-3.3c0.9,0.1,1.4-0.5,2-0.9c1-0.6,0.6-1.4,0.6-2.1c0-1-0.3-2-0.5-3.1c-0.1-1-0.2-2.1-0.4-3.5
			C118.5,106.2,115,111.4,111.5,116.7 M81.5,95.6c0.7-0.2,1.1-0.3,1.5-0.4c-0.1-0.5-0.2-1-0.3-1.4c-0.5-1.7-0.5-1.8,1.1-2.7
			c0.7-0.4,0.6-0.9,0.6-1.6c-1.1,0.4-2.1,0.8-3.2,1.2c-0.1-1.1-0.5-2.2,0.1-2.9c0.9-1,2.2-1.6,3.6-1.6c1.4-2.1-0.3-3.7-0.4-5.6H83
			c-0.4-4.1-1.1-8.1-0.5-12.3c-0.6,1.1-1.1,2.3-1.7,3.4c-2.8,4.7-5.4,9.6-6.6,15c-0.1,0.3,0,0.7,0,1.2c1.3-0.4,2.5-0.9,4.3-0.4
			c-1.9,0.7-1.2,1.9-1.2,3.2c-0.8-0.1-1.4-0.2-2-0.3c-0.3,0.4-0.4,1-0.8,1.2c-0.7,0.4-0.8,1-0.9,1.7c-0.4,2.2-0.9,4.3-1.3,6.4
			c0,0.2-0.2,0.4-0.3,0.5c-1.1,1.5-2.3,3-3.4,4.6c-0.6,0.9-1.1,1.9-0.7,3.1c0.5-0.1,1-0.1,1.6-0.2c0.1,0.9,0.3,1.8,0.4,2.6
			c-3,2.7-3.3,3.6-1.7,5.1c0.5-1.3,1.3-2.5,1.1-4.2c2,1.5,2.2,2.2,1.5,4.6c0.5,0.7,0.9,1.3,1.3,1.9c0.1,0.1,0.2,0.1,0.6,0.3
			c-0.2-0.6-0.4-1-0.6-1.5c1.4-0.5,1.7-2.7,3.7-2.1c0.1,0.2,0.1,0.2,0.1,0.3c0.4,2.8,0.9,3,3.1,1.3c1.6-1.2,3.2-2.3,4.8-3.4
			c0.8-0.6,1.7-1.1,2.7-1.3c-0.3,0.5-0.6,1.1-1,1.4c-1.8,1.4-3.6,2.9-5.6,4.1c-2.1,1.2-3.7,2.8-4.9,4.8c-1.5,2.7-2.9,5.4-4.4,8.1
			c-1.1,2.1-1.6,4.3-1.9,6.6c-0.2,1.1-0.6,2.4,0.1,3.4c0.8,0.5,1.5,0.7,2.1,1.2c0.7,0.6,0.3,1.4-0.2,2.3h4.1
			c0.1,0.2,0.2,0.3,0.2,0.4c-0.3,2.1,0.3,4.1,1.2,6c0.1,0.2,0.1,0.4,0.2,0.7c0.4,1.3,0.8,2.6,1.3,3.9c1.2,3.3,2.4,6.6,2.4,10.2
			c0,0.5,0.2,1,0.2,1.5c0.1,1.3,0.3,2.6,0.3,4c0,1.4-0.1,2.9-0.2,4.3c0,1,0,2-0.2,2.9c-0.2,0.8-0.6,1.6-0.9,2.4
			c0.2,0.1,0.3,0.2,0.4,0.3c0.2,0.3,0.5,0.6,0.7,0.9c-0.3,0.2-0.6,0.5-0.9,0.6c-0.4,0.2-0.8,0.3-1.5,0.6c1.9,0.4,3.5-0.4,5.1,0.4
			c-0.6,1.4-1.9,0.9-2.9,1.2c-0.3,0.6-0.6,1.2-1,2c0.6,0.3,1.2,0.9,1.8,1c1.4,0.2,2.2,1.1,3.3,2.2c-0.7,0.2-1.3,0.4-1.8,0.5
			c-0.7,0.2-1.5,0.3-2.2,0.4c-0.7,0.1-1.5,0.5-2.2,0.4c-0.7-0.1-1.2-0.7-1.9-1c-1.3,1.8-1,3.1,1.1,3.7c0.6,0.2,1.2,0.4,1.8,0.6
			c0.6,0.2,0.6,0.6,0.4,1.1c-1.7,0.3-3.3-0.1-4.9-0.6c-1.3-0.4-2.5-0.9-3.9-0.4c-0.1,0.1-0.3,0.1-0.5,0c-0.9-0.3-1.7-0.6-2.6-0.9
			c-1.5-0.5-2.4-0.5-4.7,0.1c3.6,1.2,7,1.4,10.2,1.8c5.8,0.7,11.8,0.7,17.8,0.7c-0.8-1.7-2.1-1.8-3.5-1.9c0.2-1.3,0.2-1.3,1.5-1.4
			c1.2,0,2.5,0.1,3.3-1.3c-0.7-0.4-1.3-0.9-2.1-1.4c0.3-0.6,0.6-1.1,0.9-1.7c-0.7-0.3-1.4-0.7-2-1c-1.2-0.7-2.4-1.4-3.7-2.1
			c-0.3-0.2-0.8-0.2-1.1-0.4c-0.5-0.3-0.6-0.8-0.1-1.1c0.7-0.4,1.4-1.1,2.4-0.6c0.9,0.4,2,0.6,3,0.9c0.4,0.1,0.7,0.5,1.2,0.9
			c-0.8,0.2-1.2,0.3-2,0.6c2.5,1.2,4.6,2.3,7,2.9c1.2,0.3,2.2,0,3.4-0.4c-0.5-1.2-0.9-2.3-1.4-3.6c-1.1,0.2-2.4,0.1-3.3,0.6
			c-0.9,0.5-1.7,0.6-2.3-0.1c-1.4-1.3-2.8-2.5-4.1-4c-0.8-0.9-1.4-2-2.7-2.1c-0.5-2,1.2-2,2.3-2.7c-0.2-0.7-0.5-1.4-0.7-2
			c-0.3-1-0.7-2.1-0.9-3.2c-0.1-0.6-0.3-1.1-0.6-1.7c-0.6-1-0.8-2.2-1.1-3.4c0-0.1,0.2-0.3,0.6-0.8c0.3,1,0.6,1.8,0.8,2.6
			c0.1,0,0.2,0,0.3,0c0-1.3,0.1-2.6,0-3.9c-0.1-1.1-0.5-2.1-0.2-3.2c0.1-0.3-0.2-0.6-0.3-0.9c-0.1-0.4-0.3-0.7-0.4-1.1
			c-0.2-2.5,0-5-1.4-7.2c0-0.1,0-0.2,0-0.4c0.7-0.3,1.4-0.1,2,0.8c-0.3-2.6-1.6-4.4-3-6.1c-0.7-1-1.5-1.9-2.3-2.8
			c-0.8-0.8-0.8-1.7-0.4-2.7c0.3-0.8,0.8-1.6,0.6-2.5c-0.9-0.3-1.6,1.1-2.6,0c0.6-1.7,1.7-3.4,1.8-5.4c-0.6,0.1-1.1,0.1-1.7,0.2
			c0.2-0.6,0.2-1.1,0.5-1.4c1.4-1.3,2.5-2.9,4.4-3.6c0.5-0.2,1-0.6,1.5-0.8c0.4-0.2,0.9-0.3,1.2-0.2c0.2,0.1,0.4,0.7,0.4,1
			c0,0.4-0.1,0.8-0.2,1.2c-0.2,1-0.5,2-0.7,3c0.8-0.7,1.4-1.5,2.8-1.3c0-1,0.3-1.9,0.1-2.7c-0.4-1.3-0.1-2.2,0.6-3.3
			c1.4-2.3,2.6-4.6,4-6.9c0.4-0.7,0.4-1.3,0.2-1.9c-0.5-1.5-1-2.9-1.5-4.4c0-0.1-0.1-0.1-0.2-0.2c-0.3,0.1-0.6,0.3-1.1,0.5
			c-0.4-2.8,0.8-5.7-1-8.3c-0.9,1.5-1.6,1-2.6-0.2c-1,0.1-2,0.3-3,0.3c-0.3,0-0.9-0.4-0.9-0.8C82,99.7,81.8,97.7,81.5,95.6
			 M108.9,58.9c0.4,1,1.1,0.8,1.8,0.6c0.4-0.1,0.8-0.4,1.3-0.6c0.3,0.4,0.6,0.7,0.8,1.1c0.8-0.3,1.5-0.7,2.5-1.1
			c0.1-0.7,0.1-1.6,0.3-2.5c0.1-0.6,0.2-1.4,0.6-1.7c0.8-0.6,1-1.4,1.3-2.2c0.4-0.9,0.1-1.4-0.8-1.7c-0.8-0.3-1.7-0.5-2.5-0.7
			c-0.1-0.1-0.3-0.2-0.4-0.2c-1.3-1.2-2.8-1.9-4.7-1.7c-1.1,0.1-2.2-0.1-3.3-0.2c-1,0-1.9,0-2.8,0c-0.3,0.8-0.6,1.5-0.8,2.3
			c0.4,0,0.9,0,1.4-0.1c0.1,0.5,0.1,0.9,0.1,1.2c1.6,0.5,2.9-0.4,4.1-1.3c0.4,1.4,0.4,1.4-2.4,4.5c-0.9-0.2-1.9-0.2-2.8-0.6
			c-1.1-0.5-1.7-0.1-2.4,0.7c-0.2,0.3-0.4,0.5-0.7,0.9c0.5,0.3,0.9,0.6,1.5,1c-0.6,0.5-1,0.9-1.6,1.3c0.3,0.4,0.6,0.7,1,1.1
			c-0.3,0.7-1.6,0.7-1.3,1.9c0.1,0.6-1.3,1-0.8,2.2c1.2-1,2.4-0.5,3.6,0c0.9-1.2-0.2-2.2-0.1-3.2c0.1-1.1,0-2.1,0.5-3.4
			c0.3,0.8,0.5,1.3,0.8,2.2c0.5-1.3,0-2.5,1.2-3.1c0.8,1.1-0.2,2-0.2,3c0.1,1,0,2.1,0,3.1c1.8,0.7,1.8,1.1,0.2,3.1
			c-0.5-0.1-1.1-0.3-1.6-0.2c-1.1,0.2-2,0.7-2.4,2c-0.3,1-0.5,0.9-1.5,0.6c-1.5-0.4-2.4-1.5-3.6-2.3c-1.7-1.2-3.4-2.4-5.1-3.5
			c-1.2-0.7-2.4-0.6-3.6,0.2c-1.3,0.9-2.4,2-3.1,3.4c-0.4,0.9-1,1.8-0.2,2.8c0.1,0.1,0.1,0.3,0,0.5c-0.2,1.7,0.6,2.7,2,3.6
			c0.2-0.4,0.5-0.9,0.8-1.4c0.2,0.6,0.3,1,0.5,1.4c0.5,1.4,1.4,2.5,2.7,3.2c0.4,0.2,0.7,0.6,1.1,0.8c1,0.5,2,0.7,3,0.2
			c0.8-0.4,1.6-0.3,2.5,0c4,1.4,8.1,2.8,12.1,4.2c0.2,0.1,0.4,0.2,0.5,0.2c1.5-0.5,2.3,0.7,3.3,1.3c0.9,0.5,1.7,1.1,2.8,0.9
			c-0.1-0.5-0.1-0.9-0.2-1.5c0.8,0.2,1.4,0.4,2.1,0.6c1.7,0.5,2.1,0.3,2.8-1.4c0-0.1,0.1-0.2,0.4-0.4c0.7,0.3,1.4,0.7,2.3,1.1
			c-1.7,2-0.7,3.6,0.3,5.2c1,0,1.2-0.8,1.7-1.4c1.1-1.2,2.1-2.5,3.3-3.6c1.1-1,2.5-1.5,4-1.4c0.6,0,1.2-0.1,1.7,0
			c2,0.2,3.4-0.5,4.6-2.2c1.4-2.1,2.9-4.1,4.2-6.1c1.1-1.6,1.3-3.4,0.8-5.3c-0.1-0.4-0.2-0.9-0.2-1.4c0-1.9-0.6-3.7-1.9-5.1
			c-1.1-1.3-1.6-2.8-2-4.3c-0.6-2.4-1.4-4.8-2.2-7.3c-0.6-2-2.2-3.2-3.8-4.3c-0.5-0.3-0.9-0.6-1.4-0.9c0.7-1.9,2.3-3.2,2-5.4
			c1-0.5,2-1.1,3-1.5c0.8-0.3,1.5,0,2.2,0.6c1.9,1.7,3.9,3.3,5.8,5c2,1.8,3.1,4.1,3.7,6.6c0.5,2.3,1.8,3.3,3.9,3.8
			c0.9,0.2,1.7,0.6,2.6,1c0.8,0.4,1.3,1.1,1.2,2.3h-4.8c0,0.1-0.1,0.2-0.1,0.3c0.3,0.2,0.5,0.4,0.9,0.6c1.3,0.7,2.7,1.3,4,2.1
			c0.9,0.5,1.5,1.2,1.5,2.6c-2.6,0.4-5-0.5-7.7-0.6c0.9,0.9,1.7,1.5,2.7,1.8c0.6,0.3,1.3,0.5,1.9,0.9c0.9,0.5,1.3,1.2,1.1,2.4
			c-1,0.1-2,0.2-3,0.3c-0.1,1.6-0.9,2.9-1.8,4.2c-1.6,2.3-2,5.1-2.6,7.8c-0.6,3-1.5,5.9-2.9,8.7c-0.6,1.2-0.6,2.3-0.1,3.5
			c1.4,3.7,2.8,7.3,4.1,11c0.5,1.5,0.8,3.1,1.3,4.7c1.1,3.2,2.2,6.4,3.3,9.6c0.2,0.7,0.6,1.4,1,2.3c-0.5,0.3-1,0.6-1.6,0.9
			c-1.8,0.7-3.7,1.3-5.5,2.1c-3.2,1.3-6.6,2.4-9.7,4.2c-0.7,0.4-1.6,0.4-2.4,0.7c-1-2.3-1.9-4.3-2.7-6.4c-1.4,0.6-1.3,0.6-1,1.9
			c0.3,1.5,0.4,3.1,0.3,4.6c-0.2,2.2-0.4,4.5-1,6.6c-0.8,3.1-1.8,6.2-2.9,9.2c-0.5,1.5-1.3,2.8-2,4.2c-0.2,0.4-0.6,0.7-1.2,1
			c0-0.3-0.1-0.7,0-1c2.1-2.8,2.7-6,3.7-9.2c1-3.3,1.7-6.6,2.1-9.9c0.1-1.1,0.2-2.3,0.2-3.5c0-0.3-0.2-0.7-0.4-1.4
			c-1.2,1.2-2.1,2.3-2.6,3.6c-0.3,0.8-0.8,1.4-1.4,1.5c-5.4-3.3-10.6-6.4-16-9.7c0.3-0.6,0.5-1.2,0.9-1.7
			c3.8-5.7,7.5-11.4,11.3-17.1c0.8-1.1,1.3-2.2,0.6-3.5c-0.2-0.4-0.7-0.8-1.1-1c-3.3-0.9-6.6-1.7-9.9-2.7c-1.2-0.4-2.2-0.1-2.9,0.9
			c-1.4,1.9-3.3,3.2-5.2,4.5c-1.5,1-3,2.2-4.5,3.3c-2.5,1.9-3.6,4.4-3.7,7.5c-0.2,3.3,0.4,6.6,0.7,9.8c0.2,1.6,0.4,3.2,0.2,4.8
			c-0.2,2.7-1.6,4.8-4,6.2c-1.5,0.9-2.6,2-3.7,3.3c-1.2,1.4-2.5,2.7-3.8,4c-0.7,0.7-1.1,1.5-1.1,2.4c-0.1,1.6-0.2,3.1-0.3,4.7
			c-0.1,1.1,0.1,2,0.8,2.9c1.6,2,2.3,4.4,2.1,7c-0.1,1.8,0,3.7,0.1,5.5c0,0.6,0.2,1.3,0.6,1.7c1.5,1.5,2.4,3.3,3.1,5.2
			c0.5,1.3,0.9,2.6,1.5,3.9c0.5,1.3,1.4,2.1,2.7,2.4c0.8,0.2,1.6,0.4,2.3,0.7c1.5,0.5,2.3,1.5,2.4,3.1c0.1,1.3,0,2.7-0.1,4
			c-0.2,1.4,0,2.7,0.7,3.8c1.2,1.8,1.8,3.7,1.5,5.9c-0.1,0.7,0.2,1.2,0.7,1.6c1.4,1.2,2.8,2.4,4.3,3.6c0.4,0.4,0.8,0.6,1.5,0.4
			c0.6-0.2,1.3,0.1,2,0.2c0.1,0.9,0.3,1.8,0.3,2.6c0.1,1.1-0.2,1.5-1.3,1.5c-2.1,0-4.2,0-6.2,0c-13.4,0-26.7,0-40.1,0
			c-3.2,0-6.5,0-9.7,0c-1.5,0-2.4-1.6-1.8-2.9c0.1-0.3,0.6-0.5,1-0.6c0.9-0.1,1.7-0.1,2.6-0.2c0.6-0.1,1.2-0.2,1.8-0.5
			c-0.5-0.2-1-0.3-1.6-0.5c0.4-0.8,1.1-0.4,1.6-0.6c0.5-0.1,1.1-0.3,1.3-0.6c1.4-2,2.9-3.9,3.9-6.1c0.9-1.8,2.1-3.3,3.4-4.7
			c1-1,2.2-1.7,3.5-2.1c2.3-0.6,4.6-1.1,6.7-2.3c0.5-0.3,1.5,0.1,2.4,0.3c0,0,0.3-0.2,0.3-0.4c0.2-1.8,0.4-3.5,0.5-5.3
			c0-0.3-0.3-0.7-0.6-1c-2.1-2.1-4.2-4.3-6.3-6.4c-1.4-1.4-2.6-3-3.1-4.9c-1.2-4.6-2.4-9.1-3.5-13.7c-0.4-1.8-0.4-3.8-0.6-5.7
			c-0.1-1.1-0.2-2.3-0.2-3.4c-0.1-5,0.5-10,1.1-15c0.6-4.7,1.1-9.4,1.6-14.1c0.2-2,0.9-3.7,2.1-5.4c1.9-2.5,3.2-5.3,3.5-8.6
			c0.2-2.5,0.4-4.9,0.9-7.4c0.7-4.1,2.6-7.8,4.4-11.4c1.7-3.5,3.5-7.1,5.1-10.6c0.7-1.4,1.4-2.6,2.9-3.3c2-1,3.9-0.9,5.7,0.4
			c2,1.4,3.9,2.8,5.9,4.3c0.5,0.3,0.8,0.7,1.4,0c-0.4-0.5-0.7-1-1.1-1.5c-0.7-0.8-0.9-1.6-0.5-2.6c0.3-0.8,0.6-1.6,0.8-2.5
			c0.1-0.5,0.3-1.2,0.1-1.7c-0.4-1.3-0.1-2.4,1-3.2c0.2-0.2,0.4-0.4,0.6-0.7c-1.1-2.1-0.6-3.8,1-5.3c0.6-0.6,1.4-1,2.2-1.1
			c2.8-0.4,5.5-0.4,8.3,0.2c0.9,0.2,1.7,0.6,2.6,1c0.8,0.4,1.6,0.9,2.5,1.1c1,0.3,1.7,0.9,2.1,1.9c1,2.9,1.7,6,1.2,9
			c-0.3,1.8-1.2,3.5-2,5.1c-0.2,0.5-1,0.8-1.5,1.2c-0.9,0.7-1.8,1.4-2.7,2.1c-0.7,0.5-1.3,1.1-1.9,1.7c-0.9,0.9-1.7,1.8-2.6,2.7
			c0.9,1.2,1.6,2.3,2.5,3.2c0.8,0.8,1.9,1.4,3,2.2c-2,0.4-3.8,0.3-5.3-1c-0.7-0.5-1.3-1.2-1.9-1.8c-0.9-0.9-1.8-2-3.5-1.9
			c0.8-1.2,1.6-2.1,2.3-3.1c-0.5-0.4-0.8-0.8-1.2-1.1c-0.6,0.4-1.1,0.7-1.6,1.1c-0.3-0.6-0.3-0.6,1-2.4c0.7,0.2,1.3,1.5,2.5,0.4
			c0.1-1,0.2-2.2,0.2-3.4c0.1-1.3,0.1-2.5,0.1-3.8c1.3-0.8-0.1-2.3,1-3.2C108.3,58.6,108.6,58.8,108.9,58.9L108.9,58.9z"/>
		<path class="st0" d="M104.4,151.3c-0.3-0.8-0.3-0.8-1.4-0.8C103.7,150.8,104.1,151,104.4,151.3 M101.9,148.7
			c-0.7-0.3-0.7-0.3-1.7,1.7c0.4,0.3,0.7,0.6,1,0.8C101.4,150.3,101.6,149.5,101.9,148.7 M107.7,152.2c0.1,1.1-0.6,1.3-1.6,1.3
			c0.6,1-0.2,2.1,0.8,3c3,2.7,5.8,5.4,8.7,8.2c0.3,0.2,0.6,0.4,0.9,0.6c-0.9-1.6-2.5-2.6-2.3-4.7c0.4,0.3,0.6,0.7,0.8,1.1
			c0.1,0.2,0.1,0.6,0.3,0.8c0.9,0.9,1.8,1.8,2.7,2.6c0.1,0.1,0.5-0.1,0.8-0.1c-0.7-0.9-1.2-1.7-1.8-2.5c0.1-0.1,0.2-0.2,0.2-0.3
			c0.4,0.1,0.8,0.2,1.2,0.2c0.9-0.4,1.2-1.3,1.9-1.9c1.2-0.9,2.7-1.8,3.1-3.5c0.1-0.3,0.6-0.6,1-1c0.1,0.7,0.1,1.1,0.2,1.4
			c0.4-1.7,2.4-0.3,3-1.7c-0.7-0.8-1.5-1.6-2.2-2.4c-0.6-0.7-1.3-0.7-2-0.1c-1.3,1.3-2.5,2.6-3.8,4c-0.6,0.6-1.2,1.2-1.8,1.8
			c-0.4,0.4-0.9,0.7-1.2,1.1c-0.7,0.8-1,0.8-1.6,0c0.2-0.9,0.4-1.5,0.5-2.3c0.3-0.1,0.7-0.2,0.9-0.4c0.2-0.3,0.2-0.7,0.3-1.1
			c0.5-0.2,1,0.3,1.4-0.4c0.6-0.9,1.6-1.5,2.6-2.1c1-0.5,1.8-1.5,2.9-2.4c-1.2-1.3-2.2-2.3-3.3-3.4c-1.1-1.1-2.1-2.2-3.2-3.3
			c-0.5,0.2-0.8,0.4-1,0.5c-0.7-1.1-1.4-2-2.2-3.1c-0.6-0.1-1.3-0.2-1.9-0.3c-0.9,0.9-1.8,1.7-1,3.2c-0.7-0.1-1.1-0.1-1.5-0.2
			c-0.7,0.8-1.2,1.6-1,2.7c0.1,0.3-0.3,0.8-0.5,1.2c-0.6,1-1.6,1.8-1.7,3.2c0.2,0,0.3,0.1,0.5,0.1
			C107.2,152.2,107.5,152.2,107.7,152.2 M129.6,155.8c-3.3,3.8-6.5,7.6-9.8,11.2c-1.3,1.5-1.5,1.5-3.1,0c-3.4-3.1-6.7-6.3-10.1-9.4
			c-2.3-2.1-4.6-4.2-6.9-6.3c-1.1-1-1.1-1.1-0.3-2.3c0.6-0.9,1.2-1.7,1.9-2.7c1.1,0.9,2.1,1.7,3.3,2.7c2.2-2.3,4.3-4.7,6.1-7.5
			c-0.8-1-1.5-1.9-2.3-2.7c0-0.1,0-0.3,0-0.4c2.8-2.9,1.9-2.5,4.6,0.2c4,4,7.9,8.1,11.8,12.2c1.2,1.2,2.5,2.4,3.7,3.6
			C128.9,154.9,129.2,155.3,129.6,155.8"/>
		<path class="st0" d="M122.4,145.3c0.1-0.6,0.1-1,0.2-1.3c0.4-0.8,0.8-1.6,1.2-2.3c2.5-4.2,3.6-8.7,4.1-13.5c0.1-0.9,0-1.8,0-2.9
			c1,0.4,1.1,1.1,1,1.8c-0.1,1.1-0.2,2.2-0.3,3.3c-0.5,5.3-2.9,9.9-5.6,14.4C122.9,145,122.8,145,122.4,145.3"/>
		<path class="st0" d="M108.9,58.9c-0.4-0.9-0.9-1.8-1.8-2.5c-0.6-0.4-1.1-1.1-0.8-2.1c1.2,0.2,2.5,0.3,3.8,0.7
			c1.2,0.3,1.8,2,1.3,3.1c-0.3,0.6-0.8,0.8-1.4,0.6C109.6,58.4,109.2,58.5,108.9,58.9C108.9,58.9,108.9,58.9,108.9,58.9"/>
		<path class="st0" d="M113.9,49.9c0.1,0.1,0.3,0.2,0.4,0.2c0.9,0.6,1.8,1.2,2.8,2c-0.1,0.2-0.2,0.7-0.5,1.3
			c-1.2-0.8-2.4-1.2-3.1-2.1c-0.9-1.2-2.3-0.3-3.4-1.3C111.5,49.5,112.7,49.7,113.9,49.9"/>
		<path class="st0" d="M156.9,117.8c-0.7,0.3-0.5,1.8-1.7,1c0.3-1.5,0.6-2.9,1-4.5c1.2,0,0.5,1.2,0.9,1.6c0.4,0.2,0.9,0.2,0.9,0.4
			c0.3,1,0.2,1.9-0.4,2.8C157,118.6,157,118.6,156.9,117.8"/>
		<path class="st0" d="M130.3,151.4c1.2,0.5,1.6,1.3,1.7,2.2c0.2,1.6-0.2,3.1-0.9,4.5c-0.2,0.5-0.6,0.8-1.1,0.2
			c0.3-1.1,0.5-2.3,1-3.4C131.4,153.8,130.3,152.9,130.3,151.4"/>
		<path class="st0" d="M112.2,133.7c-0.8,0.1-1.5,0.2-2.3,0.4c-0.8,0.2-1.6,0.4-2.3,0.6c-0.7,0.2-1.4,0.5-2.4,0.9
			C106.5,133.5,110.5,132.3,112.2,133.7"/>
		<path class="st0" d="M132.3,157.5c0.4-1.5,0.9-2.9,1.3-4.4c1,0.4,0.9,1.2,0.7,1.9C134.1,155.9,134.1,157.2,132.3,157.5"/>
		<path class="st0" d="M107.1,116.5c0.5,0.3,0.8,0.5,1.1,0.7c0.1-0.3,0.1-0.7,0.3-1.4c0.6,0.8,1,1.3,1.5,2c-1,0-1.2,1.3-2.2,0.8
			C107.1,118.3,106.8,117.6,107.1,116.5"/>
		<path class="st0" d="M156.9,55.6c-0.1-0.6-0.2-1.3-0.4-1.9c-0.2-0.6-0.4-1.2-0.8-2c0.5,0.3,1,0.4,1.1,0.7
			C157.2,53.4,157.7,54.4,156.9,55.6"/>
		<path class="st0" d="M113.3,132.9c-1-0.4-2.1-0.9-3.4-1.5c1.5-0.5,2.4-0.1,3.6,1.1C113.4,132.6,113.3,132.7,113.3,132.9"/>
		<path class="st0" d="M158.4,56c-0.1-1.2-0.2-2.2-0.3-3.5C159.2,54,159.3,54.8,158.4,56"/>
		<path class="st0" d="M83.2,63c-0.3,0.5-0.5,1-1,1.9c-0.2-1.1,0.3-1.6,0.7-2.1C83,62.8,83.1,62.9,83.2,63"/>
		<path class="st0" d="M76.3,100.3c-0.5-2.3-1.1-4.6-1.7-7.1h2.1c0.5-1.9,2.2-1.9,3.8-2.1c0.3,0,0.7,0.3,0.9,0.6
			c0.9,1.5,0.2,3.8-1.4,4.9c0,1,0,2,0,3c0,0.8-0.5,0.9-1.3,0.7c-0.2-1.8,0.1-3.9-1.4-5.6c0,1.5,0,3,0,4.4
			C77.4,99.8,77.4,99.8,76.3,100.3"/>
		<path class="st0" d="M82.9,163.4c0.8,0.4,0.7,1.2,0.6,1.8c-0.2,1.4,1,2.8,0.1,4.3C81.3,167.5,81.1,165.5,82.9,163.4"/>
		<path class="st0" d="M71.2,135.5c0.9,0.1,1.7-0.1,2.2,0.3c0.8,0.7,0.7,1.7,0.2,2.8C72.1,138.2,71.6,137,71.2,135.5"/>
		<path class="st0" d="M89.6,108.6c-1,1.2-2.1,1.1-3,1.2c-0.6,0.1-0.9-0.4-0.7-1.2H89.6z"/>
		<path class="st0" d="M77.9,141.6c-1.1-0.8-1.5-1.8-1.4-3.3C77.6,139.2,77.7,140.5,77.9,141.6"/>
		<path class="st0" d="M77.6,132c-0.3,0.4-0.6,0.8-0.9,1.1c-0.1,0.1-0.5,0-0.6-0.1c-0.1-0.1-0.2-0.5-0.1-0.6
			c0.4-0.3,0.8-0.6,1.2-0.9C77.4,131.7,77.5,131.9,77.6,132"/>
		<path class="st0" d="M121.4,104.7c0.1,1.1-0.5,1.7-1.3,2.3C119.8,105.9,120,105.6,121.4,104.7"/>
		<path class="st0" d="M119.1,108.2c-0.3,1.8-0.4,1.9-1.5,1.9C117.7,109.3,118.2,108.7,119.1,108.2"/>
		<path class="st0" d="M114.5,115.1c-0.1,0.8-0.4,1.3-1.4,1.5C113.2,115.7,113.8,115.4,114.5,115.1"/>
		<path class="st0" d="M116.7,112.2c-0.3,0.5-0.7,0.9-1.2,1.7c-0.2-1.3,0.1-1.7,0.8-2C116.5,112,116.6,112.1,116.7,112.2"/>
		<path class="st0" d="M111.7,158.5c-0.9-0.6-1-1.2-0.4-1.8c0.5-0.4,0.9-0.9,1.3-1.3c1.8-1.7,3.6-3.4,5.4-5.1
			c0.5-0.4,0.9-0.8,1.5-1.3c0.3,0.4,0.5,0.8,0.5,0.8C117.2,152.8,114.5,155.6,111.7,158.5"/>
		<path class="st0" d="M108.3,151.6c-0.2-0.5-0.5-0.9-0.4-1.2c0.1-0.5,0.7-0.7,1.9-0.6C109.3,150.4,108.9,150.9,108.3,151.6"/>
		<path class="st0" d="M109.3,148.4c0.9-0.4,1.5-0.7,2.2-1.1C111.1,149,110.6,149.3,109.3,148.4"/>
		<path class="st0" d="M110,147.5c-0.3-0.3-0.4-0.5-0.5-0.7c0-0.1,0.3-0.4,0.4-0.3c0.2,0,0.4,0.2,0.5,0.4
			C110.4,146.9,110.2,147.2,110,147.5"/>
	</g>
</g>
</svg>
