<?xml version="1.0" encoding="utf-8"?>
<!-- Generator: Adobe Illustrator 26.3.1, SVG Export Plug-In . SVG Version: 6.00 Build 0)  -->
<svg version="1.1" id="Laag_1" xmlns="http://www.w3.org/2000/svg" xmlns:xlink="http://www.w3.org/1999/xlink" x="0px" y="0px"
	 viewBox="25 0 480 176.2" style="enable-background:new 0 0 480 176.2;" xml:space="preserve">
<style type="text/css">
	.st0{clip-path:url(#SVGID_00000168804163915733448980000016942027745504453311_);fill:#BDA600;}
	.st1{clip-path:url(#SVGID_00000031896099747291208170000016186394701605491856_);fill:#BDA600;}
	.st2{clip-path:url(#SVGID_00000114068190896663004740000010639566480474444706_);fill:#BDA600;}
	.st3{clip-path:url(#SVGID_00000031898250024299247730000005186196956732073859_);fill:#BDA600;}
	.st4{clip-path:url(#SVGID_00000159467492700832602630000000325428096928214666_);fill:#BDA600;}
	.st5{clip-path:url(#SVGID_00000018228521574297362180000016148194163793847466_);fill:#BDA600;}
	.st6{clip-path:url(#SVGID_00000123425034298476663740000013152375018237861798_);fill:#BDA600;}
	.st7{clip-path:url(#SVGID_00000037685697335454422350000014887702473224001421_);fill:#BDA600;}
	.st8{clip-path:url(#SVGID_00000123426573226919139110000007750061199534470024_);fill:#BDA600;}
	.st9{clip-path:url(#SVGID_00000029730453615234429330000009595219707617381513_);fill:#BDA600;}
	.st10{clip-path:url(#SVGID_00000139276933055182543090000003137522317642353318_);fill:#BDA600;}
	.st11{clip-path:url(#SVGID_00000042016157989177128090000008390285605913265032_);fill:#BDA600;}
	.st12{clip-path:url(#SVGID_00000153664513580872313530000016846825637877020602_);fill:none;stroke:#BDA600;stroke-width:1.019;}
	.st13{clip-path:url(#SVGID_00000012439428512634440750000000499110939278910619_);fill:#BDA600;}
	.st14{clip-path:url(#SVGID_00000171681432920668819290000003371058483550769080_);fill:#BDA600;}
</style>
<g>
	<g>
		<defs>
			<rect id="SVGID_1_" x="25" y="28.4" width="430.1" height="119.5"/>
		</defs>
		<clipPath id="SVGID_00000104686868138484912420000012798684527645116087_">
			<use xlink:href="#SVGID_1_"  style="overflow:visible;"/>
		</clipPath>
		<path style="clip-path:url(#SVGID_00000104686868138484912420000012798684527645116087_);fill:#BDA600;" d="M56.7,50.6l11.5,19.9
			c-1.8,1.3-3.5,2.9-4.7,4.7L32,57c0.9-2,1.5-4.2,1.7-6.4L56.7,50.6z"/>
	</g>
	<g>
		<defs>
			<rect id="SVGID_00000107580752640993759960000007833501455022569377_" x="25" y="28.4" width="430.1" height="119.5"/>
		</defs>
		<clipPath id="SVGID_00000043458493862726709360000010621206274433694882_">
			<use xlink:href="#SVGID_00000107580752640993759960000007833501455022569377_"  style="overflow:visible;"/>
		</clipPath>
		<path style="clip-path:url(#SVGID_00000043458493862726709360000010621206274433694882_);fill:#BDA600;" d="M61.1,79.3
			c-0.9,2-1.5,4.2-1.7,6.4H36.4L25,65.9c1.8-1.3,3.4-2.9,4.7-4.7L61.1,79.3z"/>
	</g>
	<g>
		<defs>
			<rect id="SVGID_00000078018735314731225390000014024242988936554154_" x="25" y="28.4" width="430.1" height="119.5"/>
		</defs>
		<clipPath id="SVGID_00000169530778965661621480000002895314829974615465_">
			<use xlink:href="#SVGID_00000078018735314731225390000014024242988936554154_"  style="overflow:visible;"/>
		</clipPath>
		<path style="clip-path:url(#SVGID_00000169530778965661621480000002895314829974615465_);fill:#BDA600;" d="M78.7,30.1v36.3
			c-1.1,0.2-2.2,0.3-3.3,0.6c-1.1,0.3-2.1,0.6-3.1,1.1L60.8,48.2l11.5-19.9C74.3,29.3,76.5,29.9,78.7,30.1"/>
	</g>
	<g>
		<defs>
			<rect id="SVGID_00000047761267034587572770000000465815114204304309_" x="25" y="28.4" width="430.1" height="119.5"/>
		</defs>
		<clipPath id="SVGID_00000049941756314298743300000014896325935692781753_">
			<use xlink:href="#SVGID_00000047761267034587572770000000465815114204304309_"  style="overflow:visible;"/>
		</clipPath>
		<path style="clip-path:url(#SVGID_00000049941756314298743300000014896325935692781753_);fill:#BDA600;" d="M89.9,28.4l11.5,19.9
			L89.9,68.1c-2-0.9-4.2-1.5-6.4-1.7V30.1c1.1-0.2,2.1-0.3,3.2-0.6C87.8,29.2,88.9,28.9,89.9,28.4"/>
	</g>
	<g>
		<defs>
			<rect id="SVGID_00000160910240029785853850000002316746073674649786_" x="25" y="28.4" width="430.1" height="119.5"/>
		</defs>
		<clipPath id="SVGID_00000079480584121528481020000016322979059042478526_">
			<use xlink:href="#SVGID_00000160910240029785853850000002316746073674649786_"  style="overflow:visible;"/>
		</clipPath>
		<path style="clip-path:url(#SVGID_00000079480584121528481020000016322979059042478526_);fill:#BDA600;" d="M128.4,50.6
			c0.2,1.1,0.3,2.2,0.6,3.3c0.3,1.1,0.6,2.2,1.1,3.1L98.8,75.2c-1.3-1.8-2.9-3.4-4.7-4.7l11.5-19.8L128.4,50.6z"/>
	</g>
	<g>
		<defs>
			<rect id="SVGID_00000075868847735952063880000010903688621447793816_" x="25" y="28.4" width="430.1" height="119.5"/>
		</defs>
		<clipPath id="SVGID_00000142869193983811733670000012668383821670539932_">
			<use xlink:href="#SVGID_00000075868847735952063880000010903688621447793816_"  style="overflow:visible;"/>
		</clipPath>
		<path style="clip-path:url(#SVGID_00000142869193983811733670000012668383821670539932_);fill:#BDA600;" d="M137.2,65.9
			l-11.5,19.9h-22.9c-0.2-1.1-0.3-2.2-0.6-3.3c-0.3-1.1-0.6-2.2-1.1-3.1l31.4-18.1C133.9,63,135.4,64.6,137.2,65.9"/>
	</g>
	<g>
		<defs>
			<rect id="SVGID_00000051379390480474502440000012382012771892121998_" x="25" y="28.4" width="430.1" height="119.5"/>
		</defs>
		<clipPath id="SVGID_00000081630799837466885380000015007392743250077071_">
			<use xlink:href="#SVGID_00000051379390480474502440000012382012771892121998_"  style="overflow:visible;"/>
		</clipPath>
		<path style="clip-path:url(#SVGID_00000081630799837466885380000015007392743250077071_);fill:#BDA600;" d="M68.1,105.8
			l-11.5,19.8H33.8c-0.1-1.1-0.3-2.2-0.5-3.3c-0.2-1.1-0.6-2.2-1.1-3.1L63.5,101C64.8,102.9,66.3,104.5,68.1,105.8"/>
	</g>
	<g>
		<defs>
			<rect id="SVGID_00000130609313912257787040000012137938176544037797_" x="25" y="28.4" width="430.1" height="119.5"/>
		</defs>
		<clipPath id="SVGID_00000102521155414355283570000006691078533194228898_">
			<use xlink:href="#SVGID_00000130609313912257787040000012137938176544037797_"  style="overflow:visible;"/>
		</clipPath>
		<path style="clip-path:url(#SVGID_00000102521155414355283570000006691078533194228898_);fill:#BDA600;" d="M59.4,90.5
			c0.1,1.1,0.3,2.2,0.5,3.3c0.3,1.1,0.6,2.2,1.1,3.1l-31.4,18.1c-1.3-1.8-2.9-3.4-4.7-4.7l11.5-19.8L59.4,90.5z"/>
	</g>
	<g>
		<defs>
			<rect id="SVGID_00000083050013615352996350000010640320334023023551_" x="25" y="28.4" width="430.1" height="119.5"/>
		</defs>
		<clipPath id="SVGID_00000183934834158140138970000007363457805210952366_">
			<use xlink:href="#SVGID_00000083050013615352996350000010640320334023023551_"  style="overflow:visible;"/>
		</clipPath>
		<path style="clip-path:url(#SVGID_00000183934834158140138970000007363457805210952366_);fill:#BDA600;" d="M89.9,108.1l11.5,19.9
			l-11.5,19.9c-2-0.9-4.2-1.5-6.4-1.7v-21.7V110c1.1-0.2,2.2-0.3,3.3-0.6C87.9,108.9,88.9,108.6,89.9,108.1"/>
	</g>
	<g>
		<defs>
			<rect id="SVGID_00000042714116048983596910000000029746480517026958_" x="25" y="28.4" width="430.1" height="119.5"/>
		</defs>
		<clipPath id="SVGID_00000141441736538828497290000008538928650705860252_">
			<use xlink:href="#SVGID_00000042714116048983596910000000029746480517026958_"  style="overflow:visible;"/>
		</clipPath>
		<path style="clip-path:url(#SVGID_00000141441736538828497290000008538928650705860252_);fill:#BDA600;" d="M78.7,109.9v14.4v21.8
			c-1.1,0.2-2.2,0.3-3.3,0.6c-1.1,0.3-2.2,0.6-3.1,1.1L60.8,128l11.5-19.9C74.3,109,76.5,109.6,78.7,109.9"/>
	</g>
	<g>
		<defs>
			<rect id="SVGID_00000099634087016348279590000003276305760840742293_" x="25" y="28.4" width="430.1" height="119.5"/>
		</defs>
		<clipPath id="SVGID_00000071521678992769497120000009948615715248517276_">
			<use xlink:href="#SVGID_00000099634087016348279590000003276305760840742293_"  style="overflow:visible;"/>
		</clipPath>
		<path style="clip-path:url(#SVGID_00000071521678992769497120000009948615715248517276_);fill:#BDA600;" d="M125.8,90.5l11.5,19.9
			c-1.8,1.3-3.4,2.9-4.7,4.7l-31.4-18.1c0.9-2,1.5-4.2,1.7-6.4H125.8z"/>
	</g>
	<g>
		<defs>
			<rect id="SVGID_00000076572096035652016680000013301909103785917336_" x="25" y="28.4" width="430.1" height="119.5"/>
		</defs>
		<clipPath id="SVGID_00000101087132262677107870000004675700814366380209_">
			<use xlink:href="#SVGID_00000076572096035652016680000013301909103785917336_"  style="overflow:visible;"/>
		</clipPath>
		<path style="clip-path:url(#SVGID_00000101087132262677107870000004675700814366380209_);fill:#BDA600;" d="M130.2,119.2
			c-0.9,2-1.5,4.2-1.6,6.4h-22.9l-11.5-19.9c1.8-1.3,3.4-2.9,4.7-4.7L130.2,119.2z"/>
	</g>
	<g>
		<defs>
			<rect id="SVGID_00000004504120095294210800000008413030136847510151_" x="25" y="28.4" width="430.1" height="119.5"/>
		</defs>
		<clipPath id="SVGID_00000147188444855922641910000009802224609371663014_">
			<use xlink:href="#SVGID_00000004504120095294210800000008413030136847510151_"  style="overflow:visible;"/>
		</clipPath>
		
			<line style="clip-path:url(#SVGID_00000147188444855922641910000009802224609371663014_);fill:none;stroke:#BDA600;stroke-width:1.019;" x1="158.8" y1="28.4" x2="158.8" y2="147.9"/>
	</g>
	<g>
		<defs>
			<rect id="SVGID_00000050629543356667414360000007640499669599860352_" x="25" y="28.4" width="430.1" height="119.5"/>
		</defs>
		<clipPath id="SVGID_00000160885425938078790950000017813190142408745913_">
			<use xlink:href="#SVGID_00000050629543356667414360000007640499669599860352_"  style="overflow:visible;"/>
		</clipPath>
		<path style="clip-path:url(#SVGID_00000160885425938078790950000017813190142408745913_);fill:#BDA600;" d="M447.7,96.9h-5.3v28.7
			h5.3V96.9z M429.4,120.2c-0.9,0.2-3.9,1.6-5.7,1.6c-1.6,0-2.7-0.7-2.7-2.6c0-1.4,0.5-2.6,4.2-2.7l4.1-0.2V120.2z M436.7,121.7
			c-1.2-0.1-2-0.2-2-1.4v-11c0-5.7-4.3-6.4-8.9-6.4c-3.5,0-6.2,0.9-8.2,1.6l1,4c1.6-0.4,4-1,6.2-1c3.2,0,4.7,0.4,4.7,3.1v2.4
			c-0.7,0-4.4,0.1-4.4,0.1c-4.1,0.1-9.1,1-9.1,6.6c0,4.3,2.6,6.4,7.1,6.4c3.2,0,5.5-1.6,6.9-2.7c0.5,2.4,4,2.7,6.6,2.5L436.7,121.7z
			 M410.9,125.6v-14.1c0-4.6-0.5-8.7-7.2-8.7c-3.4,0-6,1.9-7.5,2.9v-2.4h-5.3v22.2h5.3v-16.3c1-0.5,3.5-1.9,5.7-1.9
			c3,0,3.6,1.5,3.6,4.7v13.5H410.9z M380.1,114.5c0,4-1,7.3-5.4,7.3c-4.2,0-5.7-3.1-5.7-7.2c0-3.8,1.2-7.5,5.5-7.5
			C379,107.1,380.1,110.7,380.1,114.5 M385.6,114.5c0-7.4-3.5-11.7-10.8-11.7c-6.6,0-11,4.4-11,11.9c0,7.1,3.8,11.4,10.7,11.4
			C380.8,126.1,385.6,122.1,385.6,114.5 M358.1,103.4h-5.3v22.2h5.3V103.4z M359.3,96.4l-3.9-3.8l-3.9,3.8l3.9,3.9L359.3,96.4z
			 M348.3,125.3l-0.6-4.2c0,0-2.7,0.5-4.2,0.5c-2.4,0-3.1-0.2-3.1-2.6v-11.5h6.9v-4.1h-6.9v-6.5h-5.3v6.5h-3.2v4.1h3.2V119
			c0,7.1,4.3,7.1,8.6,7.1C345,126,347.1,125.7,348.3,125.3 M321.3,120.2c-0.9,0.2-3.9,1.6-5.7,1.6c-1.6,0-2.7-0.7-2.7-2.6
			c0-1.4,0.5-2.6,4.2-2.7l4.1-0.2V120.2z M328.6,121.7c-1.2-0.1-2-0.2-2-1.4v-11c0-5.7-4.3-6.4-8.9-6.4c-3.5,0-6.2,0.9-8.2,1.6l1,4
			c1.6-0.4,4-1,6.2-1c3.2,0,4.7,0.4,4.7,3.1v2.4c-0.7,0-4.4,0.1-4.4,0.1c-4.1,0.1-9.1,1-9.1,6.6c0,4.3,2.6,6.4,7.1,6.4
			c3.2,0,5.5-1.6,6.9-2.7c0.5,2.4,4,2.7,6.6,2.5L328.6,121.7z M302.8,125.6v-14.1c0-4.6-0.5-8.7-7.2-8.7c-3.4,0-6,1.9-7.5,2.9v-2.4
			h-5.3v22.2h5.3v-16.3c1-0.5,3.5-1.9,5.7-1.9c3,0,3.6,1.5,3.6,4.7v13.5H302.8z M279.6,103.3c-0.7-0.2-1.6-0.4-2.8-0.4
			c-2.7,0-4.9,1.8-6,3.5v-3h-5.3v22.2h5.3v-15.5c0.9-1.3,3-2.5,5.3-2.5c1.3,0,1.8,0.1,2.8,0.2L279.6,103.3z M254.7,112.2h-8.9
			c0.2-3.8,2.6-5.3,4.9-5.3C253,107,254.8,108.8,254.7,112.2 M260.3,116v-2c0-7-2.6-11.2-9-11.2c-6.3,0-10.8,3-10.8,12
			c0,8.7,4.4,11.1,11.4,11.1c2.7,0,6-0.3,7.9-0.9l-0.8-4.2c-1.7,0.4-4.5,0.5-6,0.5c-4,0-7-0.7-7.1-5.5L260.3,116L260.3,116z
			 M237.7,125.3l-0.6-4.2c0,0-2.7,0.5-4.2,0.5c-2.4,0-3.1-0.2-3.1-2.6v-11.5h6.9v-4.1h-6.9v-6.5h-5.4v6.5h-3.2v4.1h3.2V119
			c0,7.1,4.3,7.1,8.6,7.1C234.4,126,236.5,125.7,237.7,125.3 M216.9,125.6v-14.1c0-4.6-0.5-8.7-7.2-8.7c-3.4,0-6,1.9-7.5,2.9v-2.4
			h-5.3v22.2h5.3v-16.3c1-0.5,3.5-1.9,5.7-1.9c3,0,3.6,1.5,3.6,4.7v13.5H216.9z M189.6,96.9h-5.5v28.7h5.5V96.9z"/>
	</g>
	<g>
		<defs>
			<rect id="SVGID_00000072279445522562319580000005369517514251856308_" x="25" y="28.4" width="430.1" height="119.5"/>
		</defs>
		<clipPath id="SVGID_00000173844798714031998040000003747325288481244336_">
			<use xlink:href="#SVGID_00000072279445522562319580000005369517514251856308_"  style="overflow:visible;"/>
		</clipPath>
		<path style="clip-path:url(#SVGID_00000173844798714031998040000003747325288481244336_);fill:#BDA600;" d="M455,72.9
			c0-7.4-11.1-6.3-11.1-9.9c0-1,0.8-2,3.3-2c2.4,0,4.1,0.4,5.7,0.8l0.9-4c-1.6-0.6-4-1-6.7-1c-4.6,0-8.6,2.1-8.6,6.7
			c0,7.9,11.2,6.3,11.2,9.8c0,1.3-1.1,2.2-4.6,2.2c-1.6,0-4.1-0.3-6.4-0.7l-0.6,4.2c1.6,0.5,4.5,0.9,7.6,0.9
			C449.5,79.8,455,78.4,455,72.9 M436.7,57c-0.7-0.2-1.6-0.4-2.8-0.4c-2.7,0-4.9,1.8-6,3.5v-3h-5.3v22.2h5.3V63.9
			c0.9-1.3,3-2.5,5.3-2.5c1.3,0,1.8,0.1,2.8,0.2L436.7,57z M411.9,66H403c0.2-3.8,2.6-5.3,4.9-5.3C410.1,60.7,411.9,62.5,411.9,66
			 M417.4,69.8v-2c0-7-2.6-11.2-9-11.2c-6.3,0-10.8,3-10.8,12c0,8.7,4.4,11.1,11.4,11.1c2.7,0,6-0.3,7.9-0.9l-0.8-4.2
			c-1.7,0.4-4.5,0.5-6,0.5c-4,0-7-0.7-7.1-5.5L417.4,69.8L417.4,69.8z M392.3,79.3V65.2c0-4.6-0.5-8.7-7.2-8.7c-3.4,0-6,1.9-7.5,2.9
			V57h-5.3v22.2h5.3V63.1c1-0.5,3.5-1.9,5.7-1.9c3,0,3.6,1.5,3.6,4.7v13.5L392.3,79.3L392.3,79.3z M368,79.1l-0.6-4.2
			c0,0-2.7,0.5-4.2,0.5c-2.4,0-3.1-0.2-3.1-2.6V61.2h6.9v-4.1H360v-6.6h-5.3v6.6h-3.2v4.1h3.2v11.5c0,7.1,4.3,7.1,8.6,7.1
			C364.8,79.8,366.9,79.4,368,79.1 M349.2,57c-0.7-0.2-1.6-0.4-2.8-0.4c-2.7,0-4.9,1.8-6,3.5v-3H335v22.2h5.3V63.9
			c0.9-1.3,3-2.5,5.3-2.5c1.3,0,1.8,0.1,2.8,0.2L349.2,57z M322.1,73.8c-0.9,0.2-3.9,1.6-5.7,1.6c-1.6,0-2.7-0.7-2.7-2.6
			c0-1.4,0.5-2.6,4.2-2.7l4.1-0.2V73.8z M329.4,75.5c-1.2-0.1-2-0.2-2-1.4v-11c0-5.7-4.3-6.4-8.9-6.4c-3.5,0-6.2,0.9-8.2,1.6l1,4
			c1.6-0.4,4-1,6.2-1c3.2,0,4.7,0.4,4.7,3.1v2.4c-0.7,0-4.4,0.1-4.4,0.1c-4.1,0.1-9.1,1-9.1,6.6c0,4.3,2.6,6.4,7.1,6.4
			c3.2,0,5.5-1.6,6.9-2.7c0.5,2.4,4,2.7,6.6,2.5L329.4,75.5z M299.6,67.8c0,4.6-2.1,7.7-6.1,7.7c-1.8,0-2.8-0.2-3.6-0.2V62.4
			c0.8-0.4,2.6-1.2,4.2-1.2C298.3,61.2,299.6,63.6,299.6,67.8 M305,67.4c0-7.4-3.5-10.7-9.5-10.7c-2.1,0-4.6,1.2-5.7,2v-1.6h-5.3
			v31.2h5.3v-8.8c0.9,0.2,2,0.2,3.5,0.2C299.4,79.7,305,76.7,305,67.4 M272.7,73.8c-1,0.5-2.7,1.4-4.4,1.4c-2.9,0-5.3-1.7-5.3-7.1
			c0-4.2,1.7-7.4,6.2-7.4c1.6,0,2.7,0.2,3.5,0.4L272.7,73.8L272.7,73.8z M278,79.3V50.6h-5.3v6.3c-1-0.2-1.9-0.4-3.6-0.4
			c-6.4,0-11.5,4-11.5,11.6c0,9.8,5.4,11.6,9.7,11.6c2.6,0,4.2-1.1,5.3-2v1.7L278,79.3L278,79.3z M248.3,68.3c0,4-1,7.3-5.4,7.3
			c-4.2,0-5.7-3.1-5.7-7.2c0-3.8,1.2-7.5,5.5-7.5C247.3,60.9,248.3,64.5,248.3,68.3 M253.8,68.3c0-7.4-3.5-11.7-10.8-11.7
			c-6.6,0-11,4.4-11,11.9c0,7.1,3.8,11.4,10.7,11.4C249,79.9,253.8,75.9,253.8,68.3 M222.6,68.3c0,4-1,7.3-5.4,7.3
			c-4.2,0-5.7-3.1-5.7-7.2c0-3.8,1.2-7.5,5.5-7.5C221.6,60.9,222.6,64.5,222.6,68.3 M228.1,68.3c0-7.4-3.5-11.7-10.8-11.7
			c-6.6,0-11,4.4-11,11.9c0,7.1,3.8,11.4,10.7,11.4C223.4,79.9,228.1,75.9,228.1,68.3 M202.9,54.9v-4.3h-18.8v28.7h5.5V67.7h12.5
			v-4.1h-12.5v-8.7H202.9z"/>
	</g>
</g>
</svg>
