<?xml version="1.0" encoding="utf-8"?>
<!-- Generator: Adobe Illustrator 26.3.1, SVG Export Plug-In . SVG Version: 6.00 Build 0)  -->
<svg version="1.1" id="Layer_2_00000062158305452099714020000003074079343193126847_"
	 xmlns="http://www.w3.org/2000/svg" xmlns:xlink="http://www.w3.org/1999/xlink" x="0px" y="0px" viewBox="0 0 480 176.2"
	 style="enable-background:new 0 0 480 176.2;" xml:space="preserve">
<style type="text/css">
	.st0{fill:#A1A8AD;}
	.st1{fill:#5B6670;}
	.st2{fill:#FEFEFE;}
	.st3{fill:#E1251B;}
</style>
<g>
	<g>
		<path class="st0" d="M132.3,47.3c0,0,72.2-32.2,127.4-9.4s99.6,65.5,99.6,65.5s-32.9-17.2-69.3-23.2c-36.3-6-61-1.7-83.7-9.5
			s-27.8-14.9-48.9-10.3c-21.1,4.7-40.8,5.5-40.8,5.5L132.3,47.3z"/>
		<path class="st1" d="M350.3,107c0,0-32.7-5.6-72.2,0.8c-39.4,6.3-78.9,12.7-97.8,0.5c-19-12.1-45.6-37.7-51.1-41.2
			c-5.4-3.4,18.6-18.6,37.7-14.3c19.1,4.4,37,20,64.3,22.1c27.3,2.1,59.3,4.4,80.7,11.3c21.4,7,47.9,16.3,53.6,23.7
			C371.4,117.6,350.3,107,350.3,107"/>
		<path class="st1" d="M370.1,112.2c0,0-7.4-14.1-25.9-27.5c-18.5-13.4-42.2-26.5-61.6-33.5c-19.4-7-37.8-12.8-57.5-14.7
			c-19.6-1.9-35-2.5-58.8,3.2c-19.6,4.7-26.8,11.9-31.5,15.5c-4.9,3.6-8.9,8.8-8.9,8.8s29.3-21.1,58.9-23.2
			c30.5-2.3,45.3,1.1,54.4,2.6c9.1,1.5,37.7,8.8,60.3,19.7c21.6,10.6,27.5,14.9,39.4,23.2C349.6,93.6,370.1,112.2,370.1,112.2"/>
		<path class="st1" d="M112.1,73.1c0,0,11.7-2.7,40.4,18.3c27.8,18.5,51.9,18.3,64.7,18.5c12.9,0.2,48.4-4.6,66.1-7.4
			c17.1-2.7,32.4-3.7,48.7-2.2c15.4,1.4,32.9,10.5,32.9,10.5s-21.4-6.3-37.6-6.9c-16.1-0.5-29,0.9-58.9,5.2
			c-30,4.3-42.3,6.3-64.9,4.6c-22.5-1.6-41.2-10.3-52.6-18.2c-11.4-7.7-20-15-26.9-18C117,74.8,112.1,73.1,112.1,73.1"/>
		<path class="st2" d="M203.3,70.3c-2-6.9-5.2-12.6-16-12.6c-11.7,0-17.8,9.2-17.8,21.7c0,11.9,6.1,23.9,19.6,23.9
			c7.7,0,12.7-4.8,14.6-11.9l2,0.3c-0.9,3.8-1.4,7.7-1.8,11.6c-4.1,1.8-9.8,3.2-16.4,3.2c-16,0-28-8.8-28-26.7
			c0-16,12.9-25.3,27.6-25.3c8.4,0,11,2.6,17.8,3.6c-0.1,3.9,0.1,7.9,0.5,11.9L203.3,70.3z"/>
		<path class="st2" d="M213.9,60.5c0-1.6-0.2-2.2-1.9-2.8c-0.8-0.3-1.6-0.6-2.3-0.9v-1.7c3.2-0.8,7.9-2.6,11.4-4.2l0.8,0.6V101
			c0,2,1.7,2.2,3.7,2.2h0.8v2.1c-2.7-0.2-5.4-0.3-8.2-0.3c-2.9,0-5.9,0.2-8.5,0.3v-2.1c2.3,0,4.2,0,4.2-2.2L213.9,60.5L213.9,60.5z"
			/>
		<path class="st2" d="M249.6,82.9c0-4.1-2.4-5.8-5.6-5.8c-4.1,0-5.2,1.1-5.5,5.1c-0.2,2-4,2.8-5.1,2.8c-0.8,0-1.3-0.5-1.3-1.6
			c0-2.8,1.7-4.9,3.9-6c2.3-1.3,5-2.6,7.7-4.1c1.6-0.9,2.8-1,4.3-1c6.3,0,9.6,3.3,9.6,9.5v14.6c0,3.1,0.2,5.2,2.2,5.2
			c0.6,0,1.6-0.5,2-0.9l0.9,1.3c-2.1,2.7-4.1,4.5-7.5,4.5c-3.4,0-5.2-2.3-5.4-5.6c-3.1,3.1-6.3,5.6-11,5.6c-4.3,0-7.7-2.7-7.7-7.4
			c0-5.6,4.5-7.3,9.6-9.2l8.8-3.1L249.6,82.9L249.6,82.9z M249.6,89.3c-3.9,1.3-10.5,2.7-10.5,7.7c0,3.1,1.6,4.6,4.4,4.6
			c3.3,0,5.3-2.7,6.1-3.8V89.3z"/>
		<path class="st2" d="M293.9,97.6c-2.8,5-7.7,8.9-13.7,8.9c-9,0-13.9-8.3-13.9-16.4c0-9,6.1-17.8,15.8-17.8
			c7.4,0,11.3,5.4,11.2,12.5l-0.9,0.8h-19.3c0,7.3,3.4,14.5,11,14.5c3.4,0,6.2-1.3,8.5-3.8L293.9,97.6z M281.5,83.4
			c3.8,0,4.5-0.1,4.5-2.7c0-2.7-1.8-5.9-5-5.9c-4.4,0-6.8,4.1-7.6,8.5L281.5,83.4L281.5,83.4z"/>
		<path class="st2" d="M316.3,81.9c-0.4-4-1.9-7-6.4-7c-2.4,0-4.9,1.5-4.9,4.3c0,7.7,14.8,6,14.8,16.8c0,7.7-6.2,10.5-12.1,10.5
			c-3.4,0-6-1-8.5-1.9l-0.6-7.9l2-0.4c0.4,3.9,2.8,7.7,7,7.7c2.8,0,5.3-1.6,5.3-4.7c0-6.9-14.3-5.7-14.3-16.7
			c0-6.3,4.9-10.2,11.4-10.2c3.2,0,5.7,0.7,8.5,1.7c-0.2,2.6-0.4,5.1-0.2,7.6L316.3,81.9z"/>
		<rect x="158.6" y="11.8" class="st3" width="0.9" height="152.7"/>
	</g>
	<g>
		<path class="st1" d="M140,107.7c3.7,0.1,6.3,0.2,8.9,0.2c4.3-0.1,8.1-0.1,12.9-0.2l-0.4,3.2c-0.2,1.1-0.3,2.2-0.4,3.3h-1.3
			c-0.1-4-0.9-4.9-5.1-4.9c-1.8,0-3.5,0.2-5.4,0.2l-2.3,12.1l6.3-0.2c2-0.1,3-0.8,3.7-3.9h1.2c-1,4.9-1.2,6.5-1.7,10.1h-1.2
			c0-0.2,0.2-1.2,0.2-1.7c0-2-0.4-2.5-3.4-2.5c-2.4,0-4.9,0.1-5.2,0.1l-1.5,8.3c-0.2,1.1-0.3,2-0.3,2.8c0,1,0.8,1.6,3.6,1.6h0.5
			l-0.2,1.3c-1.6-0.1-4.8-0.2-6.9-0.2c-2.2,0-4.5,0.2-6.7,0.2l0.2-1.3h0.3c2.7,0,3.4-0.6,3.7-2.7l3.4-18.2c0.4-2.4,0.7-3.9,0.7-4.8
			c0-1.3-1.2-1.6-3.7-1.6L140,107.7z"/>
		<path class="st1" d="M182.4,125.9c0,6.3-4.7,12.2-11.6,12.2c-5,0-8.4-3.7-8.4-8.2c0-6.7,5.3-12.2,11.7-12.2
			C179.3,117.7,182.4,121,182.4,125.9z M170.7,136.5c5,0,7-8.6,7-12.7c0-3.4-1.3-4.5-3.4-4.5c-5,0-7,8.5-7,12.4
			C167.2,135,168.3,136.5,170.7,136.5z"/>
		<path class="st1" d="M205.3,125.9c0,6.3-4.7,12.2-11.6,12.2c-5,0-8.4-3.7-8.4-8.2c0-6.7,5.3-12.2,11.7-12.2
			C202.3,117.7,205.3,121,205.3,125.9z M193.6,136.5c5,0,7-8.6,7-12.7c0-3.4-1.3-4.5-3.4-4.5c-5,0-7,8.5-7,12.4
			C190.1,135,191.2,136.5,193.6,136.5z"/>
		<path class="st1" d="M232,105.1l-6.2,26.3c-0.2,1-0.3,1.5-0.3,1.7c0,0.5,0.2,0.7,0.6,0.7c0.5,0,1.3-0.6,2.2-1.5l1.6-1.5l0.8,1
			c-3.7,4.5-6,6.3-8,6.3c-1.5,0-2-0.9-2-2c0-1,0.5-2.7,0.9-4.5h-0.1c-2.2,3.6-5.9,6.5-9.2,6.5c-3,0-4.5-2.2-4.5-5.6
			c0-6,7.2-14.9,13.6-14.9c1,0,2,0.2,3.1,0.8l2-10l-2.8-1.3l0.2-0.8c2.7-0.2,5.3-0.8,7.6-1.5L232,105.1z M214.9,135
			c4.6,0,8.6-8.1,8.6-12.8c0-2-0.5-2.9-2.4-2.9c-4.6,0-8.5,8.8-8.5,12.8C212.6,133.8,213,135,214.9,135z"/>
		<path class="st1" d="M247.3,107.7c1.8,0.1,3.5,0.2,5.4,0.2c1.9,0,5.4-0.2,7.7-0.2c5.8,0,8.8,2.6,8.8,7c0,5.7-5.3,9-10.2,9
			c-1.3,0-2.6-0.1-3.2-0.2l0.3-1.6c0.6,0.1,0.9,0.2,2,0.2c3.1,0,5.2-3.5,5.2-7.4c0-3.4-1.4-5.3-4.5-5.3c-0.7,0-1.7,0.2-2.1,0.2
			l-4.2,23.2c-0.1,0.4-0.2,1.2-0.2,1.8c0,1.2,0.8,1.7,3.4,1.7h0.7l-0.2,1.3c-1.6,0-4.7-0.2-7.2-0.2c-2.2,0-4.3,0.2-6.4,0.2l0.2-1.3
			c2.4-0.1,3.5-0.1,4-2.5l3.5-18.9c0.2-1.1,0.5-2.8,0.5-3.8c0-1.5-0.9-2.1-3.9-2.1L247.3,107.7z"/>
		<path class="st1" d="M279.1,119.5c0,2.2-1.3,5.3-2,7.7l0.1,0.1c2-3.1,5.2-9.7,8.5-9.7c1.2,0,1.8,0.6,1.8,1.6
			c0,1.6-0.7,3.1-2.1,3.1c-0.9,0-1.2-0.2-1.9-0.2c-1.3,0-3.1,2-4.9,5.4c-1,1.9-2.4,4.9-2.8,6.1c-0.6,1.7-0.9,3-1,3.2
			c-0.2,0.4-0.5,0.7-2.3,0.7c-1.6,0-2-0.4-2-0.8c0-0.2,0.3-1.4,0.9-3.1l2-6.8c0,0,0.9-3.1,0.9-3.8c0-0.4-0.1-0.9-0.6-0.9
			c-0.7,0-1.8,0.7-3.4,2.4l-0.8-0.9c3-3.7,5.9-6,7.7-6C278.6,117.7,279.1,118.4,279.1,119.5z"/>
		<path class="st1" d="M306.6,125.9c0,6.3-4.7,12.2-11.6,12.2c-5,0-8.4-3.7-8.4-8.2c0-6.7,5.3-12.2,11.7-12.2
			C303.5,117.7,306.6,121,306.6,125.9z M294.8,136.5c5,0,7-8.6,7-12.7c0-3.4-1.3-4.5-3.4-4.5c-5,0-7,8.5-7,12.4
			C291.3,135,292.5,136.5,294.8,136.5z"/>
		<path class="st1" d="M319.2,120.1c-0.1,1.4-1.1,5-1.6,7l-3.1,10.5c-1.7,5.7-3.2,8-8.4,9.6l-0.4-1.2c1.8-0.9,3-3,4.8-9.5l3.6-13
			c0.1-0.3,0.2-0.6,0.2-0.9c0-0.5-0.2-0.7-0.6-0.7c-0.8,0-1.7,0.8-3.4,2.7l-1-1c3.6-3.9,6.1-5.9,7.7-5.9
			C318.3,117.7,319.2,118.2,319.2,120.1z M321,109.7c0,1.4-1.3,2.7-2.7,2.7c-1.4,0-2.7-1.3-2.7-2.7c0-1.4,1.3-2.7,2.7-2.7
			C319.7,107,321,108.3,321,109.7z"/>
		<path class="st1" d="M339.2,121.3c0,3.9-4.8,6.7-12.4,7.7c-0.2,0.5-0.2,1.3-0.2,2.3c0,2,1.2,3.8,3.4,3.8c2.1,0,4.5-1.1,7-3.4
			l0.8,1c-4,3.8-7,5.2-10.4,5.2c-3.6,0-5.6-2.7-5.6-6.5c0-6.7,6.2-13.9,12.9-13.9C337.4,117.7,339.2,118.9,339.2,121.3z M334.6,121
			c0-1.1-0.4-1.7-1.6-1.7c-2.2,0-5,4.5-5.9,8.1C331,127.2,334.6,124.1,334.6,121z"/>
		<path class="st1" d="M358.8,120.1c0,1.3-0.9,2.3-2.3,2.3c-2.6,0-3.1-2.1-4.8-2.1c-2.9,0-5.9,7.7-5.9,11.5c0,2.2,1.5,3.4,3.4,3.4
			c2.1,0,5-1.6,7.7-4.2l0.9,1.2c-3.8,3.7-7.7,5.9-10.8,5.9c-4.4,0-6.3-2.6-6.3-6.1c0-3.5,1.7-7.1,5-10c3.4-2.9,7.1-4.3,9.9-4.3
			C357.2,117.7,358.8,118.2,358.8,120.1z"/>
		<path class="st1" d="M371.7,112.3l-1.8,6.1h5l-0.5,2.1h-5.1l-3,9.9c-0.3,1-0.7,2.3-0.7,2.8c0,0.5,0.3,0.8,0.9,0.8
			c1.5,0,3.1-2,4.4-3.1l0.8,0.9c-3.9,4.5-6.6,6.5-8.7,6.5c-1.6,0-2.3-1-2.3-2.4c0-1.2,0.7-3.7,1.5-6.3l2.7-9h-4.4l0.5-2.1h4.5
			l1.8-6.1L371.7,112.3L371.7,112.3z"/>
		<path class="st1" d="M388.4,120.4c0,1-0.6,2-1,2.6h-1c-0.6-1.8-2.4-2.4-4.1-2.4c-2,0-3.2,0.5-3.2,1.6c0,1,1,2,2.8,3.1l2.6,1.6
			c2,1.3,2.8,2.1,2.8,4.1c0,2.7-3.7,7-8.5,7c-3.2,0-5.9-1.3-5.9-3.5c0-1.5,0.2-2,1.3-3.1h0.8c0.3,2.4,3.3,3.5,6,3.5
			c2,0,3.2-0.3,3.2-1.7c0-0.8-0.2-1.3-2.3-2.7c-1.3-0.9-3-2-4.1-2.7c-1.3-0.8-2.1-2.2-2.1-3.5c0-2.5,3-4.9,5.4-6.2
			c0.9-0.5,1.8-0.5,2.9-0.5C387.1,117.7,388.4,118.5,388.4,120.4z"/>
	</g>
	<g>
		<path class="st3" d="M138.3,106.7c3.7,0.1,6.3,0.2,8.9,0.2c4.3-0.1,8.1-0.1,12.9-0.2l-0.4,3.2c-0.2,1.1-0.3,2.2-0.4,3.3h-1.3
			c-0.1-4-0.9-4.9-5.1-4.9c-1.8,0-3.5,0.2-5.4,0.2l-2.3,12.1l6.3-0.2c2-0.1,3-0.8,3.7-3.9h1.2c-1,4.9-1.2,6.5-1.7,10.1h-1.2
			c0-0.2,0.2-1.2,0.2-1.7c0-2-0.4-2.5-3.4-2.5c-2.4,0-4.9,0.1-5.2,0.1l-1.5,8.3c-0.2,1.1-0.3,2-0.3,2.8c0,1,0.8,1.6,3.6,1.6h0.5
			l-0.2,1.3c-1.6-0.1-4.8-0.2-6.9-0.2c-2.2,0-4.5,0.2-6.7,0.2l0.2-1.3h0.3c2.7,0,3.4-0.6,3.7-2.7l3.4-18.2c0.4-2.4,0.7-3.9,0.7-4.8
			c0-1.3-1.2-1.6-3.7-1.6L138.3,106.7z"/>
		<path class="st3" d="M180.7,124.9c0,6.3-4.7,12.2-11.6,12.2c-5,0-8.4-3.7-8.4-8.2c0-6.7,5.3-12.2,11.7-12.2
			C177.6,116.7,180.7,120,180.7,124.9z M168.9,135.5c5,0,7-8.6,7-12.7c0-3.4-1.3-4.5-3.4-4.5c-5,0-7,8.5-7,12.4
			C165.5,134,166.6,135.5,168.9,135.5z"/>
		<path class="st3" d="M203.6,124.9c0,6.3-4.7,12.2-11.6,12.2c-5,0-8.4-3.7-8.4-8.2c0-6.7,5.3-12.2,11.7-12.2
			C200.6,116.7,203.6,120,203.6,124.9z M191.8,135.5c5,0,7-8.6,7-12.7c0-3.4-1.3-4.5-3.4-4.5c-5,0-7,8.5-7,12.4
			C188.4,134,189.5,135.5,191.8,135.5z"/>
		<path class="st3" d="M230.3,104.2l-6.2,26.3c-0.2,1-0.3,1.5-0.3,1.7c0,0.5,0.2,0.7,0.6,0.7c0.5,0,1.3-0.6,2.2-1.5l1.6-1.5l0.8,1
			c-3.7,4.5-6,6.3-8,6.3c-1.5,0-2-0.9-2-2c0-1,0.5-2.7,0.9-4.5h-0.1c-2.2,3.6-5.9,6.5-9.2,6.5c-3,0-4.5-2.2-4.5-5.6
			c0-6,7.2-14.9,13.6-14.9c1,0,2,0.2,3.1,0.8l2-10l-2.8-1.3l0.2-0.8c2.7-0.2,5.3-0.8,7.6-1.5L230.3,104.2z M213.2,134
			c4.6,0,8.6-8.1,8.6-12.8c0-2-0.5-2.9-2.4-2.9c-4.6,0-8.5,8.8-8.5,12.8C210.9,132.9,211.3,134,213.2,134z"/>
		<path class="st3" d="M245.6,106.7c1.8,0.1,3.5,0.2,5.4,0.2c1.9,0,5.4-0.2,7.7-0.2c5.8,0,8.8,2.6,8.8,7c0,5.7-5.3,9-10.2,9
			c-1.3,0-2.6-0.1-3.2-0.2l0.3-1.6c0.6,0.1,0.9,0.2,2,0.2c3.1,0,5.2-3.5,5.2-7.4c0-3.4-1.4-5.3-4.5-5.3c-0.7,0-1.7,0.2-2.1,0.2
			l-4.2,23.2c-0.1,0.4-0.2,1.2-0.2,1.8c0,1.2,0.8,1.7,3.4,1.7h0.7l-0.2,1.3c-1.6,0-4.7-0.2-7.2-0.2c-2.2,0-4.3,0.2-6.4,0.2l0.2-1.3
			c2.4-0.1,3.5-0.1,4-2.5l3.5-18.9c0.2-1.1,0.5-2.8,0.5-3.8c0-1.5-0.9-2.1-3.9-2.1L245.6,106.7z"/>
		<path class="st3" d="M277.3,118.6c0,2.2-1.3,5.3-2,7.7l0.1,0.1c2-3.1,5.2-9.7,8.5-9.7c1.2,0,1.8,0.6,1.8,1.6
			c0,1.6-0.7,3.1-2.1,3.1c-0.9,0-1.2-0.2-1.9-0.2c-1.3,0-3.1,2-4.9,5.4c-1,1.9-2.4,4.9-2.8,6.1c-0.6,1.7-0.9,3-1,3.2
			c-0.2,0.4-0.5,0.7-2.3,0.7c-1.6,0-2-0.4-2-0.8c0-0.2,0.3-1.4,0.9-3.1l2-6.8c0,0,0.9-3.1,0.9-3.8c0-0.4-0.1-0.9-0.6-0.9
			c-0.7,0-1.8,0.7-3.4,2.4l-0.8-0.9c3-3.7,5.9-6,7.7-6C276.8,116.7,277.3,117.4,277.3,118.6z"/>
		<path class="st3" d="M304.8,124.9c0,6.3-4.7,12.2-11.6,12.2c-5,0-8.4-3.7-8.4-8.2c0-6.7,5.3-12.2,11.7-12.2
			C301.8,116.7,304.8,120,304.8,124.9z M293.1,135.5c5,0,7-8.6,7-12.7c0-3.4-1.3-4.5-3.4-4.5c-5,0-7,8.5-7,12.4
			C289.6,134,290.7,135.5,293.1,135.5z"/>
		<path class="st3" d="M317.5,119.2c-0.1,1.4-1.1,5-1.6,7l-3.1,10.5c-1.7,5.7-3.2,8-8.4,9.6l-0.4-1.2c1.8-0.9,3-3,4.8-9.5l3.6-13
			c0.1-0.3,0.2-0.6,0.2-0.9c0-0.5-0.2-0.7-0.6-0.7c-0.8,0-1.7,0.8-3.4,2.7l-1-1c3.6-3.9,6.1-5.9,7.7-5.9
			C316.6,116.7,317.5,117.3,317.5,119.2z M319.3,108.7c0,1.4-1.3,2.7-2.7,2.7c-1.4,0-2.7-1.3-2.7-2.7c0-1.4,1.3-2.7,2.7-2.7
			C318,106.1,319.3,107.3,319.3,108.7z"/>
		<path class="st3" d="M337.4,120.4c0,3.9-4.8,6.7-12.4,7.7c-0.2,0.5-0.2,1.3-0.2,2.3c0,2,1.2,3.8,3.4,3.8c2.1,0,4.5-1.1,7-3.4
			l0.8,1c-4,3.8-7,5.2-10.4,5.2c-3.6,0-5.6-2.7-5.6-6.5c0-6.7,6.2-13.9,12.9-13.9C335.6,116.7,337.4,118,337.4,120.4z M332.9,120.1
			c0-1.1-0.4-1.7-1.6-1.7c-2.2,0-5,4.5-5.9,8.1C329.3,126.3,332.9,123.1,332.9,120.1z"/>
		<path class="st3" d="M357,119.2c0,1.3-0.9,2.3-2.3,2.3c-2.6,0-3.1-2.1-4.8-2.1c-2.9,0-5.9,7.7-5.9,11.5c0,2.2,1.5,3.4,3.4,3.4
			c2.1,0,5-1.6,7.7-4.2l0.9,1.2c-3.8,3.7-7.7,5.9-10.8,5.9c-4.4,0-6.3-2.6-6.3-6.1s1.7-7.1,5-10c3.4-2.9,7.1-4.3,9.9-4.3
			C355.4,116.7,357,117.3,357,119.2z"/>
		<path class="st3" d="M370,111.3l-1.8,6.1h5l-0.5,2.1h-5.1l-3,9.9c-0.3,1-0.7,2.3-0.7,2.8c0,0.5,0.3,0.8,0.9,0.8
			c1.5,0,3.1-2,4.4-3.1l0.8,0.9c-3.9,4.5-6.6,6.5-8.7,6.5c-1.6,0-2.3-1-2.3-2.4c0-1.2,0.7-3.7,1.5-6.3l2.7-9h-4.4l0.5-2.1h4.5
			l1.8-6.1L370,111.3L370,111.3z"/>
		<path class="st3" d="M386.7,119.5c0,1-0.6,2-1,2.6h-1c-0.6-1.8-2.4-2.4-4.1-2.4c-2,0-3.2,0.5-3.2,1.6c0,1,1,2,2.8,3.1l2.6,1.6
			c2,1.3,2.8,2.1,2.8,4.1c0,2.7-3.7,7-8.5,7c-3.2,0-5.9-1.3-5.9-3.5c0-1.5,0.2-2,1.3-3.1h0.8c0.3,2.4,3.3,3.5,6,3.5
			c2,0,3.2-0.3,3.2-1.7c0-0.8-0.2-1.3-2.3-2.7c-1.3-0.9-3-2-4.1-2.7c-1.3-0.8-2.1-2.2-2.1-3.5c0-2.5,3-4.9,5.4-6.2
			c0.9-0.5,1.8-0.5,2.9-0.5C385.4,116.7,386.7,117.6,386.7,119.5z"/>
	</g>
	<rect x="91.6" y="106.3" class="st3" width="295.4" height="0.9"/>
</g>
</svg>
