<?xml version="1.0" encoding="utf-8"?>
<!-- Generator: Adobe Illustrator 26.3.1, SVG Export Plug-In . SVG Version: 6.00 Build 0)  -->
<svg version="1.1" id="Laag_1" xmlns="http://www.w3.org/2000/svg" xmlns:xlink="http://www.w3.org/1999/xlink" x="0px" y="0px"
	 viewBox="152 16 480 176.2" style="enable-background:new 0 0 480 176.2;" xml:space="preserve">
<style type="text/css">
	.st0{clip-path:url(#SVGID_00000018213729240512527360000014061411596586480002_);fill:#706F6F;}
	.st1{clip-path:url(#SVGID_00000066474171856757683650000017448209161014656927_);fill:#706F6F;}
	.st2{clip-path:url(#SVGID_00000145052629667370115250000000795560074831575738_);fill:#706F6F;}
	.st3{clip-path:url(#SVGID_00000178884684880958040940000012475852130452108170_);fill:#706F6F;}
	.st4{clip-path:url(#SVGID_00000178165533520889285710000008312631416596304042_);fill:#706F6F;}
	.st5{clip-path:url(#SVGID_00000107566266531459182740000011823907325247922094_);fill:#706F6F;}
	.st6{clip-path:url(#SVGID_00000027587591504728625330000000822903052824674971_);fill:#706F6F;}
	.st7{clip-path:url(#SVGID_00000085252871975897679820000004738627605527195278_);fill:#706F6F;}
	.st8{clip-path:url(#SVGID_00000042002141691554940810000016955585508062468749_);fill:#706F6F;}
	.st9{clip-path:url(#SVGID_00000045612930921108790440000007218983851009169807_);fill:#706F6F;}
	.st10{clip-path:url(#SVGID_00000050661287155585859870000005751336436648817037_);fill:#706F6F;}
	.st11{clip-path:url(#SVGID_00000046314141542281881660000010473444500999930780_);fill:#706F6F;}
	.st12{clip-path:url(#SVGID_00000021813604050287853950000009374597826436564671_);fill:#706F6F;}
	.st13{clip-path:url(#SVGID_00000038371197272679440310000012926896418124585891_);fill:#706F6F;}
</style>
<g>
	<g>
		<defs>
			<rect id="SVGID_1_" x="152" y="16.2" width="176" height="143.9"/>
		</defs>
		<clipPath id="SVGID_00000026857244667322898680000016109638235841867147_">
			<use xlink:href="#SVGID_1_"  style="overflow:visible;"/>
		</clipPath>
		<path style="clip-path:url(#SVGID_00000026857244667322898680000016109638235841867147_);fill:#706F6F;" d="M172.9,30.7l7.5,13
			c-1.2,0.9-2.3,1.9-3.1,3.1l-20.5-11.9c0.6-1.3,1-2.8,1.1-4.2H172.9z"/>
	</g>
	<g>
		<defs>
			<rect id="SVGID_00000038385955295576489590000008801253135545475763_" x="152" y="16.2" width="176" height="143.9"/>
		</defs>
		<clipPath id="SVGID_00000139974503270501509330000008733333215248308156_">
			<use xlink:href="#SVGID_00000038385955295576489590000008801253135545475763_"  style="overflow:visible;"/>
		</clipPath>
		<path style="clip-path:url(#SVGID_00000139974503270501509330000008733333215248308156_);fill:#706F6F;" d="M175.7,49.4
			c-0.6,1.3-1,2.7-1.1,4.2h-15l-7.5-13c1.2-0.9,2.2-1.9,3.1-3.1L175.7,49.4z"/>
	</g>
	<g>
		<defs>
			<rect id="SVGID_00000049943376594881827550000001550111179365019315_" x="152" y="16.2" width="176" height="143.9"/>
		</defs>
		<clipPath id="SVGID_00000046325900629574208790000013120884166644393367_">
			<use xlink:href="#SVGID_00000049943376594881827550000001550111179365019315_"  style="overflow:visible;"/>
		</clipPath>
		<path style="clip-path:url(#SVGID_00000046325900629574208790000013120884166644393367_);fill:#706F6F;" d="M187.3,17.4V41
			c-0.7,0.1-1.4,0.2-2.1,0.4c-0.7,0.2-1.4,0.4-2.1,0.7l-7.5-13l7.5-13C184.4,16.8,185.8,17.1,187.3,17.4"/>
	</g>
	<g>
		<defs>
			<rect id="SVGID_00000168089721175931288220000009575181243007405207_" x="152" y="16.2" width="176" height="143.9"/>
		</defs>
		<clipPath id="SVGID_00000044171180615692962180000012760659142921496754_">
			<use xlink:href="#SVGID_00000168089721175931288220000009575181243007405207_"  style="overflow:visible;"/>
		</clipPath>
		<path style="clip-path:url(#SVGID_00000044171180615692962180000012760659142921496754_);fill:#706F6F;" d="M194.5,16.2l7.5,13
			l-7.5,13c-1.3-0.6-2.7-1-4.2-1.2V17.3c0.7-0.1,1.4-0.2,2.1-0.4C193.2,16.8,193.9,16.5,194.5,16.2"/>
	</g>
	<g>
		<defs>
			<rect id="SVGID_00000062184291518068709050000015997526395998288256_" x="152" y="16.2" width="176" height="143.9"/>
		</defs>
		<clipPath id="SVGID_00000026149098002183329530000011149071975544799135_">
			<use xlink:href="#SVGID_00000062184291518068709050000015997526395998288256_"  style="overflow:visible;"/>
		</clipPath>
		<path style="clip-path:url(#SVGID_00000026149098002183329530000011149071975544799135_);fill:#706F6F;" d="M219.7,30.7
			c0.1,0.7,0.2,1.4,0.4,2.1c0.2,0.7,0.4,1.4,0.7,2.1l-20.5,11.8c-0.9-1.2-1.9-2.2-3.1-3.1l7.5-12.9H219.7z"/>
	</g>
	<g>
		<defs>
			<rect id="SVGID_00000129206718792087923900000014510115097478915769_" x="152" y="16.2" width="176" height="143.9"/>
		</defs>
		<clipPath id="SVGID_00000007388121519984967930000015608042662939954069_">
			<use xlink:href="#SVGID_00000129206718792087923900000014510115097478915769_"  style="overflow:visible;"/>
		</clipPath>
		<path style="clip-path:url(#SVGID_00000007388121519984967930000015608042662939954069_);fill:#706F6F;" d="M225.4,40.7l-7.5,12.9
			h-15c-0.1-0.7-0.2-1.4-0.4-2.1c-0.2-0.7-0.4-1.4-0.7-2.1l20.6-11.8C223.2,38.8,224.3,39.8,225.4,40.7"/>
	</g>
	<g>
		<defs>
			<rect id="SVGID_00000008829015059894744100000010611200327982478487_" x="152" y="16.2" width="176" height="143.9"/>
		</defs>
		<clipPath id="SVGID_00000129900401528131962060000000647096635431177904_">
			<use xlink:href="#SVGID_00000008829015059894744100000010611200327982478487_"  style="overflow:visible;"/>
		</clipPath>
		<path style="clip-path:url(#SVGID_00000129900401528131962060000000647096635431177904_);fill:#706F6F;" d="M180.4,66.7l-7.5,12.9
			h-15c-0.1-0.7-0.1-1.5-0.4-2.1c-0.2-0.7-0.4-1.4-0.7-2.1l20.5-11.8C178.2,64.8,179.2,65.8,180.4,66.7"/>
	</g>
	<g>
		<defs>
			<rect id="SVGID_00000102515577485316569970000001832073853870219179_" x="152" y="16.2" width="176" height="143.9"/>
		</defs>
		<clipPath id="SVGID_00000079477217127492897180000017829093438216197268_">
			<use xlink:href="#SVGID_00000102515577485316569970000001832073853870219179_"  style="overflow:visible;"/>
		</clipPath>
		<path style="clip-path:url(#SVGID_00000079477217127492897180000017829093438216197268_);fill:#706F6F;" d="M174.7,56.7
			c0.1,0.7,0.1,1.5,0.4,2.1c0.2,0.7,0.4,1.4,0.7,2.1l-20.5,11.8c-0.9-1.2-1.9-2.2-3.1-3.1l7.5-12.9L174.7,56.7z"/>
	</g>
	<g>
		<defs>
			<rect id="SVGID_00000049918596955705577750000012386483303389174445_" x="152" y="16.2" width="176" height="143.9"/>
		</defs>
		<clipPath id="SVGID_00000098207342867361560860000012895579572731083402_">
			<use xlink:href="#SVGID_00000049918596955705577750000012386483303389174445_"  style="overflow:visible;"/>
		</clipPath>
		<path style="clip-path:url(#SVGID_00000098207342867361560860000012895579572731083402_);fill:#706F6F;" d="M194.6,68.2l7.5,13
			l-7.6,12.9c-1.3-0.6-2.7-1-4.2-1.2V78.7v-9.5c0.7-0.1,1.4-0.2,2.1-0.4C193.2,68.7,193.9,68.5,194.6,68.2"/>
	</g>
	<g>
		<defs>
			<rect id="SVGID_00000177470954988706350300000000511279741217579414_" x="152" y="16.2" width="176" height="143.9"/>
		</defs>
		<clipPath id="SVGID_00000167392934590683123940000018075375820064338353_">
			<use xlink:href="#SVGID_00000177470954988706350300000000511279741217579414_"  style="overflow:visible;"/>
		</clipPath>
		<path style="clip-path:url(#SVGID_00000167392934590683123940000018075375820064338353_);fill:#706F6F;" d="M187.3,69.3v9.5V93
			c-0.7,0.1-1.4,0.2-2.1,0.4c-0.7,0.2-1.4,0.4-2.1,0.7l-7.5-13l7.5-13C184.4,68.8,185.8,69.2,187.3,69.3"/>
	</g>
	<g>
		<defs>
			<rect id="SVGID_00000124871712670047102130000001890055202331779004_" x="152" y="16.2" width="176" height="143.9"/>
		</defs>
		<clipPath id="SVGID_00000111156036786740996080000002479056664216747150_">
			<use xlink:href="#SVGID_00000124871712670047102130000001890055202331779004_"  style="overflow:visible;"/>
		</clipPath>
		<path style="clip-path:url(#SVGID_00000111156036786740996080000002479056664216747150_);fill:#706F6F;" d="M217.9,56.7l7.5,13
			c-1.2,0.9-2.2,1.9-3.1,3.1l-20.5-11.9c0.6-1.3,1-2.7,1.1-4.2L217.9,56.7z"/>
	</g>
	<g>
		<defs>
			<rect id="SVGID_00000022528626179885835160000005848083540999637147_" x="152" y="16.2" width="176" height="143.9"/>
		</defs>
		<clipPath id="SVGID_00000101067149991918110110000006163254364077030546_">
			<use xlink:href="#SVGID_00000022528626179885835160000005848083540999637147_"  style="overflow:visible;"/>
		</clipPath>
		<path style="clip-path:url(#SVGID_00000101067149991918110110000006163254364077030546_);fill:#706F6F;" d="M220.8,75.4
			c-0.6,1.3-1,2.7-1.1,4.2h-15l-7.5-13c1.2-0.9,2.2-1.9,3.1-3.1L220.8,75.4z"/>
	</g>
	<g>
		<defs>
			<rect id="SVGID_00000118393386792584267880000006957861502103146146_" x="152" y="16.2" width="176" height="143.9"/>
		</defs>
		<clipPath id="SVGID_00000165215724702048752100000001074771860088129170_">
			<use xlink:href="#SVGID_00000118393386792584267880000006957861502103146146_"  style="overflow:visible;"/>
		</clipPath>
		<path style="clip-path:url(#SVGID_00000165215724702048752100000001074771860088129170_);fill:#706F6F;" d="M323.2,141.2h-3.5
			v18.6h3.5V141.2z M311.4,156.3c-0.6,0.1-2.6,1-3.7,1s-1.8-0.4-1.8-1.7c0-1,0.4-1.7,2.7-1.8l2.6-0.1L311.4,156.3L311.4,156.3z
			 M316.1,157.3c-0.7,0-1.3-0.1-1.3-1v-7.1c0-3.7-2.8-4.2-5.8-4.2c-2.2,0-4,0.6-5.3,1l0.7,2.6c1-0.3,2.6-0.7,4-0.7c2.1,0,3,0.3,3,2
			v1.5c-0.4,0-2.9,0-2.9,0c-2.6,0-5.9,0.7-5.9,4.3c0,2.8,1.7,4.2,4.6,4.2c2.1,0,3.6-1,4.5-1.7c0.3,1.5,2.6,1.7,4.3,1.6L316.1,157.3z
			 M299.3,159.8v-9.2c0-2.9-0.3-5.6-4.7-5.6c-2.2,0-3.9,1.2-4.8,1.9v-1.5h-3.5v14.4h3.5v-10.6c0.7-0.4,2.3-1.2,3.7-1.2
			c2,0,2.3,1,2.3,3v8.8L299.3,159.8L299.3,159.8z M279.3,152.6c0,2.6-0.7,4.8-3.5,4.8c-2.8,0-3.7-2-3.7-4.7c0-2.5,0.7-4.8,3.6-4.8
			C278.6,147.8,279.3,150.1,279.3,152.6 M282.8,152.6c0-4.8-2.3-7.6-7-7.6c-4.3,0-7.2,2.9-7.2,7.7c0,4.6,2.5,7.4,6.9,7.4
			C279.7,160.1,282.8,157.6,282.8,152.6 M265,145.4h-3.4v14.4h3.4V145.4z M265.8,140.9l-2.6-2.5l-2.6,2.5l2.6,2.6L265.8,140.9z
			 M258.6,159.6l-0.4-2.7c0,0-1.8,0.3-2.8,0.3c-1.6,0-2.1-0.1-2.1-1.7V148h4.5v-2.6h-4.5v-4.3h-3.4v4.3h-2.1v2.6h2.1v7.5
			c0,4.6,2.9,4.5,5.6,4.5C256.5,160.1,257.8,159.9,258.6,159.6 M241.1,156.3c-0.6,0.1-2.6,1-3.7,1s-1.8-0.4-1.8-1.7
			c0-1,0.4-1.7,2.7-1.8l2.6-0.1L241.1,156.3L241.1,156.3z M245.8,157.3c-0.7,0-1.3-0.1-1.3-1v-7.1c0-3.7-2.8-4.2-5.8-4.2
			c-2.2,0-4,0.6-5.3,1l0.7,2.6c1-0.3,2.6-0.7,4-0.7c2.1,0,3,0.3,3,2v1.5c-0.4,0-2.9,0-2.9,0c-2.6,0-5.9,0.7-5.9,4.3
			c0,2.8,1.7,4.2,4.6,4.2c2.1,0,3.6-1,4.5-1.7c0.3,1.5,2.6,1.7,4.3,1.6L245.8,157.3z M229.1,159.8v-9.2c0-2.9-0.3-5.6-4.7-5.6
			c-2.2,0-3.9,1.2-4.8,1.9v-1.5h-3.5v14.4h3.5v-10.6c0.7-0.4,2.3-1.2,3.7-1.2c2,0,2.3,1,2.3,3v8.8L229.1,159.8L229.1,159.8z
			 M214,145.3c-0.4-0.1-1-0.2-1.8-0.2c-1.7,0-3.2,1.2-3.9,2.2v-1.9h-3.5v14.4h3.5v-10c0.7-0.8,1.9-1.6,3.4-1.6c0.8,0,1.2,0,1.8,0.1
			L214,145.3z M197.8,151.1H192c0.1-2.4,1.7-3.4,3.2-3.4C196.7,147.7,197.9,148.9,197.8,151.1 M201.4,153.5v-1.2
			c0-4.5-1.7-7.3-5.9-7.3c-4.1,0-7,1.9-7,7.8c0,5.6,2.9,7.2,7.4,7.2c1.8,0,4-0.2,5.1-0.6l-0.5-2.7c-1.2,0.2-2.9,0.4-3.9,0.4
			c-2.6,0-4.5-0.4-4.5-3.6L201.4,153.5L201.4,153.5z M186.8,159.6l-0.4-2.7c0,0-1.8,0.3-2.8,0.3c-1.6,0-2.1-0.1-2.1-1.7V148h4.5
			v-2.6h-4.5v-4.3h-3.4v4.3H176v2.6h2.1v7.5c0,4.6,2.9,4.5,5.6,4.5C184.7,160.1,186,159.9,186.8,159.6 M173.3,159.8v-9.2
			c0-2.9-0.3-5.6-4.7-5.6c-2.2,0-3.9,1.2-4.8,1.9v-1.5h-3.5v14.4h3.5v-10.6c0.7-0.4,2.3-1.2,3.7-1.2c2,0,2.3,1,2.3,3v8.8
			L173.3,159.8L173.3,159.8z M155.5,141.2H152v18.7h3.6L155.5,141.2L155.5,141.2z"/>
	</g>
	<g>
		<defs>
			<rect id="SVGID_00000060736316704873277030000016681793976245553029_" x="152" y="16.2" width="176" height="143.9"/>
		</defs>
		<clipPath id="SVGID_00000021813457980481577760000006844774470063732881_">
			<use xlink:href="#SVGID_00000060736316704873277030000016681793976245553029_"  style="overflow:visible;"/>
		</clipPath>
		<path style="clip-path:url(#SVGID_00000021813457980481577760000006844774470063732881_);fill:#706F6F;" d="M327.9,125.5
			c0-4.8-7.3-4.1-7.3-6.5c0-0.7,0.5-1.3,2.1-1.3c1.5,0,2.6,0.3,3.7,0.5l0.6-2.6c-1.1-0.4-2.6-0.7-4.3-0.7c-3,0-5.6,1.4-5.6,4.3
			c0,5.1,7.3,4.1,7.3,6.4c0,0.8-0.7,1.4-2.9,1.4c-1,0-2.6-0.2-4.1-0.4l-0.4,2.7c1,0.4,2.9,0.6,4.9,0.6
			C324.4,130,327.9,129.1,327.9,125.5 M316.1,115.3c-0.4-0.1-1-0.2-1.8-0.2c-1.7,0-3.2,1.2-3.9,2.2v-1.9h-3.5v14.4h3.5v-10
			c0.7-0.8,1.9-1.6,3.4-1.6c0.8,0,1.2,0,1.8,0.1L316.1,115.3z M299.9,121.1h-5.8c0.1-2.4,1.7-3.4,3.2-3.4
			C298.8,117.6,299.9,118.9,299.9,121.1 M303.4,123.6v-1.3c0-4.5-1.7-7.3-5.9-7.3c-4.1,0-7,1.9-7,7.8c0,5.6,2.9,7.2,7.4,7.2
			c1.8,0,4-0.2,5.1-0.6l-0.5-2.7c-1.2,0.2-2.9,0.4-3.9,0.4c-2.6,0-4.5-0.4-4.5-3.6h9.4V123.6z M287.2,129.8v-9.2
			c0-2.9-0.3-5.6-4.7-5.6c-2.2,0-3.9,1.2-4.8,1.9v-1.5h-3.5v14.4h3.5v-10.6c0.7-0.4,2.3-1.2,3.7-1.2c2,0,2.3,1,2.3,3v8.8
			L287.2,129.8L287.2,129.8z M271.5,129.6l-0.4-2.7c0,0-1.8,0.3-2.8,0.3c-1.6,0-2.1-0.1-2.1-1.7V118h4.5v-2.6h-4.5v-4.3h-3.4v4.3
			h-2.1v2.6h2.1v7.5c0,4.6,2.9,4.5,5.6,4.5C269.4,130.1,270.7,129.8,271.5,129.6 M259.2,115.3c-0.4-0.1-1-0.2-1.8-0.2
			c-1.7,0-3.2,1.2-3.9,2.2v-1.9H250v14.4h3.5v-10c0.7-0.8,1.9-1.6,3.4-1.6c0.8,0,1.2,0,1.8,0.1L259.2,115.3z M241.6,126.2
			c-0.6,0.1-2.6,1-3.7,1s-1.8-0.4-1.8-1.7c0-1,0.4-1.7,2.7-1.8l2.6-0.1L241.6,126.2L241.6,126.2z M246.3,127.2c-0.7,0-1.3-0.1-1.3-1
			v-7.1c0-3.7-2.8-4.2-5.8-4.2c-2.2,0-4,0.6-5.3,1l0.7,2.6c1-0.3,2.6-0.7,4-0.7c2.1,0,3,0.3,3,2v1.5c-0.4,0-2.9,0-2.9,0
			c-2.6,0-5.9,0.7-5.9,4.3c0,2.8,1.7,4.2,4.6,4.2c2.1,0,3.6-1,4.5-1.7c0.3,1.5,2.6,1.7,4.3,1.6L246.3,127.2z M227,122.2
			c0,2.9-1.4,5-4,5c-1.2,0-1.8-0.1-2.3-0.1v-8.4c0.5-0.2,1.7-0.7,2.7-0.7C226.1,118,227,119.5,227,122.2 M230.5,122
			c0-4.8-2.3-7-6.2-7c-1.4,0-2.9,0.7-3.7,1.3v-1h-3.4v20.2h3.5v-5.7c0.6,0.1,1.3,0.1,2.2,0.1C226.8,130,230.5,128,230.5,122
			 M209.5,126.1c-0.7,0.3-1.8,1-2.9,1c-1.9,0-3.4-1.1-3.4-4.5c0-2.7,1.2-4.8,4-4.8c1,0,1.8,0.1,2.3,0.2V126.1z M212.9,129.8v-18.7
			h-3.4v4.1c-0.7-0.1-1.2-0.3-2.3-0.3c-4.1,0-7.4,2.6-7.4,7.6c0,6.4,3.5,7.6,6.3,7.6c1.7,0,2.7-0.7,3.4-1.3v1.2L212.9,129.8
			L212.9,129.8z M193.7,122.5c0,2.6-0.7,4.8-3.5,4.8c-2.8,0-3.7-2-3.7-4.7c0-2.5,0.7-4.8,3.6-4.8C193,117.8,193.7,120.1,193.7,122.5
			 M197.3,122.5c0-4.8-2.3-7.6-7-7.6c-4.3,0-7.2,2.9-7.2,7.7c0,4.6,2.5,7.4,6.9,7.4C194.1,130.1,197.3,127.5,197.3,122.5 M177,122.5
			c0,2.6-0.7,4.8-3.5,4.8c-2.8,0-3.7-2-3.7-4.7c0-2.5,0.7-4.8,3.6-4.8C176.3,117.8,177,120.1,177,122.5 M180.6,122.5
			c0-4.8-2.3-7.6-7-7.6c-4.3,0-7.2,2.9-7.2,7.7c0,4.6,2.5,7.4,6.9,7.4C177.5,130.1,180.6,127.5,180.6,122.5 M164.2,113.9v-2.8H152
			v18.7h3.6v-7.6h8.1v-2.6h-8.1V114L164.2,113.9L164.2,113.9z"/>
	</g>
</g>
</svg>
