<svg width="304" height="60" xmlns="http://www.w3.org/2000/svg" xmlns:xlink="http://www.w3.org/1999/xlink" overflow="hidden"><defs><clipPath id="clip0"><rect x="720" y="258" width="304" height="60"/></clipPath><clipPath id="clip1"><rect x="720" y="259" width="304" height="59"/></clipPath><clipPath id="clip2"><rect x="720" y="259" width="304" height="59"/></clipPath><clipPath id="clip3"><rect x="720" y="259" width="304" height="59"/></clipPath><clipPath id="clip4"><rect x="720" y="259" width="304" height="59"/></clipPath><clipPath id="clip5"><rect x="720" y="259" width="304" height="59"/></clipPath></defs><g clip-path="url(#clip0)" transform="translate(-720 -258)"><g clip-path="url(#clip1)"><g clip-path="url(#clip2)"><g clip-path="url(#clip3)"><g clip-path="url(#clip4)"><path d="M-87.4286-116.482C-89.2212-118.314-89.2445-121.015-89.2308-123.402-89.2225-124.776-89.2308-169.892-89.2308-170.18-94.7348-169.205-100.064-168.257-105.662-167.263-105.159-166.91-104.829-166.671-104.49-166.438-102.535-165.377-101.244-163.404-101.056-161.187L-101.056-146.881C-101.574-147.218-101.922-147.447-102.27-147.671-110.475-152.933-120.501-150.575-124.852-142.029-128.617-134.986-128.692-126.545-125.053-119.436-120.274-109.671-108.078-108.715-101.475-117.361-101.308-117.581-101.117-117.783-100.68-118.295L-100.68-111.454-84.6086-114.099C-85.0207-115.23-86.6168-115.658-87.419-116.478M-101.011-121.285C-101.012-120.664-101.238-120.064-101.647-119.596-102.797-118.421-104.089-117.394-105.493-116.539-107.71-115.274-110.529-115.954-111.925-118.09-113.46-120.247-114.41-122.764-114.682-125.396-115.622-130.808-115.532-136.349-114.419-141.727-114.12-143.05-113.619-144.318-112.932-145.487-111.875-147.558-109.34-148.38-107.269-147.323-106.948-147.16-106.65-146.955-106.382-146.716-104.64-145.272-103.307-143.396-102.516-141.277-101.513-139.036-101.006-136.606-101.03-134.152Z" fill="#103C2D" fill-rule="nonzero" fill-opacity="1" transform="matrix(1.01633 0 0 1 1031.92 429.191)"/><path d="M-70.1459-61.6927C-72.8629-63.6694-75.8244-65.3232-78.6774-67.1185-81.9053-69.15-85.2006-71.0854-88.3503-73.2296-90.8872-74.8984-92.2372-77.8785-91.8186-80.8861-91.4935-85.0032-87.8922-88.0772-83.7751-87.7519-83.5357-87.7331-83.2971-87.7026-83.0605-87.6607-80.6041-87.1826-78.333-86.0193-76.5098-84.305-72.7747-80.8461-69.7024-76.7344-67.444-72.172-67.2146-71.7475-66.9358-71.3478-66.6789-70.9357L-66.3053-71.0731C-66.3973-72.0882-66.4825-73.1046-66.58-74.1184-66.9921-78.1774-67.3767-82.2364-67.8341-86.2899-67.9105-86.7646-68.2027-87.1772-68.6253-87.4066-73.3868-89.0756-78.3782-89.9959-83.4218-90.1346-88.237-90.3688-92.9681-88.8107-96.7018-85.761-102.986-80.2132-103.583-70.6214-98.0354-64.3371-97.5846-63.8266-97.1002-63.347-96.5851-62.9015-93.8023-60.6378-90.8586-58.5793-87.7775-56.7423-84.4506-54.5445-80.9699-52.5528-77.7172-50.2533-74.8718-48.32-73.3463-44.9578-73.7654-41.5433-74.0167-37.3415-77.3907-34.0024-81.5949-33.7948-85.6553-33.5462-88.8297-35.3978-91.6703-37.9403-95.7125-41.7792-98.9944-46.3461-101.343-51.4017-101.559-51.8275-101.839-52.2258-102.089-52.6379L-102.411-52.4813C-102.448-52.3563-102.471-52.2272-102.478-52.0967-102.143-46.9306-101.821-41.7645-101.426-36.6025-101.302-36.1268-100.965-35.7356-100.512-35.5434-97.673-34.5091-94.8433-33.4157-91.934-32.6135-87.2304-31.1271-82.2333-30.821-77.3834-31.722-70.7036-33.1753-65.6597-36.6162-63.9743-43.4293-62.1886-50.6696-63.7737-57.0664-70.139-61.6982" fill="#103C2D" fill-rule="nonzero" fill-opacity="1" transform="matrix(1.01633 0 0 1 824.157 349.167)"/><path d="M-62.3424-3.39693C-65.0827-4.45732-67.999-4.98867-70.9371-4.96284-71.9124-4.90652-72.8945-4.90377-73.8629-4.78427-81.0496-3.89554-86.5289-0.549442-89.3846 6.33232-91.3305 11.0501-91.6166 16.2889-90.1964 21.1906-88.8188 26.7147-84.6497 31.1142-79.2076 32.7866-75.9666 33.8344-72.5512 34.2357-69.1555 33.9679-61.7062 33.7841-55.1427 29.0226-52.6558 21.9983-51.0801 17.5582-50.9018 12.7421-52.1448 8.19768-53.4091 2.87912-57.2302-1.4654-62.3438-3.3983M-64.738 28.5078C-66.7668 32.8099-70.944 33.2591-73.7956 29.4473-75.6623 26.6956-76.9262 23.5804-77.5043 20.306-78.7423 15.4807-79.19 10.4864-78.8298 5.51777-78.6499 3.62202-78.1169 1.77666-77.2584 0.0769222-75.3216-3.64555-71.367-3.85296-68.7572-0.543948-67.1087 1.7324-65.9464 4.32366-65.3424 7.06857-64.1555 11.4596-63.5224 15.9818-63.4578 20.5299-63.2783 23.2509-63.7165 25.9772-64.7394 28.5051" fill="#103C2D" fill-rule="nonzero" fill-opacity="1" transform="matrix(1.01633 0 0 1 856.242 283.69)"/><path d="M-38.9554-64.3026C-44.5034-66.8053-46.7932-73.2132-45.9883-78.496L-21.589-78.496C-21.5586-79.1111-21.5619-79.7275-21.5986-80.3422-21.9471-84.1527-23.7709-87.6761-26.6809-90.1607-32.3731-95.0205-42.4499-95.243-49.0707-90.5975-54.9676-86.4643-57.0376-80.4809-56.9002-73.5483-56.9292-69.4782-55.6338-65.5089-53.2093-62.2394-49.1146-56.8755-43.5035-54.7945-36.917-54.9593-27.9666-55.1846-23.2181-61.076-21.5326-68.4674-21.4791-68.7009-21.6288-68.9811-21.7387-69.4907-25.9776-61.8988-33.8992-62.0238-38.95-64.3026M-43.6202-89.2706C-42.2233-91.7182-39.1065-92.57-36.6588-91.173-35.8552-90.7144-35.1914-90.0459-34.7385-89.239-33.1599-86.6088-32.3762-83.5781-32.4816-80.5125L-46.1147-80.5125C-46.0324-83.5953-45.1739-86.6075-43.6188-89.2706" fill="#103C2D" fill-rule="nonzero" fill-opacity="1" transform="matrix(1.01633 0 0 1 1005.16 372.652)"/></g><path d="M0 0 7.49164 12.9764 14.9833 0Z" fill="#103C2D" fill-rule="nonzero" fill-opacity="1" transform="matrix(1.01633 0 0 1 1008.77 279.785)"/><g clip-path="url(#clip5)"><path d="M-43.9911-2.09337C-43.6037-2.39435-43.2324-2.71529-42.8785-3.0549L-64.271-3.0549C-64.0746-2.56177-60.0128 1.06592-59.0856 3.34061-58.3123 5.22245-57.4483 7.0672-56.6255 8.92981-53.1269 16.839-49.0927 25.9378-45.6092 33.8965L-41.6463 33.8965C-40.4417 31.0806-38.748 27.1356-37.5736 24.4268-37.5736 24.4268-44.6944 8.15921-46.1051 4.78427-47.5267 1.37361-47.0364-0.0206041-43.9911-2.09337" fill="#103C2D" fill-rule="nonzero" fill-opacity="1" transform="matrix(1.01633 0 0 1 1048.44 282.936)"/><path d="M-94.4587-122.686C-96.1029-123.485-97.1899-125.106-97.3034-126.931-97.3598-127.692-97.4779-128.453-97.4793-129.212L-97.504-158.562-121.656-158.562C-121.656-162.346-121.806-165.923-121.593-169.478-121.483-170.93-121.155-172.356-120.62-173.71-120.319-174.751-119.726-175.685-118.913-176.401-116.796-177.952-113.644-177.702-111.185-177.51-110.466-177.514-109.786-177.183-109.346-176.614-109.181-176.385-108.829-175.834-108.384-175.117L-103.567-166.774-96.3653-179.247-115.115-179.247C-117.835-179.269-120.535-178.79-123.082-177.835-125.223-177.023-127.162-175.758-128.769-174.126-130.481-172.323-131.737-170.136-132.433-167.749-132.546-167.377-132.647-167.002-132.736-166.622-133.343-164.046-133.506-161.363-133.896-158.557L-137.91-158.557-137.91-156.048-133.675-156.048-133.688-127.571C-133.66-125.383-134.928-123.385-136.92-122.478-137.355-122.228-137.726-121.88-138.003-121.462L-117.423-121.462C-117.701-121.88-118.072-122.228-118.506-122.478-120.494-123.383-121.761-125.376-121.737-127.56L-121.737-155.993-109.457-155.993C-109.457-152.311-109.393-133.453-109.457-127.59-109.412-125.402-110.671-123.395-112.66-122.483-113.096-122.233-113.467-121.886-113.745-121.468L-93.0302-121.468C-93.4036-121.984-93.8947-122.404-94.4628-122.693" fill="#103C2D" fill-rule="nonzero" fill-opacity="1" transform="matrix(1.01633 0 0 1 946.974 438.28)"/><path d="M-96.2156-80.3559C-98.1488-81.2397-99.4015-83.1563-99.4353-85.2817-99.4353-92.0906-99.4229-102.633-99.4353-105.199-99.4228-106.516-99.5411-107.83-99.7883-109.123-101.258-116.144-107.964-118.247-113.593-117.105-117.649-116.134-121.197-113.685-123.543-110.237-123.749-109.969-123.977-109.721-124.429-109.188L-124.429-117.208-140.564-114.285C-140.186-113.975-139.793-113.683-139.385-113.413-137.381-112.34-136.126-110.255-136.116-107.982-136.062-103.908-136.104-85.4547-136.104-85.4547-136.071-83.2612-137.34-81.2566-139.337-80.3477-139.773-80.0978-140.143-79.7503-140.421-79.3326L-119.85-79.3326C-120.128-79.75-120.499-80.0975-120.934-80.3477-122.839-81.2199-124.084-83.0968-124.148-85.191-124.133-92.1085-124.118-102.839-124.163-104.122-124.3-106.083-123.439-107.98-121.873-109.169-121.614-109.388-121.362-109.618-121.093-109.824-119.279-111.472-116.671-111.91-114.419-110.943-112.019-109.886-111.384-107.674-111.134-105.301-111.119-105.131-111.114-104.961-111.116-104.791-111.116-102.343-111.116-92.1689-111.116-85.4451-111.088-83.2559-112.356-81.2567-114.349-80.349-114.783-80.0989-115.154-79.7514-115.432-79.3339L-95.1222-79.3339C-95.3999-79.7517-95.7709-80.0992-96.2059-80.349" fill="#103C2D" fill-rule="nonzero" fill-opacity="1" transform="matrix(1.01633 0 0 1 997.385 396.156)"/></g></g></g></g></g></svg>