<?xml version="1.0" encoding="utf-8"?>
<!-- Generator: Adobe Illustrator 26.3.1, SVG Export Plug-In . SVG Version: 6.00 Build 0)  -->
<svg version="1.1" id="Laag_1" xmlns="http://www.w3.org/2000/svg" xmlns:xlink="http://www.w3.org/1999/xlink" x="0px" y="0px"
	 viewBox="0 0 640 235" style="enable-background:new 0 0 640 235;" xml:space="preserve">
<style type="text/css">
	.st0{clip-path:url(#SVGID_00000056395907391784837810000008767658313854454174_);fill:#706F6F;}
</style>
<g>
	<defs>
		<rect id="SVGID_1_" x="200" y="19.3" width="240.1" height="196.3"/>
	</defs>
	<clipPath id="SVGID_00000158733928816590415870000008153847146346237593_">
		<use xlink:href="#SVGID_1_"  style="overflow:visible;"/>
	</clipPath>
	<path style="clip-path:url(#SVGID_00000158733928816590415870000008153847146346237593_);fill:#706F6F;" d="M228.5,39.1l10.2,17.7
		c-1.6,1.2-3.1,2.6-4.2,4.2l-28-16.2c0.8-1.8,1.3-3.8,1.5-5.7L228.5,39.1z"/>
	<path style="clip-path:url(#SVGID_00000158733928816590415870000008153847146346237593_);fill:#706F6F;" d="M232.4,64.6
		c-0.8,1.8-1.3,3.7-1.5,5.7l-20.4,0l-10.2-17.7c1.6-1.2,3-2.6,4.2-4.2L232.4,64.6z"/>
	<path style="clip-path:url(#SVGID_00000158733928816590415870000008153847146346237593_);fill:#706F6F;" d="M248.1,20.9l0,32.3
		c-1,0.1-1.9,0.3-2.9,0.6c-1,0.3-1.9,0.5-2.8,1L232.2,37l10.2-17.7C244.2,20.1,246.1,20.6,248.1,20.9"/>
	<path style="clip-path:url(#SVGID_00000158733928816590415870000008153847146346237593_);fill:#706F6F;" d="M258,19.3L268.2,37
		L258,54.7c-1.8-0.8-3.7-1.3-5.7-1.6l0-32.3c1-0.1,1.9-0.3,2.9-0.5C256.2,20.1,257.1,19.8,258,19.3"/>
	<path style="clip-path:url(#SVGID_00000158733928816590415870000008153847146346237593_);fill:#706F6F;" d="M292.3,39.1
		c0.1,1,0.3,1.9,0.6,2.9c0.3,1,0.6,1.9,1,2.8l-27.9,16.1c-1.2-1.6-2.6-3-4.2-4.2l10.2-17.6L292.3,39.1z"/>
	<path style="clip-path:url(#SVGID_00000158733928816590415870000008153847146346237593_);fill:#706F6F;" d="M300.1,52.7l-10.2,17.6
		l-20.4,0c-0.1-1-0.3-1.9-0.6-2.9c-0.3-1-0.6-1.9-1-2.8L296,48.5C297.1,50.1,298.6,51.5,300.1,52.7"/>
	<path style="clip-path:url(#SVGID_00000158733928816590415870000008153847146346237593_);fill:#706F6F;" d="M238.7,88.2l-10.2,17.6
		l-20.4,0c-0.1-1-0.2-2-0.5-2.9c-0.3-1-0.6-1.9-1-2.8L234.5,84C235.7,85.6,237.1,87,238.7,88.2"/>
	<path style="clip-path:url(#SVGID_00000158733928816590415870000008153847146346237593_);fill:#706F6F;" d="M230.9,74.6
		c0.1,1,0.2,2,0.5,2.9c0.3,1,0.6,1.9,1,2.8l-27.9,16.1c-1.2-1.6-2.6-3-4.2-4.2l10.2-17.6L230.9,74.6z"/>
	<path style="clip-path:url(#SVGID_00000158733928816590415870000008153847146346237593_);fill:#706F6F;" d="M258.1,90.3l10.2,17.7
		L258,125.6c-1.8-0.8-3.7-1.3-5.7-1.6l0-19.4l0-12.9c1-0.1,1.9-0.3,2.9-0.6C256.2,91,257.2,90.7,258.1,90.3"/>
	<path style="clip-path:url(#SVGID_00000158733928816590415870000008153847146346237593_);fill:#706F6F;" d="M248.1,91.8l0,12.9
		l0,19.4c-1,0.1-1.9,0.3-2.9,0.6c-1,0.3-1.9,0.6-2.8,1l-10.2-17.7l10.2-17.7C244.2,91.1,246.1,91.6,248.1,91.8"/>
	<path style="clip-path:url(#SVGID_00000158733928816590415870000008153847146346237593_);fill:#706F6F;" d="M289.9,74.6l10.2,17.7
		c-1.6,1.2-3,2.6-4.2,4.2L268,80.3c0.8-1.8,1.3-3.7,1.5-5.7L289.9,74.6z"/>
	<path style="clip-path:url(#SVGID_00000158733928816590415870000008153847146346237593_);fill:#706F6F;" d="M293.8,100.1
		c-0.8,1.8-1.3,3.7-1.5,5.7l-20.4,0l-10.2-17.7c1.6-1.2,3-2.6,4.2-4.2L293.8,100.1z"/>
	<path style="clip-path:url(#SVGID_00000158733928816590415870000008153847146346237593_);fill:#706F6F;" d="M433.5,189.8h-4.8v25.4
		h4.8V189.8z M417.4,210.4c-0.8,0.2-3.5,1.4-5,1.4c-1.5,0-2.4-0.6-2.4-2.3c0-1.3,0.5-2.3,3.7-2.5l3.6-0.2V210.4z M423.8,211.8
		c-1,0-1.8-0.2-1.8-1.3v-9.7c0-5.1-3.8-5.7-7.9-5.7c-3,0-5.5,0.8-7.2,1.4l0.9,3.5c1.4-0.4,3.6-0.9,5.5-0.9c2.8,0,4.1,0.4,4.1,2.7
		v2.1c-0.6,0-3.9,0-3.9,0c-3.6,0-8.1,0.9-8.1,5.8c0,3.8,2.3,5.7,6.3,5.7c2.9,0,4.9-1.4,6.1-2.3c0.4,2.1,3.6,2.3,5.8,2.2L423.8,211.8
		z M400.9,215.2v-12.5c0-4-0.4-7.7-6.4-7.7c-3,0-5.3,1.7-6.6,2.6v-2.1h-4.8v19.7h4.8v-14.4c0.9-0.5,3.1-1.7,5.1-1.7
		c2.7,0,3.2,1.3,3.2,4.1v12H400.9z M373.6,205.4c0,3.6-0.9,6.5-4.8,6.5c-3.8,0-5-2.7-5-6.4c0-3.4,1-6.6,4.9-6.6
		C372.7,198.8,373.6,202,373.6,205.4 M378.5,205.4c0-6.6-3.1-10.3-9.6-10.3c-5.8,0-9.8,3.9-9.8,10.5c0,6.3,3.4,10.1,9.4,10.1
		C374.2,215.7,378.5,212.2,378.5,205.4 M354.1,195.6h-4.7v19.7h4.7V195.6z M355.2,189.4l-3.5-3.4l-3.5,3.4l3.5,3.5L355.2,189.4z
		 M345.4,215l-0.5-3.7c0,0-2.4,0.4-3.8,0.4c-2.2,0-2.8-0.2-2.8-2.3v-10.2h6.1v-3.6h-6.1v-5.8h-4.7v5.8h-2.9v3.6h2.9v10.2
		c0,6.3,3.9,6.2,7.6,6.2C342.5,215.6,344.4,215.3,345.4,215 M321.6,210.4c-0.8,0.2-3.5,1.4-5,1.4c-1.5,0-2.4-0.6-2.4-2.3
		c0-1.3,0.5-2.3,3.7-2.5l3.6-0.2V210.4z M328,211.8c-1,0-1.8-0.2-1.8-1.3v-9.7c0-5.1-3.8-5.7-7.9-5.7c-3,0-5.5,0.8-7.2,1.4l0.9,3.5
		c1.4-0.4,3.6-0.9,5.5-0.9c2.8,0,4.1,0.4,4.1,2.7v2.1c-0.6,0-3.9,0-3.9,0c-3.6,0-8.1,0.9-8.1,5.8c0,3.8,2.3,5.7,6.3,5.7
		c2.9,0,4.9-1.4,6.1-2.3c0.4,2.1,3.6,2.3,5.8,2.2L328,211.8z M305.2,215.2v-12.5c0-4-0.4-7.7-6.4-7.7c-3,0-5.3,1.7-6.6,2.6v-2.1
		h-4.8v19.7h4.8v-14.4c0.9-0.5,3.1-1.7,5.1-1.7c2.7,0,3.2,1.3,3.2,4.1v12H305.2z M284.6,195.5c-0.6-0.2-1.4-0.3-2.5-0.3
		c-2.3,0-4.4,1.6-5.3,3v-2.6H272v19.7h4.8v-13.7c0.9-1.1,2.6-2.2,4.7-2.2c1.1,0,1.6,0,2.5,0.2L284.6,195.5z M262.5,203.4h-7.9
		c0.2-3.3,2.3-4.7,4.3-4.7C261,198.7,262.6,200.4,262.5,203.4 M267.4,206.7V205c0-6.2-2.3-9.9-8-9.9c-5.6,0-9.6,2.6-9.6,10.6
		c0,7.7,3.9,9.8,10.1,9.8c2.4,0,5.4-0.3,6.9-0.8l-0.7-3.7c-1.6,0.3-4,0.5-5.3,0.5c-3.5,0-6.2-0.6-6.2-4.9H267.4z M247.5,215
		l-0.5-3.7c0,0-2.4,0.4-3.8,0.4c-2.2,0-2.8-0.2-2.8-2.3v-10.2h6.1v-3.6h-6.1v-5.8h-4.7v5.8h-2.9v3.6h2.9v10.2c0,6.3,3.9,6.2,7.6,6.2
		C244.6,215.6,246.4,215.3,247.5,215 M229.1,215.2v-12.5c0-4-0.4-7.7-6.4-7.7c-3,0-5.3,1.7-6.6,2.6v-2.1h-4.8v19.7h4.8v-14.4
		c0.9-0.5,3.1-1.7,5.1-1.7c2.7,0,3.2,1.3,3.2,4.1v12H229.1z M204.8,189.8H200v25.5h4.9V189.8z"/>
	<path style="clip-path:url(#SVGID_00000158733928816590415870000008153847146346237593_);fill:#706F6F;" d="M440,168.5
		c0-6.5-9.9-5.6-9.9-8.8c0-0.9,0.7-1.8,2.9-1.8c2.1,0,3.6,0.4,5.1,0.7l0.8-3.5c-1.5-0.5-3.6-0.9-5.9-0.9c-4.1,0-7.6,1.9-7.6,5.9
		c0,7,9.9,5.6,9.9,8.7c0,1.1-1,1.9-4,1.9c-1.4,0-3.6-0.3-5.6-0.6l-0.5,3.7c1.4,0.5,4,0.8,6.7,0.8C435.2,174.6,440,173.4,440,168.5
		 M423.8,154.5c-0.6-0.2-1.4-0.3-2.5-0.3c-2.3,0-4.4,1.6-5.3,3v-2.6h-4.8v19.7h4.8v-13.7c0.9-1.1,2.6-2.2,4.6-2.2
		c1.1,0,1.6,0,2.5,0.2L423.8,154.5z M401.7,162.4h-7.9c0.2-3.3,2.3-4.7,4.3-4.7C400.2,157.7,401.8,159.4,401.7,162.4 M406.6,165.8
		V164c0-6.2-2.3-9.9-8-9.9c-5.6,0-9.6,2.6-9.6,10.6c0,7.7,3.9,9.8,10.1,9.8c2.4,0,5.4-0.3,6.9-0.8l-0.7-3.7c-1.6,0.3-4,0.5-5.3,0.5
		c-3.5,0-6.2-0.6-6.2-4.9H406.6z M384.4,174.3v-12.5c0-4-0.4-7.7-6.4-7.7c-3,0-5.3,1.7-6.6,2.6v-2.1h-4.8v19.7h4.8v-14.4
		c0.9-0.5,3.1-1.7,5.1-1.7c2.7,0,3.2,1.3,3.2,4.1v12H384.4z M363,174l-0.5-3.7c0,0-2.4,0.4-3.8,0.4c-2.2,0-2.8-0.2-2.8-2.3v-10.2
		h6.1v-3.6h-6.1v-5.8h-4.7v5.8h-2.9v3.6h2.9v10.2c0,6.3,3.9,6.2,7.6,6.2C360.1,174.7,361.9,174.3,363,174 M346.3,154.5
		c-0.6-0.2-1.4-0.3-2.5-0.3c-2.3,0-4.4,1.6-5.3,3v-2.6h-4.8v19.7h4.8v-13.7c0.9-1.1,2.6-2.2,4.7-2.2c1.1,0,1.6,0,2.5,0.2
		L346.3,154.5z M322.3,169.4c-0.8,0.2-3.5,1.4-5,1.4c-1.5,0-2.4-0.6-2.4-2.3c0-1.3,0.5-2.3,3.7-2.5l3.6-0.2V169.4z M328.7,170.8
		c-1,0-1.8-0.2-1.8-1.3v-9.7c0-5.1-3.8-5.7-7.9-5.7c-3,0-5.5,0.8-7.2,1.4l0.9,3.5c1.4-0.4,3.6-0.9,5.5-0.9c2.8,0,4.1,0.4,4.1,2.7
		v2.1c-0.6,0-3.9,0-3.9,0c-3.6,0-8.1,0.9-8.1,5.8c0,3.8,2.3,5.7,6.3,5.7c2.9,0,4.9-1.4,6.1-2.3c0.4,2.1,3.6,2.3,5.8,2.2L328.7,170.8
		z M302.3,164c0,4-1.9,6.8-5.4,6.8c-1.6,0-2.5-0.1-3.2-0.2v-11.4c0.7-0.3,2.3-1,3.7-1C301.1,158.2,302.3,160.3,302.3,164
		 M307.1,163.7c0-6.5-3.1-9.5-8.4-9.5c-1.9,0-4,1-5,1.8v-1.4h-4.7v27.6h4.8v-7.8c0.8,0.1,1.8,0.1,3,0.1
		C302.1,174.6,307.1,171.9,307.1,163.7 M278.4,169.3c-0.9,0.4-2.5,1.3-3.9,1.3c-2.6,0-4.7-1.5-4.7-6.2c0-3.7,1.6-6.5,5.5-6.5
		c1.4,0,2.4,0.1,3.1,0.3V169.3z M283.1,174.3v-25.5h-4.7v5.6c-0.9-0.2-1.7-0.4-3.2-0.4c-5.6,0-10.1,3.6-10.1,10.3
		c0,8.7,4.8,10.3,8.6,10.3c2.3,0,3.7-1,4.7-1.8v1.6H283.1z M256.9,164.4c0,3.6-0.9,6.5-4.8,6.5c-3.8,0-5-2.7-5-6.4
		c0-3.4,1-6.6,4.9-6.6C256,157.9,256.9,161.1,256.9,164.4 M261.8,164.4c0-6.6-3.1-10.3-9.6-10.3c-5.8,0-9.8,3.9-9.8,10.5
		c0,6.3,3.4,10.1,9.4,10.1C257.5,174.7,261.8,171.2,261.8,164.4 M234.1,164.4c0,3.6-0.9,6.5-4.8,6.5c-3.8,0-5-2.7-5-6.4
		c0-3.4,1-6.6,4.9-6.6C233.2,157.9,234.1,161.1,234.1,164.4 M239,164.4c0-6.6-3.1-10.3-9.6-10.3c-5.8,0-9.8,3.9-9.8,10.5
		c0,6.3,3.4,10.1,9.4,10.1C234.8,174.7,239,171.2,239,164.4 M216.7,152.6v-3.8H200v25.5h4.9V164h11v-3.6h-11v-7.7H216.7z"/>
</g>
</svg>
